<svg width="20" height="20" viewBox="0 0 20 20" fill="none" xmlns="http://www.w3.org/2000/svg">
<path d="M10 20C15.5228 20 20 15.5228 20 10C20 4.47715 15.5228 0 10 0C4.47715 0 0 4.47715 0 10C0 15.5228 4.47715 20 10 20Z" fill="#D80027"/>
<path d="M5.47266 6.08618L6.33594 8.74243H9.12891L6.87109 10.387L7.73437 13.0432L5.47266 11.4026L3.21094 13.0432L4.07812 10.387L1.81641 8.74243H4.60937L5.47266 6.08618Z" fill="#FFDA44"/>
<path d="M11.8555 15.4883L11.1953 14.6758L10.2188 15.0547L10.7852 14.1758L10.125 13.3594L11.1367 13.6289L11.707 12.75L11.7617 13.7969L12.7773 14.0664L11.7969 14.4414L11.8555 15.4883Z" fill="#FFDA44"/>
<path d="M13.168 13.1055L13.4805 12.1055L12.625 11.5L13.6719 11.4844L13.9805 10.4844L14.3203 11.4766L15.3672 11.4648L14.5273 12.0898L14.8633 13.082L14.0078 12.4766L13.168 13.1055Z" fill="#FFDA44"/>
<path d="M14.937 7.33972L14.4761 8.28113L15.2261 9.0116L14.1909 8.86316L13.73 9.80066L13.5503 8.76941L12.5112 8.62097L13.4409 8.13269L13.2612 7.09753L14.0112 7.828L14.937 7.33972Z" fill="#FFDA44"/>
<path d="M11.8833 4.48828L11.8052 5.53125L12.7778 5.92578L11.7583 6.17578L11.6841 7.22266L11.1333 6.33203L10.1138 6.58203L10.7896 5.78125L10.2349 4.89453L11.2075 5.28906L11.8833 4.48828Z" fill="#FFDA44"/>
</svg>
