<svg width="20" height="20" viewBox="0 0 20 20" fill="none" xmlns="http://www.w3.org/2000/svg">
<path d="M10 20C15.5228 20 20 15.5228 20 10C20 4.47715 15.5228 0 10 0C4.47715 0 0 4.47715 0 10C0 15.5228 4.47715 20 10 20Z" fill="#0052B4"/>
<path d="M10.087 4L10.4107 4.99645H11.4584L10.6108 5.61227L10.9346 6.60871L10.087 5.99285L9.2393 6.60871L9.56309 5.61227L8.71547 4.99645H9.76316L10.087 4ZM5.78277 5.78281L6.71637 6.25844L7.45719 5.51766L7.29324 6.55242L8.2268 7.02809L7.19199 7.19199L7.02809 8.22684L6.55242 7.29328L5.51766 7.45723L6.25848 6.71641L5.78277 5.78281ZM4 10.087L4.99645 9.76316V8.71547L5.61223 9.56313L6.60871 9.23934L5.99281 10.087L6.60871 10.9346L5.61223 10.6108L4.99645 11.4584V10.4107L4 10.087ZM5.78277 14.3911L6.25844 13.4575L5.51766 12.7167L6.55246 12.8807L7.02805 11.9471L7.19199 12.9819L8.22676 13.1458L7.29332 13.6215L7.45719 14.6563L6.71637 13.9154L5.78277 14.3911ZM10.087 16.1739L9.76312 15.1775H8.71547L9.56313 14.5616L9.2393 13.5653L10.087 14.1811L10.9346 13.5653L10.6108 14.5616L11.4584 15.1775H10.4107L10.087 16.1739ZM14.3911 14.3911L13.4575 13.9155L12.7167 14.6563L12.8806 13.6214L11.9471 13.1458L12.9819 12.9819L13.1458 11.9471L13.6214 12.8807L14.6562 12.7167L13.9154 13.4576L14.3911 14.3911ZM16.1739 10.087L15.1774 10.4107V11.4584L14.5616 10.6108L13.5652 10.9346L14.1811 10.087L13.5652 9.23934L14.5616 9.56313L15.1774 8.71547V9.7632L16.1739 10.087ZM14.3911 5.78281L13.9154 6.71641L14.6563 7.45723L13.6214 7.29324L13.1458 8.2268L12.9819 7.19199L11.9471 7.02805L12.8806 6.55242L12.7167 5.5177L13.4576 6.25848L14.3911 5.78281Z" fill="#FFDA44"/>
</svg>
