<svg width="20" height="20" viewBox="0 0 20 20" fill="none" xmlns="http://www.w3.org/2000/svg">
<path d="M10 20C15.5228 20 20 15.5228 20 10C20 4.47715 15.5228 0 10 0C4.47715 0 0 4.47715 0 10C0 15.5228 4.47715 20 10 20Z" fill="#82C3D2"/>
<path fill-rule="evenodd" clip-rule="evenodd" d="M6.55006 10.1088H4.3479C4.3479 10.8892 5.02763 11.5218 5.80798 11.5218H5.76095C5.76095 12.3022 6.39356 12.9349 7.17399 12.9349C7.17399 13.7153 7.80661 14.3479 8.58704 14.3479H11.4131C12.1936 14.3479 12.8262 13.7153 12.8262 12.9349C13.6066 12.9349 14.2392 12.3022 14.2392 11.5218H14.1922C14.9725 11.5218 15.6523 10.8892 15.6523 10.1088H13.4502C12.7904 11.338 11.4928 12.1738 10.0001 12.1738C8.50737 12.1738 7.20985 11.338 6.55006 10.1088Z" fill="#FFDA44"/>
<path d="M12.989 8.26084L11.7677 8.83533L12.418 10.0181L11.0918 9.76443L10.9238 11.1041L10.0001 10.1188L9.07634 11.1041L8.90833 9.76443L7.58217 10.0181L8.23248 8.83529L7.01123 8.26084L8.23252 7.68639L7.58217 6.50362L8.9083 6.75729L9.07638 5.4176L10.0001 6.40295L10.9238 5.4176L11.0918 6.75729L12.4181 6.50362L11.7677 7.68642L12.989 8.26084Z" fill="#FFDA44"/>
</svg>
