<svg width="20" height="20" viewBox="0 0 20 20" fill="none" xmlns="http://www.w3.org/2000/svg">
<path d="M10 20C15.5228 20 20 15.5228 20 10C20 4.47715 15.5228 0 10 0C4.47715 0 0 4.47715 0 10C0 15.5228 4.47715 20 10 20Z" fill="#D80027"/>
<path d="M9.59043 8.17133L10.4109 9.30199L11.7397 8.87113L10.9179 10.0008L11.7383 11.1314L10.41 10.6989L9.58824 11.8286L9.5891 10.4317L8.26074 9.99922L9.58957 9.56836L9.59043 8.17133Z" fill="#F0F0F0"/>
<path d="M7.35133 12.8261C5.79055 12.8261 4.52523 11.5608 4.52523 10C4.52523 8.43923 5.79055 7.17392 7.35133 7.17392C7.83797 7.17392 8.29586 7.297 8.69562 7.5136C8.06848 6.90024 7.21078 6.52173 6.26437 6.52173C4.34336 6.52173 2.78613 8.07899 2.78613 9.99997C2.78613 11.9209 4.3434 13.4782 6.26437 13.4782C7.21086 13.4782 8.06852 13.0997 8.69562 12.4863C8.29586 12.703 7.83797 12.8261 7.35133 12.8261Z" fill="#F0F0F0"/>
</svg>
