<svg width="20" height="20" viewBox="0 0 20 20" fill="none" xmlns="http://www.w3.org/2000/svg">
<path d="M9.99937 20.0001C15.5219 20.0001 19.9987 15.523 19.9987 10.0002C19.9987 4.47736 15.5219 0.000244141 9.99937 0.000244141C4.47687 0.000244141 0 4.47736 0 10.0002C0 15.523 4.47687 20.0001 9.99937 20.0001Z" fill="#F0F0F0"/>
<path d="M9.56587 9.99986H20C20 9.09729 19.8797 8.22292 19.6555 7.39117H9.56587V9.99986ZM9.56587 4.78252H18.5323C17.9209 3.78533 17.1401 2.90252 16.2251 2.17383H9.56587V4.78252ZM10.0006 19.9998C12.3539 19.9998 14.517 19.1863 16.2251 17.8259H3.77615C5.48425 19.1863 7.64728 19.9998 10.0006 19.9998ZM1.46887 15.2172H18.5323C19.0297 14.4059 19.4079 13.5274 19.6555 12.6085H0.345703C0.5933 13.5274 0.971551 14.4059 1.46887 15.2172Z" fill="#D80027"/>
<path d="M4.6319 1.56163H5.54313L4.69553 2.17744L5.01929 3.17388L4.17173 2.55806L3.32417 3.17388L3.60384 2.31307C2.85617 2.93594 2.20289 3.66406 1.66443 4.47465H1.9564L1.41686 4.86664C1.33273 5.00705 1.25206 5.14952 1.17493 5.2939L1.43257 6.0869L0.951894 5.73765C0.831932 5.99165 0.72283 6.25065 0.624883 6.51393L0.908732 7.38767H1.9564L1.1088 8.00349L1.43257 8.99992L0.585002 8.38411L0.0772998 8.75301C0.0258198 9.16665 3.78038e-06 9.58309 0 9.99992H9.99937V0C8.02403 0 6.18262 0.573042 4.6319 1.56163ZM5.01929 8.99992L4.17173 8.38411L3.32417 8.99992L3.64794 8.00349L2.80033 7.38767H3.848L4.17173 6.39124L4.49546 7.38767H5.54313L4.69553 8.00349L5.01929 8.99992ZM4.69553 5.09047L5.01929 6.0869L4.17173 5.47109L3.32417 6.0869L3.64794 5.09047L2.80033 4.47465H3.848L4.17173 3.47821L4.49546 4.47465H5.54313L4.69553 5.09047ZM8.60602 8.99992L7.75846 8.38411L6.91089 8.99992L7.23466 8.00349L6.38706 7.38767H7.43473L7.75846 6.39124L8.08219 7.38767H9.12986L8.28225 8.00349L8.60602 8.99992ZM8.28225 5.09047L8.60602 6.0869L7.75846 5.47109L6.91089 6.0869L7.23466 5.09047L6.38706 4.47465H7.43473L7.75846 3.47821L8.08219 4.47465H9.12986L8.28225 5.09047ZM8.28225 2.17744L8.60602 3.17388L7.75846 2.55806L6.91089 3.17388L7.23466 2.17744L6.38706 1.56163H7.43473L7.75846 0.565191L8.08219 1.56163H9.12986L8.28225 2.17744Z" fill="#0052B4"/>
</svg>
