<svg width="280" height="220" viewBox="0 0 280 220" fill="none" xmlns="http://www.w3.org/2000/svg">
<path d="M118.27 159V142.2H116.71L112.75 144.576V146.28L116.518 144.12V159H118.27ZM126.767 159.288C128.591 159.288 130.103 158.76 131.327 157.728C132.551 156.696 133.175 155.328 133.175 153.672C133.175 152.136 132.599 150.888 131.447 149.928C130.319 148.968 128.999 148.464 127.535 148.44L132.551 143.52V142.2H122.567V143.808H130.151L124.967 148.872V150.096C125.567 149.928 126.191 149.856 126.839 149.856C129.623 149.856 131.399 151.368 131.399 153.672C131.399 154.896 130.919 155.856 129.983 156.576C129.047 157.272 127.943 157.632 126.671 157.632C124.823 157.632 123.215 157.152 121.871 156.216V158.064C123.167 158.88 124.799 159.288 126.767 159.288ZM146.938 159V157.392H138.082L142.594 153.048C143.962 151.752 144.922 150.648 145.474 149.76C146.026 148.848 146.314 147.816 146.314 146.688C146.314 145.272 145.786 144.12 144.754 143.232C143.722 142.344 142.45 141.912 140.89 141.912C138.946 141.912 137.29 142.56 135.874 143.832V145.824C137.338 144.312 138.97 143.568 140.722 143.568C143.002 143.568 144.538 144.912 144.538 146.904C144.538 147.84 144.274 148.68 143.77 149.424C143.266 150.168 142.402 151.104 141.154 152.28L135.49 157.68V159H146.938ZM153.998 159L163.838 142.2H162.326L152.486 159H153.998ZM153.398 141.912C152.246 141.912 151.286 142.296 150.518 143.088C149.774 143.856 149.39 144.816 149.39 145.944C149.39 147.072 149.774 148.032 150.518 148.824C151.286 149.616 152.246 150 153.398 150C154.574 150 155.534 149.616 156.302 148.824C157.07 148.032 157.454 147.072 157.454 145.944C157.454 144.816 157.07 143.856 156.302 143.088C155.534 142.296 154.574 141.912 153.398 141.912ZM156.014 145.944C156.014 147.504 154.934 148.68 153.398 148.68C151.862 148.68 150.806 147.504 150.806 145.944C150.806 144.408 151.886 143.232 153.398 143.232C154.91 143.232 156.014 144.408 156.014 145.944ZM162.878 151.2C161.726 151.2 160.766 151.584 159.998 152.376C159.254 153.168 158.87 154.128 158.87 155.256C158.87 156.384 159.254 157.344 159.998 158.136C160.766 158.904 161.726 159.288 162.878 159.288C164.054 159.288 165.014 158.904 165.758 158.136C166.526 157.344 166.91 156.384 166.91 155.256C166.91 154.128 166.526 153.168 165.758 152.376C165.014 151.584 164.054 151.2 162.878 151.2ZM161.006 157.2C160.526 156.696 160.286 156.048 160.286 155.256C160.286 154.464 160.526 153.816 161.006 153.312C161.51 152.784 162.134 152.52 162.878 152.52C163.622 152.52 164.246 152.784 164.726 153.312C165.23 153.816 165.47 154.464 165.47 155.256C165.47 156.048 165.23 156.696 164.75 157.2C164.27 157.704 163.646 157.968 162.878 157.968C162.11 157.968 161.486 157.704 161.006 157.2Z" fill="#333333"/>
<path d="M17.227 195.144C17.935 195.144 18.559 194.976 19.099 194.652V193.86C18.583 194.196 18.007 194.364 17.359 194.364C16.699 194.364 16.135 194.148 15.691 193.728C15.247 193.296 15.031 192.756 15.031 192.108C15.031 191.448 15.247 190.908 15.691 190.488C16.135 190.056 16.699 189.84 17.359 189.84C17.923 189.84 18.463 189.984 18.991 190.284V189.48C18.499 189.204 17.911 189.06 17.239 189.06C16.363 189.06 15.619 189.348 15.031 189.936C14.443 190.512 14.143 191.232 14.143 192.096C14.143 192.972 14.431 193.692 15.019 194.28C15.607 194.856 16.351 195.144 17.227 195.144ZM21.1948 189.96C20.6068 190.548 20.3188 191.268 20.3188 192.108C20.3188 192.948 20.6068 193.668 21.1948 194.256C21.7828 194.844 22.5268 195.144 23.4508 195.144C24.3748 195.144 25.1188 194.844 25.7068 194.256C26.2948 193.668 26.5828 192.948 26.5828 192.108C26.5828 191.268 26.2948 190.548 25.7068 189.96C25.1188 189.36 24.3748 189.06 23.4508 189.06C22.5268 189.06 21.7828 189.36 21.1948 189.96ZM25.6948 192.108C25.6948 192.744 25.4788 193.284 25.0588 193.716C24.6388 194.148 24.0988 194.364 23.4508 194.364C22.8027 194.364 22.2628 194.148 21.8428 193.716C21.4228 193.284 21.2068 192.744 21.2068 192.108C21.2068 191.46 21.4228 190.92 21.8428 190.488C22.2628 190.056 22.8027 189.84 23.4508 189.84C24.0988 189.84 24.6388 190.056 25.0588 190.488C25.4788 190.92 25.6948 191.46 25.6948 192.108ZM28.6479 189.96C28.0599 190.548 27.7719 191.268 27.7719 192.108C27.7719 192.948 28.0599 193.668 28.6479 194.256C29.2359 194.844 29.9799 195.144 30.9039 195.144C31.8279 195.144 32.5719 194.844 33.1599 194.256C33.7479 193.668 34.0359 192.948 34.0359 192.108C34.0359 191.268 33.7479 190.548 33.1599 189.96C32.5719 189.36 31.8279 189.06 30.9039 189.06C29.9799 189.06 29.2359 189.36 28.6479 189.96ZM33.1479 192.108C33.1479 192.744 32.9319 193.284 32.5119 193.716C32.0919 194.148 31.5519 194.364 30.9039 194.364C30.2559 194.364 29.7159 194.148 29.2959 193.716C28.8759 193.284 28.6599 192.744 28.6599 192.108C28.6599 191.46 28.8759 190.92 29.2959 190.488C29.7159 190.056 30.2559 189.84 30.9039 189.84C31.5519 189.84 32.0919 190.056 32.5119 190.488C32.9319 190.92 33.1479 191.46 33.1479 192.108ZM37.7018 195V189.96H39.8018V189.204H34.7378V189.96H36.8378V195H37.7018ZM41.9934 195V192.42H45.5574V195H46.4214V189.204H45.5574V191.64H41.9934V189.204H41.1294V195H41.9934ZM48.9213 189.96C48.3333 190.548 48.0453 191.268 48.0453 192.108C48.0453 192.948 48.3333 193.668 48.9213 194.256C49.5093 194.844 50.2533 195.144 51.1773 195.144C52.1013 195.144 52.8453 194.844 53.4333 194.256C54.0213 193.668 54.3093 192.948 54.3093 192.108C54.3093 191.268 54.0213 190.548 53.4333 189.96C52.8453 189.36 52.1013 189.06 51.1773 189.06C50.2533 189.06 49.5093 189.36 48.9213 189.96ZM53.4213 192.108C53.4213 192.744 53.2053 193.284 52.7853 193.716C52.3653 194.148 51.8253 194.364 51.1773 194.364C50.5293 194.364 49.9893 194.148 49.5693 193.716C49.1493 193.284 48.9333 192.744 48.9333 192.108C48.9333 191.46 49.1493 190.92 49.5693 190.488C49.9893 190.056 50.5293 189.84 51.1773 189.84C51.8253 189.84 52.3653 190.056 52.7853 190.488C53.2053 190.92 53.4213 191.46 53.4213 192.108ZM63.8024 195V189.204H62.9384V194.244H60.2864V189.204H59.4224V194.244H56.7824V189.204H55.9184V195H63.8024ZM68.6162 195.144C69.4922 195.144 70.1642 194.964 70.6442 194.592V193.824C70.0802 194.184 69.4562 194.364 68.7842 194.364C67.3922 194.364 66.4082 193.56 66.3122 192.312H71.0762V192.072C71.0762 190.764 70.3082 189.06 68.3642 189.06C67.5002 189.06 66.7922 189.348 66.2402 189.936C65.7002 190.512 65.4242 191.232 65.4242 192.108C65.4242 192.996 65.7242 193.728 66.3362 194.292C66.9482 194.856 67.7162 195.144 68.6162 195.144ZM66.3242 191.604C66.3602 191.124 66.5642 190.716 66.9122 190.368C67.2722 190.02 67.7402 189.84 68.3282 189.84C68.9402 189.84 69.3962 190.02 69.6962 190.392C70.0082 190.752 70.1762 191.16 70.2002 191.604H66.3242ZM73.5637 195V192.42H77.1277V195H77.9917V189.204H77.1277V191.64H73.5637V189.204H72.6997V195H73.5637ZM80.8396 195L84.5476 190.488V195H85.4116V189.204H84.6076L80.8996 193.728V189.204H80.0356V195H80.8396ZM90.2256 195.144C91.1016 195.144 91.7736 194.964 92.2536 194.592V193.824C91.6896 194.184 91.0656 194.364 90.3936 194.364C89.0016 194.364 88.0176 193.56 87.9216 192.312H92.6856V192.072C92.6856 190.764 91.9176 189.06 89.9736 189.06C89.1096 189.06 88.4016 189.348 87.8496 189.936C87.3096 190.512 87.0336 191.232 87.0336 192.108C87.0336 192.996 87.3336 193.728 87.9456 194.292C88.5576 194.856 89.3256 195.144 90.2256 195.144ZM87.9336 191.604C87.9696 191.124 88.1736 190.716 88.5216 190.368C88.8816 190.02 89.3496 189.84 89.9376 189.84C90.5496 189.84 91.0056 190.02 91.3056 190.392C91.6176 190.752 91.7856 191.16 91.8096 191.604H87.9336ZM97.9291 189.96C97.3411 190.548 97.0531 191.268 97.0531 192.108C97.0531 192.948 97.3411 193.668 97.9291 194.256C98.5171 194.844 99.2611 195.144 100.185 195.144C101.109 195.144 101.853 194.844 102.441 194.256C103.029 193.668 103.317 192.948 103.317 192.108C103.317 191.268 103.029 190.548 102.441 189.96C101.853 189.36 101.109 189.06 100.185 189.06C99.2611 189.06 98.5171 189.36 97.9291 189.96ZM102.429 192.108C102.429 192.744 102.213 193.284 101.793 193.716C101.373 194.148 100.833 194.364 100.185 194.364C99.5371 194.364 98.9971 194.148 98.5771 193.716C98.1571 193.284 97.9411 192.744 97.9411 192.108C97.9411 191.46 98.1571 190.92 98.5771 190.488C98.9971 190.056 99.5371 189.84 100.185 189.84C100.833 189.84 101.373 190.056 101.793 190.488C102.213 190.92 102.429 191.46 102.429 192.108ZM107.758 195.144C108.586 195.144 109.27 194.868 109.834 194.316C110.398 193.764 110.674 193.056 110.674 192.18C110.674 191.388 110.422 190.74 109.906 190.236C109.39 189.72 108.754 189.468 107.998 189.468C106.846 189.468 105.91 189.984 105.43 190.812C105.466 189.84 105.706 189.132 106.15 188.664C106.594 188.196 107.254 187.872 108.13 187.668C108.574 187.56 109.21 187.428 110.038 187.272V186.468C109.606 186.552 109.246 186.612 108.97 186.672C108.694 186.732 108.382 186.804 108.022 186.9C107.674 186.984 107.386 187.08 107.158 187.164C106.714 187.344 106.102 187.632 105.778 187.956C105.046 188.628 104.614 189.66 104.614 191.304C104.614 192.492 104.89 193.428 105.442 194.112C105.994 194.796 106.762 195.144 107.758 195.144ZM107.758 194.364C106.378 194.364 105.586 193.416 105.502 191.796C105.682 191.376 105.982 191.016 106.402 190.716C106.822 190.404 107.29 190.248 107.806 190.248C108.37 190.248 108.838 190.428 109.222 190.8C109.606 191.16 109.798 191.64 109.798 192.24C109.798 192.864 109.594 193.38 109.198 193.776C108.802 194.172 108.322 194.364 107.758 194.364ZM112.742 189.96C112.154 190.548 111.866 191.268 111.866 192.108C111.866 192.948 112.154 193.668 112.742 194.256C113.33 194.844 114.074 195.144 114.998 195.144C115.922 195.144 116.666 194.844 117.254 194.256C117.842 193.668 118.13 192.948 118.13 192.108C118.13 191.268 117.842 190.548 117.254 189.96C116.666 189.36 115.922 189.06 114.998 189.06C114.074 189.06 113.33 189.36 112.742 189.96ZM117.242 192.108C117.242 192.744 117.026 193.284 116.606 193.716C116.186 194.148 115.646 194.364 114.998 194.364C114.35 194.364 113.81 194.148 113.39 193.716C112.97 193.284 112.754 192.744 112.754 192.108C112.754 191.46 112.97 190.92 113.39 190.488C113.81 190.056 114.35 189.84 114.998 189.84C115.646 189.84 116.186 190.056 116.606 190.488C117.026 190.92 117.242 191.46 117.242 192.108ZM120.603 194.076C121.143 194.784 121.887 195.144 122.847 195.144C123.699 195.144 124.407 194.844 124.947 194.256C125.487 193.668 125.763 192.948 125.763 192.096C125.763 191.256 125.487 190.536 124.947 189.948C124.407 189.36 123.699 189.06 122.847 189.06C121.887 189.06 121.143 189.42 120.603 190.128V189.204H119.739V197.4H120.603V194.076ZM120.603 191.148C120.951 190.392 121.767 189.84 122.643 189.84C123.279 189.84 123.819 190.056 124.239 190.488C124.659 190.92 124.875 191.46 124.875 192.096C124.875 192.732 124.659 193.272 124.239 193.716C123.819 194.148 123.279 194.364 122.643 194.364C121.767 194.364 120.939 193.824 120.603 193.056V191.148ZM127.824 189.96C127.236 190.548 126.948 191.268 126.948 192.108C126.948 192.948 127.236 193.668 127.824 194.256C128.412 194.844 129.156 195.144 130.08 195.144C131.004 195.144 131.748 194.844 132.336 194.256C132.924 193.668 133.212 192.948 133.212 192.108C133.212 191.268 132.924 190.548 132.336 189.96C131.748 189.36 131.004 189.06 130.08 189.06C129.156 189.06 128.412 189.36 127.824 189.96ZM132.324 192.108C132.324 192.744 132.108 193.284 131.688 193.716C131.268 194.148 130.728 194.364 130.08 194.364C129.432 194.364 128.892 194.148 128.472 193.716C128.052 193.284 127.836 192.744 127.836 192.108C127.836 191.46 128.052 190.92 128.472 190.488C128.892 190.056 129.432 189.84 130.08 189.84C130.728 189.84 131.268 190.056 131.688 190.488C132.108 190.92 132.324 191.46 132.324 192.108ZM136.878 195V189.96H138.978V189.204H133.914V189.96H136.014V195H136.878ZM142.261 194.364C141.361 194.364 140.677 193.956 140.677 193.176C140.677 192.456 141.337 192.012 142.393 192.012C143.053 192.012 143.689 192.204 144.277 192.588V193.392C143.857 193.92 143.089 194.364 142.261 194.364ZM142.021 195.144C142.993 195.144 143.773 194.808 144.361 194.124C144.457 194.748 144.889 195.048 145.453 195.048C145.717 195.048 145.909 195 146.029 194.916V194.244C145.933 194.292 145.825 194.316 145.693 194.316C145.357 194.316 145.141 194.04 145.141 193.596V191.208C145.141 189.804 144.097 189.06 142.549 189.06C141.721 189.06 141.037 189.24 140.473 189.588V190.428C141.061 190.032 141.685 189.84 142.369 189.84C143.641 189.84 144.277 190.32 144.277 191.292V191.868C143.641 191.496 142.945 191.304 142.189 191.304C141.505 191.304 140.941 191.472 140.485 191.82C140.041 192.168 139.813 192.636 139.813 193.224C139.813 193.824 140.029 194.292 140.449 194.64C140.881 194.976 141.409 195.144 142.021 195.144ZM151.458 195V192.42H155.022V195H155.886V189.204H155.022V191.64H151.458V189.204H150.594V195H151.458ZM159.886 194.364C158.986 194.364 158.302 193.956 158.302 193.176C158.302 192.456 158.962 192.012 160.018 192.012C160.678 192.012 161.314 192.204 161.902 192.588V193.392C161.482 193.92 160.714 194.364 159.886 194.364ZM159.646 195.144C160.618 195.144 161.398 194.808 161.986 194.124C162.082 194.748 162.514 195.048 163.078 195.048C163.342 195.048 163.534 195 163.654 194.916V194.244C163.558 194.292 163.45 194.316 163.318 194.316C162.982 194.316 162.766 194.04 162.766 193.596V191.208C162.766 189.804 161.722 189.06 160.174 189.06C159.346 189.06 158.662 189.24 158.098 189.588V190.428C158.686 190.032 159.31 189.84 159.994 189.84C161.266 189.84 161.902 190.32 161.902 191.292V191.868C161.266 191.496 160.57 191.304 159.814 191.304C159.13 191.304 158.566 191.472 158.11 191.82C157.666 192.168 157.438 192.636 157.438 193.224C157.438 193.824 157.654 194.292 158.074 194.64C158.506 194.976 159.034 195.144 159.646 195.144ZM171.471 195C172.707 195 173.403 194.4 173.403 193.44C173.403 192.66 173.031 192.168 172.299 191.952C172.779 191.724 173.019 191.304 173.019 190.68C173.019 189.804 172.383 189.204 171.267 189.204H168.219V195H171.471ZM169.083 192.384H171.291C172.071 192.384 172.527 192.732 172.527 193.32C172.527 193.908 172.071 194.244 171.291 194.244H169.083V192.384ZM169.083 189.96H171.027C171.747 189.96 172.167 190.248 172.167 190.812C172.167 191.352 171.747 191.664 171.027 191.664H169.083V189.96ZM177.101 194.364C176.201 194.364 175.517 193.956 175.517 193.176C175.517 192.456 176.177 192.012 177.233 192.012C177.893 192.012 178.529 192.204 179.117 192.588V193.392C178.697 193.92 177.929 194.364 177.101 194.364ZM176.861 195.144C177.833 195.144 178.613 194.808 179.201 194.124C179.297 194.748 179.729 195.048 180.293 195.048C180.557 195.048 180.749 195 180.869 194.916V194.244C180.773 194.292 180.665 194.316 180.533 194.316C180.197 194.316 179.981 194.04 179.981 193.596V191.208C179.981 189.804 178.937 189.06 177.389 189.06C176.561 189.06 175.877 189.24 175.313 189.588V190.428C175.901 190.032 176.525 189.84 177.209 189.84C178.481 189.84 179.117 190.32 179.117 191.292V191.868C178.481 191.496 177.785 191.304 177.029 191.304C176.345 191.304 175.781 191.472 175.325 191.82C174.881 192.168 174.653 192.636 174.653 193.224C174.653 193.824 174.869 194.292 175.289 194.64C175.721 194.976 176.249 195.144 176.861 195.144ZM181.502 195C181.562 195.012 181.646 195.012 181.754 195.012C182.666 195.06 183.23 194.436 183.494 193.74C183.698 193.272 183.794 192.54 183.842 192.012C183.866 191.748 183.878 191.436 183.89 191.076L183.926 189.96H186.566V195H187.43V189.204H183.098L183.05 191.052C183.014 192 182.954 192.624 182.762 193.26C182.582 193.884 182.246 194.22 181.73 194.22C181.634 194.22 181.562 194.22 181.502 194.208V195ZM194.601 195.144C195.441 195.144 196.137 194.856 196.677 194.268C197.229 193.68 197.505 192.96 197.505 192.108C197.505 191.244 197.229 190.524 196.677 189.936C196.137 189.348 195.441 189.06 194.601 189.06C193.845 189.06 193.197 189.312 192.669 189.804C192.141 190.296 191.841 190.932 191.769 191.688H190.329V189.204H189.465V195H190.329V192.468H191.757C191.829 193.248 192.129 193.884 192.657 194.388C193.185 194.892 193.833 195.144 194.601 195.144ZM194.601 194.364C194.013 194.364 193.521 194.148 193.137 193.716C192.753 193.284 192.561 192.744 192.561 192.108C192.561 191.46 192.753 190.92 193.137 190.488C193.521 190.056 194.013 189.84 194.601 189.84C195.201 189.84 195.693 190.056 196.077 190.488C196.461 190.92 196.653 191.46 196.653 192.108C196.653 192.744 196.461 193.284 196.077 193.716C195.693 194.148 195.201 194.364 194.601 194.364ZM201.167 195V189.96H203.267V189.204H198.203V189.96H200.303V195H201.167ZM205.458 195V192.42H209.022V195H209.886V189.204H209.022V191.64H205.458V189.204H204.594V195H205.458ZM212.386 189.96C211.798 190.548 211.51 191.268 211.51 192.108C211.51 192.948 211.798 193.668 212.386 194.256C212.974 194.844 213.718 195.144 214.642 195.144C215.566 195.144 216.31 194.844 216.898 194.256C217.486 193.668 217.774 192.948 217.774 192.108C217.774 191.268 217.486 190.548 216.898 189.96C216.31 189.36 215.566 189.06 214.642 189.06C213.718 189.06 212.974 189.36 212.386 189.96ZM216.886 192.108C216.886 192.744 216.67 193.284 216.25 193.716C215.83 194.148 215.29 194.364 214.642 194.364C213.994 194.364 213.454 194.148 213.034 193.716C212.614 193.284 212.398 192.744 212.398 192.108C212.398 191.46 212.614 190.92 213.034 190.488C213.454 190.056 213.994 189.84 214.642 189.84C215.29 189.84 215.83 190.056 216.25 190.488C216.67 190.92 216.886 191.46 216.886 192.108ZM220.187 195L223.895 190.488V195H224.759V189.204H223.955L220.247 193.728V189.204H219.383V195H220.187ZM222.083 188.22C223.187 188.22 224.003 187.5 224.015 186.396H223.259C223.247 187.056 222.779 187.524 222.071 187.524C221.351 187.524 220.883 187.056 220.883 186.396H220.115C220.127 187.5 220.919 188.22 222.083 188.22ZM232.797 195.144C233.625 195.144 234.309 194.868 234.873 194.316C235.437 193.764 235.713 193.056 235.713 192.18C235.713 191.388 235.461 190.74 234.945 190.236C234.429 189.72 233.793 189.468 233.037 189.468C231.885 189.468 230.949 189.984 230.469 190.812C230.505 189.84 230.745 189.132 231.189 188.664C231.633 188.196 232.293 187.872 233.169 187.668C233.613 187.56 234.249 187.428 235.077 187.272V186.468C234.645 186.552 234.285 186.612 234.009 186.672C233.733 186.732 233.421 186.804 233.061 186.9C232.713 186.984 232.425 187.08 232.197 187.164C231.753 187.344 231.141 187.632 230.817 187.956C230.085 188.628 229.653 189.66 229.653 191.304C229.653 192.492 229.929 193.428 230.481 194.112C231.033 194.796 231.801 195.144 232.797 195.144ZM232.797 194.364C231.417 194.364 230.625 193.416 230.541 191.796C230.721 191.376 231.021 191.016 231.441 190.716C231.861 190.404 232.329 190.248 232.845 190.248C233.409 190.248 233.877 190.428 234.261 190.8C234.645 191.16 234.837 191.64 234.837 192.24C234.837 192.864 234.633 193.38 234.237 193.776C233.841 194.172 233.361 194.364 232.797 194.364ZM238.129 195L241.837 190.488V195H242.701V189.204H241.897L238.189 193.728V189.204H237.325V195H238.129ZM245.607 194.076C246.147 194.784 246.891 195.144 247.851 195.144C248.703 195.144 249.411 194.844 249.951 194.256C250.491 193.668 250.767 192.948 250.767 192.096C250.767 191.256 250.491 190.536 249.951 189.948C249.411 189.36 248.703 189.06 247.851 189.06C246.891 189.06 246.147 189.42 245.607 190.128V189.204H244.743V197.4H245.607V194.076ZM245.607 191.148C245.955 190.392 246.771 189.84 247.647 189.84C248.283 189.84 248.823 190.056 249.243 190.488C249.663 190.92 249.879 191.46 249.879 192.096C249.879 192.732 249.663 193.272 249.243 193.716C248.823 194.148 248.283 194.364 247.647 194.364C246.771 194.364 245.943 193.824 245.607 193.056V191.148ZM251.495 189.204L254.219 191.892L251.219 195H252.347L255.035 192.192V195H255.899V192.192L258.587 195H259.727L256.727 191.892L259.439 189.204H258.347L255.899 191.676V189.204H255.035V191.676L252.587 189.204H251.495ZM263.394 195.144C264.27 195.144 264.942 194.964 265.422 194.592V193.824C264.858 194.184 264.234 194.364 263.562 194.364C262.17 194.364 261.186 193.56 261.09 192.312H265.854V192.072C265.854 190.764 265.086 189.06 263.142 189.06C262.278 189.06 261.57 189.348 261.018 189.936C260.478 190.512 260.202 191.232 260.202 192.108C260.202 192.996 260.502 193.728 261.114 194.292C261.726 194.856 262.494 195.144 263.394 195.144ZM261.102 191.604C261.138 191.124 261.342 190.716 261.69 190.368C262.05 190.02 262.518 189.84 263.106 189.84C263.718 189.84 264.174 190.02 264.474 190.392C264.786 190.752 264.954 191.16 264.978 191.604H261.102ZM42.115 214L45.823 209.488V214H46.687V208.204H45.883L42.175 212.728V208.204H41.311V214H42.115ZM58.3091 214C59.5451 214 60.2411 213.4 60.2411 212.44C60.2411 211.66 59.8691 211.168 59.1371 210.952C59.6171 210.724 59.8571 210.304 59.8571 209.68C59.8571 208.804 59.2211 208.204 58.1051 208.204H55.0571V214H58.3091ZM55.9211 211.384H58.1291C58.9091 211.384 59.3651 211.732 59.3651 212.32C59.3651 212.908 58.9091 213.244 58.1291 213.244H55.9211V211.384ZM55.9211 208.96H57.8651C58.5851 208.96 59.0051 209.248 59.0051 209.812C59.0051 210.352 58.5851 210.664 57.8651 210.664H55.9211V208.96ZM62.8469 214V211.42H66.4109V214H67.2749V208.204H66.4109V210.64H62.8469V208.204H61.9829V214H62.8469ZM72.0908 214.144C72.9668 214.144 73.6388 213.964 74.1188 213.592V212.824C73.5548 213.184 72.9308 213.364 72.2588 213.364C70.8668 213.364 69.8828 212.56 69.7868 211.312H74.5508V211.072C74.5508 209.764 73.7828 208.06 71.8388 208.06C70.9748 208.06 70.2668 208.348 69.7148 208.936C69.1748 209.512 68.8988 210.232 68.8988 211.108C68.8988 211.996 69.1988 212.728 69.8108 213.292C70.4228 213.856 71.1908 214.144 72.0908 214.144ZM69.7988 210.604C69.8348 210.124 70.0388 209.716 70.3868 209.368C70.7468 209.02 71.2148 208.84 71.8028 208.84C72.4148 208.84 72.8708 209.02 73.1708 209.392C73.4828 209.752 73.6508 210.16 73.6748 210.604H69.7988ZM84.0583 214V208.204H83.1943V213.244H80.5423V208.204H79.6783V213.244H77.0383V208.204H76.1743V214H84.0583ZM86.9641 214V211.42H90.5281V214H91.3921V208.204H90.5281V210.64H86.9641V208.204H86.1001V214H86.9641ZM96.208 214.144C97.084 214.144 97.756 213.964 98.236 213.592V212.824C97.672 213.184 97.048 213.364 96.376 213.364C94.984 213.364 94 212.56 93.904 211.312H98.668V211.072C98.668 209.764 97.9 208.06 95.956 208.06C95.092 208.06 94.384 208.348 93.832 208.936C93.292 209.512 93.016 210.232 93.016 211.108C93.016 211.996 93.316 212.728 93.928 213.292C94.54 213.856 95.308 214.144 96.208 214.144ZM93.916 210.604C93.952 210.124 94.156 209.716 94.504 209.368C94.864 209.02 95.332 208.84 95.92 208.84C96.532 208.84 96.988 209.02 97.288 209.392C97.6 209.752 97.768 210.16 97.792 210.604H93.916ZM102.395 214V208.96H104.495V208.204H99.4311V208.96H101.531V214H102.395ZM106.126 208.96C105.538 209.548 105.25 210.268 105.25 211.108C105.25 211.948 105.538 212.668 106.126 213.256C106.714 213.844 107.458 214.144 108.382 214.144C109.306 214.144 110.05 213.844 110.638 213.256C111.226 212.668 111.514 211.948 111.514 211.108C111.514 210.268 111.226 209.548 110.638 208.96C110.05 208.36 109.306 208.06 108.382 208.06C107.458 208.06 106.714 208.36 106.126 208.96ZM110.626 211.108C110.626 211.744 110.41 212.284 109.99 212.716C109.57 213.148 109.03 213.364 108.382 213.364C107.734 213.364 107.194 213.148 106.774 212.716C106.354 212.284 106.138 211.744 106.138 211.108C106.138 210.46 106.354 209.92 106.774 209.488C107.194 209.056 107.734 208.84 108.382 208.84C109.03 208.84 109.57 209.056 109.99 209.488C110.41 209.92 110.626 210.46 110.626 211.108ZM113.988 213.076C114.528 213.784 115.272 214.144 116.232 214.144C117.084 214.144 117.792 213.844 118.332 213.256C118.872 212.668 119.148 211.948 119.148 211.096C119.148 210.256 118.872 209.536 118.332 208.948C117.792 208.36 117.084 208.06 116.232 208.06C115.272 208.06 114.528 208.42 113.988 209.128V208.204H113.124V216.4H113.988V213.076ZM113.988 210.148C114.336 209.392 115.152 208.84 116.028 208.84C116.664 208.84 117.204 209.056 117.624 209.488C118.044 209.92 118.26 210.46 118.26 211.096C118.26 211.732 118.044 212.272 117.624 212.716C117.204 213.148 116.664 213.364 116.028 213.364C115.152 213.364 114.324 212.824 113.988 212.056V210.148ZM121.616 214V208.96H125.108V208.204H120.752V214H121.616ZM126.787 208.96C126.199 209.548 125.911 210.268 125.911 211.108C125.911 211.948 126.199 212.668 126.787 213.256C127.375 213.844 128.119 214.144 129.043 214.144C129.967 214.144 130.711 213.844 131.299 213.256C131.887 212.668 132.175 211.948 132.175 211.108C132.175 210.268 131.887 209.548 131.299 208.96C130.711 208.36 129.967 208.06 129.043 208.06C128.119 208.06 127.375 208.36 126.787 208.96ZM131.287 211.108C131.287 211.744 131.071 212.284 130.651 212.716C130.231 213.148 129.691 213.364 129.043 213.364C128.395 213.364 127.855 213.148 127.435 212.716C127.015 212.284 126.799 211.744 126.799 211.108C126.799 210.46 127.015 209.92 127.435 209.488C127.855 209.056 128.395 208.84 129.043 208.84C129.691 208.84 130.231 209.056 130.651 209.488C131.071 209.92 131.287 210.46 131.287 211.108ZM137.036 214C138.272 214 138.968 213.4 138.968 212.44C138.968 211.66 138.596 211.168 137.864 210.952C138.344 210.724 138.584 210.304 138.584 209.68C138.584 208.804 137.948 208.204 136.832 208.204H133.784V214H137.036ZM134.648 211.384H136.856C137.636 211.384 138.092 211.732 138.092 212.32C138.092 212.908 137.636 213.244 136.856 213.244H134.648V211.384ZM134.648 208.96H136.592C137.312 208.96 137.732 209.248 137.732 209.812C137.732 210.352 137.312 210.664 136.592 210.664H134.648V208.96ZM141.165 208.96C140.577 209.548 140.289 210.268 140.289 211.108C140.289 211.948 140.577 212.668 141.165 213.256C141.753 213.844 142.497 214.144 143.421 214.144C144.345 214.144 145.089 213.844 145.677 213.256C146.265 212.668 146.553 211.948 146.553 211.108C146.553 210.268 146.265 209.548 145.677 208.96C145.089 208.36 144.345 208.06 143.421 208.06C142.497 208.06 141.753 208.36 141.165 208.96ZM145.665 211.108C145.665 211.744 145.449 212.284 145.029 212.716C144.609 213.148 144.069 213.364 143.421 213.364C142.773 213.364 142.233 213.148 141.813 212.716C141.393 212.284 141.177 211.744 141.177 211.108C141.177 210.46 141.393 209.92 141.813 209.488C142.233 209.056 142.773 208.84 143.421 208.84C144.069 208.84 144.609 209.056 145.029 209.488C145.449 209.92 145.665 210.46 145.665 211.108ZM149.027 214V208.96H152.519V208.204H148.163V214H149.027ZM154.197 208.96C153.609 209.548 153.321 210.268 153.321 211.108C153.321 211.948 153.609 212.668 154.197 213.256C154.785 213.844 155.529 214.144 156.453 214.144C157.377 214.144 158.121 213.844 158.709 213.256C159.297 212.668 159.585 211.948 159.585 211.108C159.585 210.268 159.297 209.548 158.709 208.96C158.121 208.36 157.377 208.06 156.453 208.06C155.529 208.06 154.785 208.36 154.197 208.96ZM158.697 211.108C158.697 211.744 158.481 212.284 158.061 212.716C157.641 213.148 157.101 213.364 156.453 213.364C155.805 213.364 155.265 213.148 154.845 212.716C154.425 212.284 154.209 211.744 154.209 211.108C154.209 210.46 154.425 209.92 154.845 209.488C155.265 209.056 155.805 208.84 156.453 208.84C157.101 208.84 157.641 209.056 158.061 209.488C158.481 209.92 158.697 210.46 158.697 211.108ZM164.814 208.96C164.226 209.548 163.938 210.268 163.938 211.108C163.938 211.948 164.226 212.668 164.814 213.256C165.402 213.844 166.146 214.144 167.07 214.144C167.994 214.144 168.738 213.844 169.326 213.256C169.914 212.668 170.202 211.948 170.202 211.108C170.202 210.268 169.914 209.548 169.326 208.96C168.738 208.36 167.994 208.06 167.07 208.06C166.146 208.06 165.402 208.36 164.814 208.96ZM169.314 211.108C169.314 211.744 169.098 212.284 168.678 212.716C168.258 213.148 167.718 213.364 167.07 213.364C166.422 213.364 165.882 213.148 165.462 212.716C165.042 212.284 164.826 211.744 164.826 211.108C164.826 210.46 165.042 209.92 165.462 209.488C165.882 209.056 166.422 208.84 167.07 208.84C167.718 208.84 168.258 209.056 168.678 209.488C169.098 209.92 169.314 210.46 169.314 211.108ZM174.643 214.144C175.471 214.144 176.155 213.868 176.719 213.316C177.283 212.764 177.559 212.056 177.559 211.18C177.559 210.388 177.307 209.74 176.791 209.236C176.275 208.72 175.639 208.468 174.883 208.468C173.731 208.468 172.795 208.984 172.315 209.812C172.351 208.84 172.591 208.132 173.035 207.664C173.479 207.196 174.139 206.872 175.015 206.668C175.459 206.56 176.095 206.428 176.923 206.272V205.468C176.491 205.552 176.131 205.612 175.855 205.672C175.579 205.732 175.267 205.804 174.907 205.9C174.559 205.984 174.271 206.08 174.043 206.164C173.599 206.344 172.987 206.632 172.663 206.956C171.931 207.628 171.499 208.66 171.499 210.304C171.499 211.492 171.775 212.428 172.327 213.112C172.879 213.796 173.647 214.144 174.643 214.144ZM174.643 213.364C173.263 213.364 172.471 212.416 172.387 210.796C172.567 210.376 172.867 210.016 173.287 209.716C173.707 209.404 174.175 209.248 174.691 209.248C175.255 209.248 175.723 209.428 176.107 209.8C176.491 210.16 176.683 210.64 176.683 211.24C176.683 211.864 176.479 212.38 176.083 212.776C175.687 213.172 175.207 213.364 174.643 213.364ZM179.626 208.96C179.038 209.548 178.75 210.268 178.75 211.108C178.75 211.948 179.038 212.668 179.626 213.256C180.214 213.844 180.958 214.144 181.882 214.144C182.806 214.144 183.55 213.844 184.138 213.256C184.726 212.668 185.014 211.948 185.014 211.108C185.014 210.268 184.726 209.548 184.138 208.96C183.55 208.36 182.806 208.06 181.882 208.06C180.958 208.06 180.214 208.36 179.626 208.96ZM184.126 211.108C184.126 211.744 183.91 212.284 183.49 212.716C183.07 213.148 182.53 213.364 181.882 213.364C181.234 213.364 180.694 213.148 180.274 212.716C179.854 212.284 179.638 211.744 179.638 211.108C179.638 210.46 179.854 209.92 180.274 209.488C180.694 209.056 181.234 208.84 181.882 208.84C182.53 208.84 183.07 209.056 183.49 209.488C183.91 209.92 184.126 210.46 184.126 211.108ZM187.488 213.076C188.028 213.784 188.772 214.144 189.732 214.144C190.584 214.144 191.292 213.844 191.832 213.256C192.372 212.668 192.648 211.948 192.648 211.096C192.648 210.256 192.372 209.536 191.832 208.948C191.292 208.36 190.584 208.06 189.732 208.06C188.772 208.06 188.028 208.42 187.488 209.128V208.204H186.624V216.4H187.488V213.076ZM187.488 210.148C187.836 209.392 188.652 208.84 189.528 208.84C190.164 208.84 190.704 209.056 191.124 209.488C191.544 209.92 191.76 210.46 191.76 211.096C191.76 211.732 191.544 212.272 191.124 212.716C190.704 213.148 190.164 213.364 189.528 213.364C188.652 213.364 187.824 212.824 187.488 212.056V210.148ZM194.708 208.96C194.12 209.548 193.832 210.268 193.832 211.108C193.832 211.948 194.12 212.668 194.708 213.256C195.296 213.844 196.04 214.144 196.964 214.144C197.888 214.144 198.632 213.844 199.22 213.256C199.808 212.668 200.096 211.948 200.096 211.108C200.096 210.268 199.808 209.548 199.22 208.96C198.632 208.36 197.888 208.06 196.964 208.06C196.04 208.06 195.296 208.36 194.708 208.96ZM199.208 211.108C199.208 211.744 198.992 212.284 198.572 212.716C198.152 213.148 197.612 213.364 196.964 213.364C196.316 213.364 195.776 213.148 195.356 212.716C194.936 212.284 194.72 211.744 194.72 211.108C194.72 210.46 194.936 209.92 195.356 209.488C195.776 209.056 196.316 208.84 196.964 208.84C197.612 208.84 198.152 209.056 198.572 209.488C198.992 209.92 199.208 210.46 199.208 211.108ZM203.762 214V208.96H205.862V208.204H200.798V208.96H202.898V214H203.762ZM209.146 213.364C208.246 213.364 207.562 212.956 207.562 212.176C207.562 211.456 208.222 211.012 209.278 211.012C209.938 211.012 210.574 211.204 211.162 211.588V212.392C210.742 212.92 209.974 213.364 209.146 213.364ZM208.906 214.144C209.878 214.144 210.658 213.808 211.246 213.124C211.342 213.748 211.774 214.048 212.338 214.048C212.602 214.048 212.794 214 212.914 213.916V213.244C212.818 213.292 212.71 213.316 212.578 213.316C212.242 213.316 212.026 213.04 212.026 212.596V210.208C212.026 208.804 210.982 208.06 209.434 208.06C208.606 208.06 207.922 208.24 207.358 208.588V209.428C207.946 209.032 208.57 208.84 209.254 208.84C210.526 208.84 211.162 209.32 211.162 210.292V210.868C210.526 210.496 209.83 210.304 209.074 210.304C208.39 210.304 207.826 210.472 207.37 210.82C206.926 211.168 206.698 211.636 206.698 212.224C206.698 212.824 206.914 213.292 207.334 213.64C207.766 213.976 208.294 214.144 208.906 214.144ZM218.535 214V210.292H221.175C222.855 210.292 223.863 209.356 223.863 207.928C223.863 206.536 222.855 205.6 221.175 205.6H217.647V214H218.535ZM218.535 206.404H221.115C222.303 206.404 222.987 206.956 222.987 207.952C222.987 208.924 222.303 209.488 221.115 209.488H218.535V206.404ZM230.343 214.252V213.388C231.711 213.364 232.755 213.004 233.463 212.308C234.171 211.612 234.531 210.772 234.531 209.776C234.531 208.78 234.171 207.928 233.463 207.232C232.755 206.536 231.711 206.176 230.343 206.152V205.384H229.455V206.152C228.087 206.176 227.043 206.536 226.335 207.244C225.627 207.952 225.279 208.792 225.279 209.788C225.279 210.784 225.627 211.636 226.335 212.32C227.043 213.004 228.087 213.364 229.455 213.388V214.252H230.343ZM229.455 212.584C228.351 212.572 227.535 212.296 226.995 211.756C226.455 211.216 226.191 210.556 226.191 209.776C226.191 208.996 226.455 208.324 226.995 207.784C227.535 207.244 228.351 206.968 229.455 206.956V212.584ZM230.343 206.956C231.459 206.968 232.275 207.244 232.815 207.784C233.355 208.324 233.619 208.996 233.619 209.776C233.619 211.18 232.743 212.548 230.343 212.584V206.956ZM238.733 210.136V208.96H239.441V208.348H238.733V205.6H237.989L235.637 208.42V208.96H238.001V210.136H238.733ZM238.001 206.5V208.348H236.441L238.001 206.5Z" fill="#333333"/>
<path d="M186.6 46.4777C189.9 73.5777 170.2 94.0777 144 96.0777C131.8 96.9777 119.3 93.4777 109.2 86.6777C99.6003 80.2777 94.9003 70.5777 92.1003 59.8777C91.7003 33.2777 102.8 11.0777 130 2.87769C159.5 -6.02231 183.4 20.1777 186.6 46.4777Z" fill="white"/>
<path d="M132.3 0.977699C105.3 5.9777 85.5001 35.9777 92.1001 62.7777C92.2001 63.0777 92.3001 63.1777 92.5001 63.2777C96.5001 86.2777 122 98.2777 144.2 97.0777C171.6 95.6777 190.2 73.3777 187.9 46.4777C185.7 19.0777 161.1 -4.4223 132.3 0.977699ZM186.6 46.4777C189.9 73.6777 170.2 94.1777 144 96.1777C131.8 97.0777 119.3 93.5777 109.2 86.7777C99.6001 80.3777 94.9001 70.6777 92.1001 59.9777C91.7001 33.3777 102.8 11.0777 130 2.9777C159.5 -5.9223 183.4 20.2777 186.6 46.4777Z" fill="#0073F1"/>
<path d="M136.811 33.6141C130.623 33.7135 125.025 35.8021 119.868 40.2775C116.258 43.3605 112.354 49.5267 113.09 55.4939C113.901 61.66 119.941 64.3452 123.92 65.1409C129.224 66.1354 135.043 65.9365 140.274 64.8425C145.578 63.7485 150.882 59.8698 154.344 54.4993C155.818 52.2119 156.997 49.5267 157.218 46.5431C157.291 44.9518 156.702 42.4655 155.155 42.6644C148.967 43.8578 142.558 46.742 136.443 49.0294C134.749 49.6261 133.128 50.2228 131.507 50.919C130.992 51.1179 127.75 53.2064 129.076 50.919C129.813 49.7256 130.771 48.6316 131.655 47.5376C132.833 45.9463 134.012 44.2556 135.191 42.5649C136.001 41.4709 140.495 37.8906 139.832 35.9015C139.243 34.0119 137.106 34.2108 135.854 33.5146C135.559 33.3157 135.264 33.9125 135.559 34.1114C136.369 34.6086 137.327 34.8075 138.211 35.1059C140.642 36.001 135.559 41.0731 134.749 42.0676C133.202 43.9573 131.802 46.2447 130.329 48.2338C129.371 49.6261 128.266 50.6207 127.75 52.4108C127.677 52.6097 127.824 52.8086 127.971 52.8086C129.003 53.0075 129.887 52.4108 130.844 51.9135C133.275 50.7201 135.78 50.0239 138.285 49.1288C143.073 47.3387 147.862 45.648 152.724 44.2556C153.46 44.0567 154.271 43.7584 155.007 43.5594C158.396 42.4655 156.113 50.1234 155.744 51.0185C154.565 54.0021 152.576 56.389 150.514 58.378C146.609 62.1573 142.263 64.0469 137.401 64.7431C133.496 65.2403 129.445 65.1409 125.467 64.7431C120.899 64.2458 115.079 61.9584 113.68 55.4939C112.943 52.1125 114.785 48.731 116.184 46.0458C117.658 43.2611 119.794 41.272 122.004 39.5813C126.645 36.1004 131.507 34.5092 136.811 34.5092C137.18 34.3103 137.18 33.6141 136.811 33.6141Z" fill="#0073F1"/>
<path d="M113.164 55.2948C113.238 57.5823 113.311 59.7702 113.385 62.0577C113.459 63.45 113.459 65.3396 114.048 66.5331C114.269 66.9309 114.711 66.5331 114.564 66.1353C113.974 65.0413 113.974 62.5549 113.901 61.3615C113.827 59.3724 113.753 57.2839 113.68 55.2948C113.68 54.7976 113.164 54.7976 113.164 55.2948Z" fill="#0073F1"/>
<path d="M156.039 71.108C156.407 71.108 156.407 70.4119 156.039 70.4119C155.671 70.3124 155.671 71.108 156.039 71.108Z" fill="#0073F1"/>
<path d="M115.079 66.5335C117.068 66.8319 117.584 68.3237 118.984 69.3182C119.573 69.716 120.457 69.716 121.046 69.716C122.372 69.8155 123.477 70.81 124.656 71.4067C125.687 72.0034 126.866 72.2024 127.971 72.4013C132.391 73.1969 137.253 72.5007 141.526 70.81C143.589 70.0144 145.799 69.716 147.714 68.622C149.777 67.4286 151.398 65.6384 153.166 63.7488C154.565 62.257 156.112 60.069 156.849 57.881C157.144 56.986 156.996 55.6931 156.996 54.798C156.996 52.7094 156.923 50.5215 156.996 48.4329C156.996 47.9357 156.407 47.9357 156.407 48.4329C156.407 51.3171 156.996 55.4942 156.112 58.1794C155.302 60.5663 153.018 62.8537 151.619 64.5444C149.482 67.0308 146.904 68.622 144.104 69.1193C142.263 69.4176 140.347 70.6111 138.506 71.2078C134.454 72.4013 129.444 72.6002 125.466 71.1084C123.551 70.4122 122.446 69.2187 120.383 69.0198C117.952 68.9204 118.615 67.528 117.142 66.6329C116.405 66.1357 115.816 66.0362 115.006 65.8373C114.711 65.7379 114.711 66.434 115.079 66.5335Z" fill="#0073F1"/>
<path d="M154.565 76.6776C154.934 76.6776 154.934 75.9814 154.565 75.9814C154.197 75.882 154.197 76.6776 154.565 76.6776Z" fill="#0073F1"/>
<path d="M139.684 37.294C139.905 38.1891 139.979 38.9847 140.126 39.8798C140.274 40.7749 141.01 41.8688 140.2 42.565C139.169 43.4601 138.064 44.2557 137.106 45.2503C136.811 45.5486 137.253 46.0459 137.474 45.7475C138.211 44.9519 139.095 44.1563 139.979 43.5596C140.421 43.2612 140.863 42.9628 141.158 42.3661C141.379 41.9683 141.084 41.1727 140.937 40.7749C140.568 39.5814 140.495 38.2885 140.2 37.0951C140.126 36.6973 139.537 36.7967 139.684 37.294Z" fill="#0073F1"/>
<path d="M135.043 47.6373C134.896 47.8362 134.748 48.0351 134.601 48.1346C134.306 48.4329 134.748 48.9302 134.969 48.6318C135.117 48.4329 135.264 48.234 135.411 48.1346C135.706 47.8362 135.264 47.3389 135.043 47.6373Z" fill="#0073F1"/>
<path d="M133.349 50.4224C133.717 50.4224 133.717 49.7263 133.349 49.7263C132.98 49.7263 132.98 50.4224 133.349 50.4224Z" fill="#0073F1"/>
<path d="M134.085 50.1235C135.264 48.3333 136.811 46.1453 138.579 45.5486C138.505 45.3497 138.432 45.1508 138.358 44.8524C137.474 45.5486 136.811 46.4437 136.074 47.2393C135.338 48.1344 134.675 49.4273 133.643 49.8251C133.717 50.024 133.864 50.2229 133.938 50.3224C134.527 48.93 135.559 48.0349 136.443 47.0404C137.474 45.847 138.432 44.753 139.684 44.0568C139.979 43.8579 139.758 43.2612 139.389 43.4601C138.137 44.1563 137.032 45.3497 136.074 46.5431C135.19 47.6371 134.085 48.5322 133.496 50.024C133.349 50.3224 133.57 50.6207 133.791 50.5213C134.601 50.2229 135.19 49.4273 135.706 48.7311C136.59 47.5377 137.548 46.3442 138.653 45.4491C138.947 45.2502 138.726 44.6535 138.432 44.753C136.516 45.3497 134.896 47.6371 133.643 49.5267C133.422 50.024 133.791 50.5213 134.085 50.1235Z" fill="#0073F1"/>
<path d="M138.653 38.786C138.726 39.5816 138.874 40.3773 138.947 41.1729C139.021 41.5707 139.242 43.3609 138.947 43.6592C138.653 43.9576 138.947 44.5543 139.242 44.256C139.758 43.7587 139.61 42.5653 139.61 41.8691C139.537 40.7751 139.389 39.6811 139.242 38.5871C139.095 38.0898 138.579 38.2888 138.653 38.786Z" fill="#0073F1"/>
<path d="M136.812 41.2725C137.401 42.3665 137.327 43.7588 137.769 44.8528C137.769 44.7534 137.769 44.6539 137.769 44.455L137.696 44.5545C137.843 44.5545 137.917 44.455 138.064 44.455C137.769 44.1566 137.401 44.6539 137.696 44.9523C137.769 44.9523 137.769 45.0517 137.843 45.0517C137.99 45.1512 138.138 45.0517 138.211 44.9523L138.285 44.8528C138.359 44.7534 138.359 44.5545 138.285 44.455C137.843 43.361 137.917 41.9687 137.327 40.8747C137.106 40.4769 136.664 40.8747 136.812 41.2725Z" fill="#0073F1"/>
<path d="M135.633 42.7642C135.633 43.9577 136.517 45.35 136.148 46.5435C136.001 46.9413 136.517 47.3391 136.664 46.9413C137.106 45.4495 136.222 44.256 136.222 42.7642C136.148 42.3664 135.633 42.3664 135.633 42.7642Z" fill="#0073F1"/>
<path d="M133.791 44.5541C133.791 45.0514 133.865 45.4492 133.938 45.9465C134.012 46.3443 134.233 47.0404 134.159 47.4383C134.086 47.9355 134.601 48.035 134.675 47.6372C134.896 46.6426 134.307 45.5486 134.307 44.5541C134.38 44.0568 133.791 44.0568 133.791 44.5541Z" fill="#0073F1"/>
<path d="M132.318 47.1403C132.391 47.6376 132.539 48.2343 132.612 48.7316C132.686 49.2288 132.907 50.0245 132.76 50.5217C132.612 50.9195 133.128 51.3174 133.275 50.9195C133.717 49.7261 132.981 48.2343 132.833 47.0408C132.76 46.4441 132.244 46.643 132.318 47.1403Z" fill="#0073F1"/>
<path d="M131.139 47.9353C131.507 47.9353 131.507 47.2391 131.139 47.2391C130.77 47.1397 130.77 47.9353 131.139 47.9353Z" fill="#0073F1"/>
<path d="M116.184 65.7378C116.479 64.4449 116.479 63.0525 116.406 61.7596C116.406 61.2623 115.816 61.2623 115.816 61.7596C115.816 62.6547 115.963 63.5498 116.111 64.3454C116.184 64.7432 116.627 66.9312 116.332 67.2296C116.037 67.5279 116.479 68.0252 116.7 67.7268C117.142 67.329 116.848 65.9367 116.774 65.3399C116.627 64.1465 116.332 62.8536 116.332 61.6602C116.111 61.6602 115.963 61.6602 115.742 61.6602C115.816 62.9531 115.742 64.246 115.521 65.4394C115.595 65.9367 116.111 66.1356 116.184 65.7378Z" fill="#0073F1"/>
<path d="M118.91 64.7431C119.5 65.8371 118.689 68.3235 119.794 69.0196C120.089 69.2186 120.384 68.6218 120.089 68.4229C119.647 68.1246 119.794 66.8317 119.721 66.3344C119.721 65.7377 119.721 64.942 119.426 64.3453C119.205 63.9475 118.689 64.3453 118.91 64.7431Z" fill="#0073F1"/>
<path d="M121.047 65.539C121.637 66.633 121.416 68.1248 122.079 69.1193C122.3 69.5171 122.742 68.9204 122.447 68.622C121.858 67.727 122.079 66.2351 121.489 65.1412C121.342 64.7433 120.9 65.1412 121.047 65.539Z" fill="#0073F1"/>
<path d="M124.288 66.1358C124.435 67.9259 124.067 69.8156 124.73 71.5063C124.877 71.9041 125.393 71.6057 125.245 71.1084C124.656 69.6166 125.024 67.727 124.877 66.1358C124.803 65.6385 124.214 65.6385 124.288 66.1358Z" fill="#0073F1"/>
<path d="M127.676 65.8374C129.002 67.5281 127.971 70.4122 128.413 72.5008C128.487 72.998 129.076 72.7991 128.929 72.3019C128.413 70.0144 129.518 67.2297 128.045 65.3401C127.824 65.0417 127.382 65.539 127.676 65.8374Z" fill="#0073F1"/>
<path d="M131.802 66.434C131.95 68.4231 132.244 70.4121 132.465 72.3017C132.539 72.799 133.055 72.6001 132.981 72.1028C132.686 70.2132 132.465 68.3236 132.318 66.434C132.318 65.9367 131.729 65.9367 131.802 66.434Z" fill="#0073F1"/>
<path d="M135.927 66.8319C136.222 68.821 136.148 70.8101 136.516 72.6997C136.59 73.197 137.179 72.9981 137.032 72.5008C136.664 70.6112 136.737 68.6221 136.443 66.633C136.369 66.2352 135.853 66.4341 135.927 66.8319Z" fill="#0073F1"/>
<path d="M139.095 66.7323C139.242 68.0252 139.316 69.3181 139.611 70.5115C139.684 71.0088 140.274 70.8099 140.126 70.3126C139.832 69.1192 139.758 67.8263 139.611 66.5334C139.537 66.1356 139.021 66.3345 139.095 66.7323Z" fill="#0073F1"/>
<path d="M142.705 64.4451C142.999 65.5391 143.294 66.5336 143.515 67.7271C143.662 68.3238 143.589 69.02 144.031 69.4178C144.325 69.7161 144.62 69.02 144.325 68.8211C144.031 68.5227 144.031 67.3293 143.957 66.9314C143.81 66.0364 143.515 65.2407 143.294 64.3456C143.073 63.8484 142.557 64.0473 142.705 64.4451Z" fill="#0073F1"/>
<path d="M146.02 63.7489C146.241 65.1413 146.315 66.6331 146.683 67.926C146.83 68.3238 147.346 68.1249 147.199 67.7271C146.83 66.3347 146.757 64.9424 146.536 63.55C146.536 63.1522 145.946 63.3511 146.02 63.7489Z" fill="#0073F1"/>
<path d="M148.672 61.3617C148.746 62.953 148.672 64.5442 149.114 66.036C149.261 66.4339 149.777 66.2349 149.63 65.8371C149.188 64.4448 149.261 62.8535 149.188 61.3617C149.188 60.9639 148.672 60.9639 148.672 61.3617Z" fill="#0073F1"/>
<path d="M151.545 60.6656C151.693 61.3618 151.766 62.058 151.987 62.7541C152.135 63.152 152.65 63.0525 152.503 62.5552C152.282 61.8591 152.208 61.1629 152.061 60.4667C151.987 60.0689 151.472 60.2678 151.545 60.6656Z" fill="#0073F1"/>
<path d="M153.976 57.3838C154.197 58.2789 154.344 59.174 154.565 60.069C154.713 60.4669 155.228 60.3674 155.081 59.8701C154.86 58.9751 154.713 58.08 154.492 57.1849C154.418 56.6876 153.902 56.8865 153.976 57.3838Z" fill="#0073F1"/>
<path d="M155.376 55.7925C155.524 56.5881 155.597 57.3837 155.745 58.1794C155.818 58.6766 156.334 58.4777 156.26 57.9805C156.113 57.1848 156.039 56.3892 155.892 55.5936C155.818 55.0963 155.303 55.2952 155.376 55.7925Z" fill="#0073F1"/>
<path d="M144.841 38.3881C146.167 36.2996 147.42 34.1116 148.893 32.222C150.44 30.2329 152.135 28.4427 153.608 26.2548C154.197 25.3597 154.86 24.4646 155.523 23.669C156.997 21.7793 158.323 21.481 160.238 22.3761C162.89 23.5695 165.174 25.658 166.5 28.8406C167.016 30.034 167.237 31.5258 167.458 32.8187C167.605 33.8132 164.069 33.9127 163.627 34.0121C161.048 34.41 158.544 34.7083 155.965 35.0067C153.755 35.305 151.619 36.0012 149.409 36.4985C147.788 36.8963 145.873 36.9957 144.399 37.8908C144.252 37.9903 144.252 38.2886 144.326 38.4875C144.915 39.5815 144.768 41.0733 144.841 42.2668C144.841 42.5651 145.062 42.764 145.283 42.5651C147.641 40.5761 151.324 41.6701 153.976 41.6701C156.849 41.6701 159.501 40.2777 162.153 39.1837C163.627 38.587 165.1 38.6865 166.647 38.6865C167.163 38.6865 168.047 38.7859 168.489 38.2886C169.668 37.0952 168.489 35.0067 168.121 33.6143C167.973 33.2165 167.458 33.4154 167.605 33.8132C167.826 34.6089 168.121 35.305 168.342 36.1007C169.005 38.3881 166.058 37.8908 165.542 37.7914C163.627 37.6919 161.859 38.4875 160.017 39.2832C155.597 41.2722 151.324 40.4766 146.757 40.775C146.241 40.775 145.946 41.0733 145.578 41.3717C145.283 41.6701 145.431 40.1783 145.357 39.681C145.357 39.2832 145.283 38.6865 145.062 38.2886C144.989 38.0897 146.978 37.6919 147.272 37.6919C149.63 37.1947 151.987 36.399 154.345 35.9018C157.144 35.2056 160.017 35.2056 162.816 34.7083C164.216 34.5094 166.279 34.7083 167.605 33.9127C168.415 33.5149 167.973 32.4209 167.826 31.5258C166.942 26.752 164.511 23.7684 161.122 21.7793C160.091 21.1826 158.617 20.387 157.439 20.7848C155.965 21.2821 154.639 23.4701 153.682 24.8624C152.208 26.9509 150.661 28.8406 149.04 30.8296C147.346 32.9181 145.946 35.4045 144.399 37.6919C144.252 38.2886 144.62 38.7859 144.841 38.3881Z" fill="#0073F1"/>
<path d="M146.83 38.9851C147.346 39.5818 147.272 40.6758 147.788 41.372C148.009 41.6703 148.451 41.173 148.156 40.8747C147.64 40.1785 147.714 39.184 147.198 38.4878C146.904 38.09 146.535 38.5873 146.83 38.9851Z" fill="#0073F1"/>
<path d="M149.777 38.4878C149.998 39.3829 150.145 40.3774 150.661 41.0736C150.955 41.372 151.324 40.8747 151.029 40.5764C150.587 39.9796 150.513 39.0846 150.292 38.2889C150.219 37.8911 149.703 38.09 149.777 38.4878Z" fill="#0073F1"/>
<path d="M152.724 38.3884C152.945 39.2835 153.018 40.477 153.755 40.9742C154.05 41.1731 154.344 40.5764 154.05 40.3775C153.534 39.9797 153.46 38.8857 153.313 38.1895C153.166 37.6923 152.576 37.8912 152.724 38.3884Z" fill="#0073F1"/>
<path d="M155.376 37.4927C155.671 38.2883 155.818 38.9845 156.334 39.5812C156.628 39.8796 156.997 39.3823 156.702 39.0839C156.26 38.5867 156.113 37.791 155.818 37.0949C155.744 36.6971 155.229 36.9954 155.376 37.4927Z" fill="#0073F1"/>
<path d="M158.176 36.0009C158.544 36.0009 158.544 35.3047 158.176 35.3047C157.807 35.2053 157.807 36.0009 158.176 36.0009Z" fill="#0073F1"/>
<path d="M160.901 35.7029C161.27 35.7029 161.27 35.0067 160.901 35.0067C160.533 35.0067 160.533 35.7029 160.901 35.7029Z" fill="#0073F1"/>
<path d="M163.037 35.2056C163.405 35.2056 163.405 34.5095 163.037 34.5095C162.669 34.41 162.669 35.2056 163.037 35.2056Z" fill="#0073F1"/>
<path d="M166.205 35.3048C166.573 35.3048 166.573 34.6086 166.205 34.6086C165.837 34.5091 165.837 35.3048 166.205 35.3048Z" fill="#0073F1"/>
<path d="M158.102 36.8965C158.397 37.7915 158.618 38.6866 158.691 39.6812C158.691 39.9795 158.986 39.9795 159.133 39.8801C159.133 39.8801 159.133 39.8801 159.207 39.8801C159.281 39.8801 159.354 39.6812 159.354 39.5817V39.4823C159.428 38.985 158.839 38.985 158.765 39.4823V39.5817C158.839 39.4823 158.839 39.3828 158.912 39.2833C158.912 39.2833 158.912 39.2833 158.839 39.2833C158.986 39.3828 159.133 39.3828 159.281 39.4823C159.207 38.4877 158.912 37.5926 158.691 36.6976C158.544 36.2997 158.028 36.4986 158.102 36.8965Z" fill="#0073F1"/>
<path d="M160.386 36.6972C160.68 37.5923 160.975 38.4874 161.417 39.283C161.491 39.4819 161.638 39.4819 161.785 39.3825C161.859 39.283 161.933 39.283 162.006 39.1836C162.227 38.7858 161.859 38.2885 161.638 38.6863C161.638 38.6863 161.491 38.7858 161.564 38.7858C161.712 38.7858 161.785 38.8852 161.933 38.8852C161.491 38.0896 161.196 37.1945 160.901 36.2994C160.754 35.9016 160.238 36.2994 160.386 36.6972Z" fill="#0073F1"/>
<path d="M164.069 35.4046C164.29 36.2997 164.584 37.2942 164.953 38.0898C165.1 38.4877 165.616 38.0898 165.468 37.692C165.1 36.8964 164.879 36.0013 164.658 35.1062C164.511 34.8079 163.995 35.0068 164.069 35.4046Z" fill="#0073F1"/>
<path d="M165.91 35.7027C166.058 36.4984 166.205 37.1945 166.573 37.8907C166.794 38.2885 167.237 37.8907 167.089 37.4929C166.794 36.8962 166.647 36.2 166.5 35.5038C166.352 35.106 165.837 35.3049 165.91 35.7027Z" fill="#0073F1"/>
<path d="M143.146 39.4821C143.515 39.4821 143.515 38.7859 143.146 38.7859C142.778 38.7859 142.778 39.4821 143.146 39.4821Z" fill="#0073F1"/>
<path d="M154.27 74.3904C154.639 74.3904 154.639 73.6942 154.27 73.6942C153.902 73.6942 153.902 74.3904 154.27 74.3904Z" fill="#0073F1"/>
<path d="M159.059 75.5836C159.428 75.5836 159.428 74.8874 159.059 74.8874C158.691 74.8874 158.691 75.5836 159.059 75.5836Z" fill="#0073F1"/>
<path d="M163.405 73.9922C163.774 73.9922 163.774 73.296 163.405 73.296C163.037 73.296 163.037 73.9922 163.405 73.9922Z" fill="#0073F1"/>
</svg>
