<svg width="280" height="220" viewBox="0 0 280 220" fill="none" xmlns="http://www.w3.org/2000/svg">
<path d="M73.2791 159C77.0231 159 79.2311 156.936 79.2311 153.792C79.2311 152.232 78.7031 150.96 77.6471 150C76.6151 149.04 75.1511 148.56 73.2791 148.56H68.1911V143.808H77.8871V142.2H66.4151V159H73.2791ZM68.1911 150.168H73.1111C75.8711 150.168 77.4551 151.488 77.4551 153.768C77.4551 156.072 75.8711 157.392 73.1111 157.392H68.1911V150.168ZM83.7254 148.92C82.5494 150.096 81.9734 151.536 81.9734 153.216C81.9734 154.896 82.5494 156.336 83.7254 157.512C84.9014 158.688 86.3894 159.288 88.2374 159.288C90.0854 159.288 91.5734 158.688 92.7494 157.512C93.9254 156.336 94.5014 154.896 94.5014 153.216C94.5014 151.536 93.9254 150.096 92.7494 148.92C91.5734 147.72 90.0854 147.12 88.2374 147.12C86.3894 147.12 84.9014 147.72 83.7254 148.92ZM92.7254 153.216C92.7254 154.488 92.2934 155.568 91.4534 156.432C90.6134 157.296 89.5334 157.728 88.2374 157.728C86.9414 157.728 85.8614 157.296 85.0214 156.432C84.1814 155.568 83.7494 154.488 83.7494 153.216C83.7494 151.92 84.1814 150.84 85.0214 149.976C85.8614 149.112 86.9414 148.68 88.2374 148.68C89.5334 148.68 90.6134 149.112 91.4534 149.976C92.2934 150.84 92.7254 151.92 92.7254 153.216ZM95.8321 159C95.9521 159.024 96.1201 159.024 96.3361 159.024C98.1601 159.12 99.2881 157.872 99.8161 156.48C100.224 155.544 100.416 154.08 100.512 153.024C100.56 152.496 100.584 151.872 100.608 151.152L100.68 148.92H105.96V159H107.688V147.408H99.0241L98.9281 151.104C98.8561 153 98.7361 154.248 98.3521 155.52C97.9921 156.768 97.3201 157.44 96.2881 157.44C96.0961 157.44 95.9521 157.44 95.8321 157.416V159ZM117.303 159.288C119.055 159.288 120.399 158.928 121.359 158.184V156.648C120.231 157.368 118.983 157.728 117.639 157.728C114.855 157.728 112.887 156.12 112.695 153.624H122.223V153.144C122.223 150.528 120.687 147.12 116.799 147.12C115.071 147.12 113.655 147.696 112.551 148.872C111.471 150.024 110.919 151.464 110.919 153.216C110.919 154.992 111.519 156.456 112.743 157.584C113.967 158.712 115.503 159.288 117.303 159.288ZM112.719 152.208C112.791 151.248 113.199 150.432 113.895 149.736C114.615 149.04 115.551 148.68 116.727 148.68C117.951 148.68 118.863 149.04 119.463 149.784C120.087 150.504 120.423 151.32 120.471 152.208H112.719ZM131.014 159.288C132.766 159.288 134.11 158.928 135.07 158.184V156.648C133.942 157.368 132.694 157.728 131.35 157.728C128.566 157.728 126.598 156.12 126.406 153.624H135.934V153.144C135.934 150.528 134.398 147.12 130.51 147.12C128.782 147.12 127.366 147.696 126.262 148.872C125.182 150.024 124.63 151.464 124.63 153.216C124.63 154.992 125.23 156.456 126.454 157.584C127.678 158.712 129.214 159.288 131.014 159.288ZM126.43 152.208C126.502 151.248 126.91 150.432 127.606 149.736C128.326 149.04 129.262 148.68 130.438 148.68C131.662 148.68 132.574 149.04 133.174 149.784C133.798 150.504 134.134 151.32 134.182 152.208H126.43ZM155.085 159V154.368H157.869V152.76H155.085V142.2H153.381L144.333 152.952V154.368H153.357V159H155.085ZM153.357 144.552V152.76H146.397L153.357 144.552ZM166.592 150.6C166.592 153.072 167.216 155.136 168.488 156.792C169.76 158.448 171.44 159.288 173.48 159.288C175.52 159.288 177.176 158.448 178.448 156.792C179.72 155.136 180.344 153.072 180.344 150.6C180.344 148.128 179.72 146.064 178.448 144.408C177.176 142.752 175.52 141.912 173.48 141.912C171.44 141.912 169.76 142.752 168.488 144.432C167.216 146.088 166.592 148.152 166.592 150.6ZM178.592 150.6C178.592 152.616 178.112 154.296 177.152 155.64C176.216 156.96 174.992 157.632 173.48 157.632C171.968 157.632 170.744 156.96 169.784 155.64C168.848 154.296 168.368 152.616 168.368 150.6C168.368 148.608 168.848 146.928 169.808 145.584C170.768 144.24 171.992 143.568 173.48 143.568C174.968 143.568 176.192 144.24 177.152 145.584C178.112 146.928 178.592 148.608 178.592 150.6ZM183.585 150.6C183.585 153.072 184.209 155.136 185.481 156.792C186.753 158.448 188.433 159.288 190.473 159.288C192.513 159.288 194.169 158.448 195.441 156.792C196.713 155.136 197.337 153.072 197.337 150.6C197.337 148.128 196.713 146.064 195.441 144.408C194.169 142.752 192.513 141.912 190.473 141.912C188.433 141.912 186.753 142.752 185.481 144.432C184.209 146.088 183.585 148.152 183.585 150.6ZM195.585 150.6C195.585 152.616 195.105 154.296 194.145 155.64C193.209 156.96 191.985 157.632 190.473 157.632C188.961 157.632 187.737 156.96 186.777 155.64C185.841 154.296 185.361 152.616 185.361 150.6C185.361 148.608 185.841 146.928 186.801 145.584C187.761 144.24 188.985 143.568 190.473 143.568C191.961 143.568 193.185 144.24 194.145 145.584C195.105 146.928 195.585 148.608 195.585 150.6ZM200.577 150.6C200.577 153.072 201.201 155.136 202.473 156.792C203.745 158.448 205.425 159.288 207.465 159.288C209.505 159.288 211.161 158.448 212.433 156.792C213.705 155.136 214.329 153.072 214.329 150.6C214.329 148.128 213.705 146.064 212.433 144.408C211.161 142.752 209.505 141.912 207.465 141.912C205.425 141.912 203.745 142.752 202.473 144.432C201.201 146.088 200.577 148.152 200.577 150.6ZM212.577 150.6C212.577 152.616 212.097 154.296 211.137 155.64C210.201 156.96 208.977 157.632 207.465 157.632C205.953 157.632 204.729 156.96 203.769 155.64C202.833 154.296 202.353 152.616 202.353 150.6C202.353 148.608 202.833 146.928 203.793 145.584C204.753 144.24 205.977 143.568 207.465 143.568C208.953 143.568 210.177 144.24 211.137 145.584C212.097 146.928 212.577 148.608 212.577 150.6Z" fill="#333333"/>
<path d="M94.4087 189.204V195H95.2727V192.144L98.4047 195H99.6407L96.1487 191.82L99.2087 189.204H98.0327L95.2727 191.592V189.204H94.4087ZM100.958 189.96C100.37 190.548 100.082 191.268 100.082 192.108C100.082 192.948 100.37 193.668 100.958 194.256C101.546 194.844 102.29 195.144 103.214 195.144C104.138 195.144 104.882 194.844 105.47 194.256C106.058 193.668 106.346 192.948 106.346 192.108C106.346 191.268 106.058 190.548 105.47 189.96C104.882 189.36 104.138 189.06 103.214 189.06C102.29 189.06 101.546 189.36 100.958 189.96ZM105.458 192.108C105.458 192.744 105.242 193.284 104.822 193.716C104.402 194.148 103.862 194.364 103.214 194.364C102.566 194.364 102.026 194.148 101.606 193.716C101.186 193.284 100.97 192.744 100.97 192.108C100.97 191.46 101.186 190.92 101.606 190.488C102.026 190.056 102.566 189.84 103.214 189.84C103.862 189.84 104.402 190.056 104.822 190.488C105.242 190.92 105.458 191.46 105.458 192.108ZM108.82 194.076C109.36 194.784 110.104 195.144 111.064 195.144C111.916 195.144 112.624 194.844 113.164 194.256C113.704 193.668 113.98 192.948 113.98 192.096C113.98 191.256 113.704 190.536 113.164 189.948C112.624 189.36 111.916 189.06 111.064 189.06C110.104 189.06 109.36 189.42 108.82 190.128V189.204H107.956V197.4H108.82V194.076ZM108.82 191.148C109.168 190.392 109.984 189.84 110.86 189.84C111.496 189.84 112.036 190.056 112.456 190.488C112.876 190.92 113.092 191.46 113.092 192.096C113.092 192.732 112.876 193.272 112.456 193.716C112.036 194.148 111.496 194.364 110.86 194.364C109.984 194.364 109.156 193.824 108.82 193.056V191.148ZM116.448 195V189.96H119.928V195H120.792V189.204H115.584V195H116.448ZM123.283 189.96C122.695 190.548 122.407 191.268 122.407 192.108C122.407 192.948 122.695 193.668 123.283 194.256C123.871 194.844 124.615 195.144 125.539 195.144C126.463 195.144 127.207 194.844 127.795 194.256C128.383 193.668 128.671 192.948 128.671 192.108C128.671 191.268 128.383 190.548 127.795 189.96C127.207 189.36 126.463 189.06 125.539 189.06C124.615 189.06 123.871 189.36 123.283 189.96ZM127.783 192.108C127.783 192.744 127.567 193.284 127.147 193.716C126.727 194.148 126.187 194.364 125.539 194.364C124.891 194.364 124.351 194.148 123.931 193.716C123.511 193.284 123.295 192.744 123.295 192.108C123.295 191.46 123.511 190.92 123.931 190.488C124.351 190.056 124.891 189.84 125.539 189.84C126.187 189.84 126.727 190.056 127.147 190.488C127.567 190.92 127.783 191.46 127.783 192.108ZM131.144 194.076C131.684 194.784 132.428 195.144 133.388 195.144C134.24 195.144 134.948 194.844 135.488 194.256C136.028 193.668 136.304 192.948 136.304 192.096C136.304 191.256 136.028 190.536 135.488 189.948C134.948 189.36 134.24 189.06 133.388 189.06C132.428 189.06 131.684 189.42 131.144 190.128V189.204H130.28V197.4H131.144V194.076ZM131.144 191.148C131.492 190.392 132.308 189.84 133.184 189.84C133.82 189.84 134.36 190.056 134.78 190.488C135.2 190.92 135.416 191.46 135.416 192.096C135.416 192.732 135.2 193.272 134.78 193.716C134.36 194.148 133.82 194.364 133.184 194.364C132.308 194.364 131.48 193.824 131.144 193.056V191.148ZM139.865 194.364C138.965 194.364 138.281 193.956 138.281 193.176C138.281 192.456 138.941 192.012 139.997 192.012C140.657 192.012 141.293 192.204 141.881 192.588V193.392C141.461 193.92 140.693 194.364 139.865 194.364ZM139.625 195.144C140.597 195.144 141.377 194.808 141.965 194.124C142.061 194.748 142.493 195.048 143.057 195.048C143.321 195.048 143.513 195 143.633 194.916V194.244C143.537 194.292 143.429 194.316 143.297 194.316C142.961 194.316 142.745 194.04 142.745 193.596V191.208C142.745 189.804 141.701 189.06 140.153 189.06C139.325 189.06 138.641 189.24 138.077 189.588V190.428C138.665 190.032 139.289 189.84 139.973 189.84C141.245 189.84 141.881 190.32 141.881 191.292V191.868C141.245 191.496 140.549 191.304 139.793 191.304C139.109 191.304 138.545 191.472 138.089 191.82C137.645 192.168 137.417 192.636 137.417 193.224C137.417 193.824 137.633 194.292 138.053 194.64C138.485 194.976 139.013 195.144 139.625 195.144ZM147.149 195V189.96H149.249V189.204H144.185V189.96H146.285V195H147.149ZM151.381 195L155.089 190.488V195H155.953V189.204H155.149L151.441 193.728V189.204H150.577V195H151.381ZM161.247 195C162.483 195 163.179 194.4 163.179 193.44C163.179 192.66 162.807 192.168 162.075 191.952C162.555 191.724 162.795 191.304 162.795 190.68C162.795 189.804 162.159 189.204 161.043 189.204H157.995V195H161.247ZM158.859 192.384H161.067C161.847 192.384 162.303 192.732 162.303 193.32C162.303 193.908 161.847 194.244 161.067 194.244H158.859V192.384ZM158.859 189.96H160.803C161.523 189.96 161.943 190.248 161.943 190.812C161.943 191.352 161.523 191.664 160.803 191.664H158.859V189.96ZM165.784 195V192.42H169.348V195H170.212V189.204H169.348V191.64H165.784V189.204H164.92V195H165.784ZM178.88 195V189.204H178.016V195H178.88ZM174.884 195C176.264 195 177.056 194.208 177.056 193.068C177.056 191.904 176.204 191.148 174.848 191.148H173.12V189.204H172.256V195H174.884ZM173.12 191.904H174.728C175.64 191.904 176.18 192.324 176.18 193.08C176.18 193.812 175.64 194.244 174.728 194.244H173.12V191.904ZM181.288 195L183.244 192.576L185.176 195H186.196L183.76 191.916L185.92 189.204H184.912L183.256 191.268L181.6 189.204H180.58L182.728 191.94L180.292 195H181.288ZM113.416 208.204V214H114.28V211.144L117.412 214H118.648L115.156 210.82L118.216 208.204H117.04L114.28 210.592V208.204H113.416ZM119.141 214C119.201 214.012 119.285 214.012 119.393 214.012C120.305 214.06 120.869 213.436 121.133 212.74C121.337 212.272 121.433 211.54 121.481 211.012C121.505 210.748 121.517 210.436 121.529 210.076L121.565 208.96H124.205V214H125.069V208.204H120.737L120.689 210.052C120.653 211 120.593 211.624 120.401 212.26C120.221 212.884 119.885 213.22 119.369 213.22C119.273 213.22 119.201 213.22 119.141 213.208V214ZM127.908 214L131.616 209.488V214H132.48V208.204H131.676L127.968 212.728V208.204H127.104V214H127.908ZM137.294 214.144C138.17 214.144 138.842 213.964 139.322 213.592V212.824C138.758 213.184 138.134 213.364 137.462 213.364C136.07 213.364 135.086 212.56 134.99 211.312H139.754V211.072C139.754 209.764 138.986 208.06 137.042 208.06C136.178 208.06 135.47 208.348 134.918 208.936C134.378 209.512 134.102 210.232 134.102 211.108C134.102 211.996 134.402 212.728 135.014 213.292C135.626 213.856 136.394 214.144 137.294 214.144ZM135.002 210.604C135.038 210.124 135.242 209.716 135.59 209.368C135.95 209.02 136.418 208.84 137.006 208.84C137.618 208.84 138.074 209.02 138.374 209.392C138.686 209.752 138.854 210.16 138.878 210.604H135.002ZM142.241 214V211.42H145.805V214H146.669V208.204H145.805V210.64H142.241V208.204H141.377V214H142.241ZM150.969 214V208.96H153.069V208.204H148.005V208.96H150.105V214H150.969ZM154.701 208.96C154.113 209.548 153.825 210.268 153.825 211.108C153.825 211.948 154.113 212.668 154.701 213.256C155.289 213.844 156.033 214.144 156.957 214.144C157.881 214.144 158.625 213.844 159.213 213.256C159.801 212.668 160.089 211.948 160.089 211.108C160.089 210.268 159.801 209.548 159.213 208.96C158.625 208.36 157.881 208.06 156.957 208.06C156.033 208.06 155.289 208.36 154.701 208.96ZM159.201 211.108C159.201 211.744 158.985 212.284 158.565 212.716C158.145 213.148 157.605 213.364 156.957 213.364C156.309 213.364 155.769 213.148 155.349 212.716C154.929 212.284 154.713 211.744 154.713 211.108C154.713 210.46 154.929 209.92 155.349 209.488C155.769 209.056 156.309 208.84 156.957 208.84C157.605 208.84 158.145 209.056 158.565 209.488C158.985 209.92 159.201 210.46 159.201 211.108ZM164.95 214C166.186 214 166.882 213.4 166.882 212.44C166.882 211.66 166.51 211.168 165.778 210.952C166.258 210.724 166.498 210.304 166.498 209.68C166.498 208.804 165.862 208.204 164.746 208.204H161.698V214H164.95ZM162.562 211.384H164.77C165.55 211.384 166.006 211.732 166.006 212.32C166.006 212.908 165.55 213.244 164.77 213.244H162.562V211.384ZM162.562 208.96H164.506C165.226 208.96 165.646 209.248 165.646 209.812C165.646 210.352 165.226 210.664 164.506 210.664H162.562V208.96Z" fill="#333333"/>
<path d="M93.4005 50.8778C90.1005 23.7778 109.801 3.27783 136.001 1.27783C148.201 0.277826 160.701 3.77783 170.801 10.6778C180.301 17.0778 185.101 26.8778 187.901 37.4778C188.301 64.0778 177.101 86.2778 150.001 94.4778C120.501 103.378 96.6005 77.1778 93.4005 50.8778Z" fill="white"/>
<path d="M147.701 96.3778C174.701 91.3778 194.501 61.3778 187.901 34.5778C187.801 34.2778 187.701 34.1778 187.501 34.0778C183.501 11.0778 158.001 -0.922173 135.801 0.277827C108.401 1.67783 89.8006 23.9778 92.0006 50.8778C94.3006 78.2778 118.901 101.778 147.701 96.3778ZM93.4006 50.8778C90.1006 23.6778 109.801 3.17783 136.001 1.17783C148.201 0.277827 160.701 3.77783 170.801 10.5778C180.301 16.9778 185.101 26.7778 187.901 37.3778C188.301 63.9778 177.101 86.1778 150.001 94.3778C120.501 103.278 96.6006 77.0778 93.4006 50.8778Z" fill="#0073F1"/>
<path d="M168.656 37.6686C168.576 37.6686 168.415 37.7506 168.334 37.7506C168.253 37.6686 168.092 37.6686 168.011 37.7506C168.011 37.7506 168.011 37.7506 168.011 37.8327C164.866 38.5711 162.125 39.1454 159.061 37.4225C156.399 35.9457 154.384 33.4023 152.368 31.1051C148.336 26.5927 143.014 22.4905 136.724 23.9673C136.804 23.8032 136.885 23.6391 136.966 23.475C137.046 23.2289 136.724 22.9007 136.482 23.2289C136.401 23.393 136.321 23.475 136.24 23.6391C136.159 23.393 136.159 23.1468 136.079 22.9007C136.159 22.9828 136.24 23.0648 136.24 23.1468C136.482 23.393 136.804 23.0648 136.724 22.8187C136.563 22.3264 136.159 21.9162 135.676 21.7521C135.595 21.7521 135.595 21.7521 135.514 21.7521C135.756 21.2598 135.595 20.8496 135.434 20.4394C135.272 19.9471 135.353 19.783 135.837 19.5369C136.079 19.3728 137.208 19.619 137.369 19.783C137.853 20.4394 137.772 20.9317 137.369 21.588C137.127 21.9162 136.804 22.4084 137.046 22.9007C137.127 23.0648 137.369 23.1468 137.45 22.9828C137.772 22.4905 138.256 21.8341 138.417 21.2598C138.578 20.8496 138.498 20.5214 138.417 20.1112C138.337 19.783 137.933 19.0447 137.611 18.9626C137.127 18.9626 136.321 18.5524 135.837 18.7165C135.434 18.9626 135.03 19.1267 134.869 19.5369C134.547 20.1933 135.272 21.0137 135.353 21.6701C135.272 21.6701 135.192 21.6701 135.192 21.6701C134.95 21.7521 134.869 21.9162 134.627 21.9982C134.547 22.0803 134.547 22.1623 134.627 22.2444C132.531 26.8388 129.95 31.2692 127.934 35.9457C125.676 40.9503 123.66 46.0371 121.725 51.2058C117.774 61.4613 116.887 64.1687 113.016 74.5062C112.936 74.6703 113.178 74.7524 113.258 74.5883C117.532 64.743 118.258 62.1997 122.048 52.1903C123.983 47.1036 126.08 42.0169 128.257 37.0122C130.434 32.0896 133.095 27.4952 135.272 22.6546C135.353 22.4905 135.272 22.4084 135.192 22.3264C135.434 22.3264 135.595 22.4905 135.756 22.6546C135.514 22.6546 135.272 22.9007 135.353 23.2289C135.514 23.7211 135.595 24.2955 135.676 24.7877C134.869 26.1825 134.143 27.7413 133.418 29.136C132.208 31.5153 131.16 33.8946 130.031 36.2738C127.854 41.1144 125.838 46.0371 123.902 50.9597C122.048 55.7182 121.725 56.2105 120.032 61.0511C118.338 65.8096 117.855 67.0403 116.484 71.7988C116.403 71.9629 116.726 72.0449 116.806 71.8808C118.822 67.2864 118.903 65.9737 120.596 61.2972C122.29 56.5387 122.693 55.9644 124.547 51.2879C125.273 49.4009 125.999 47.5138 126.805 45.6268C126.886 45.5448 126.886 45.5448 126.967 45.4628C130.273 43.4117 133.901 41.1965 137.933 42.099C140.836 42.7553 143.175 45.1346 145.352 47.0216C147.61 48.9086 150.11 50.6315 152.932 51.4519C156.641 52.5185 161.399 51.6981 165.108 50.3854C165.189 50.3854 165.189 50.3854 165.27 50.3033C165.512 50.2213 165.834 50.1392 166.076 49.9752C166.399 49.8111 166.318 49.3188 165.915 49.3188C165.754 49.3188 165.512 49.4009 165.35 49.4009C165.431 45.4627 166.56 42.099 168.253 38.6531C168.495 38.5711 168.737 38.407 168.979 38.3249C169.06 37.9968 168.898 37.5865 168.656 37.6686ZM130.273 37.0122C131.24 34.7971 132.289 32.6639 133.337 30.5308C134.063 29.054 134.869 27.5772 135.676 26.1004C135.998 32.9101 131.402 38.5711 127.37 43.8219C128.257 41.5246 129.224 39.3095 130.273 37.0122ZM164.866 49.2368C160.27 49.8931 156.077 51.616 151.481 49.729C148.416 48.4984 145.997 46.2832 143.497 44.2321C141.481 42.5912 139.224 41.1144 136.563 40.8683C133.579 40.6222 130.676 41.9349 128.257 43.6578C132.934 38.7352 137.046 31.6794 136.24 24.7877C136.24 24.7877 136.24 24.7057 136.321 24.7057C140.111 24.5416 143.336 24.7057 146.642 26.9209C149.384 28.8079 151.4 31.4333 153.577 33.8946C157.206 37.9147 162.044 40.9503 167.286 38.8992C165.431 41.9349 164.705 45.7089 164.866 49.2368Z" fill="#0073F1"/>
</svg>
