<svg width="280" height="220" viewBox="0 0 280 220" fill="none" xmlns="http://www.w3.org/2000/svg">
<path d="M84.3726 159.288C85.9806 159.288 87.3486 158.76 88.4286 157.68C89.5326 156.6 90.0846 155.256 90.0846 153.6C90.0846 152.04 89.5566 150.744 88.5006 149.76C87.4686 148.752 86.1726 148.248 84.6606 148.248C82.3806 148.248 80.6286 149.232 79.7406 150.744C79.8126 147.192 81.4686 143.568 85.4526 143.568C86.6766 143.568 87.8046 143.928 88.8606 144.648V142.944C87.8766 142.248 86.6766 141.912 85.3086 141.912C80.7486 141.888 77.9166 146.184 78.0126 151.416C78.0126 153.888 78.5886 155.832 79.7166 157.224C80.8446 158.592 82.4046 159.288 84.3726 159.288ZM84.2766 157.632C81.6606 157.632 80.0766 155.952 79.7886 153.072C80.1006 152.136 80.6526 151.368 81.4926 150.744C82.3326 150.12 83.2446 149.808 84.2286 149.808C85.4046 149.808 86.3646 150.144 87.1566 150.84C87.9486 151.536 88.3326 152.448 88.3326 153.6C88.3326 154.776 87.9486 155.736 87.1566 156.504C86.3886 157.248 85.4286 157.632 84.2766 157.632ZM104.188 159V157.392H95.3316L99.8436 153.048C101.212 151.752 102.172 150.648 102.724 149.76C103.276 148.848 103.564 147.816 103.564 146.688C103.564 145.272 103.036 144.12 102.004 143.232C100.972 142.344 99.6996 141.912 98.1396 141.912C96.1956 141.912 94.5396 142.56 93.1236 143.832V145.824C94.5876 144.312 96.2196 143.568 97.9716 143.568C100.252 143.568 101.788 144.912 101.788 146.904C101.788 147.84 101.524 148.68 101.02 149.424C100.516 150.168 99.6516 151.104 98.4036 152.28L92.7396 157.68V159H104.188ZM111.824 159V142.2H110.264L106.304 144.576V146.28L110.072 144.12V159H111.824ZM124.49 159V149.784L128.786 154.8H129.458L133.778 149.784V159H135.458V147.408H133.778L129.122 152.784L124.49 147.408H122.81V159H124.49ZM138.008 159C138.128 159.024 138.296 159.024 138.512 159.024C140.336 159.12 141.464 157.872 141.992 156.48C142.4 155.544 142.592 154.08 142.688 153.024C142.736 152.496 142.76 151.872 142.784 151.152L142.856 148.92H148.136V159H149.864V147.408H141.2L141.104 151.104C141.032 153 140.912 154.248 140.528 155.52C140.168 156.768 139.496 157.44 138.464 157.44C138.272 157.44 138.128 157.44 138.008 157.416V159ZM155.663 157.152C156.743 158.568 158.231 159.288 160.151 159.288C161.855 159.288 163.271 158.688 164.351 157.512C165.431 156.336 165.983 154.896 165.983 153.192C165.983 151.512 165.431 150.072 164.351 148.896C163.271 147.72 161.855 147.12 160.151 147.12C158.231 147.12 156.743 147.84 155.663 149.256V147.408H153.935V163.8H155.663V157.152ZM155.663 151.296C156.359 149.784 157.991 148.68 159.743 148.68C161.015 148.68 162.095 149.112 162.935 149.976C163.775 150.84 164.207 151.92 164.207 153.192C164.207 154.464 163.775 155.544 162.935 156.432C162.095 157.296 161.015 157.728 159.743 157.728C157.991 157.728 156.335 156.648 155.663 155.112V151.296ZM168.938 162.432V159H179.834V162.432H181.514V157.488H179.354V147.408H170.738L170.714 149.04C170.69 152.952 170.042 155.784 168.746 157.488H167.282V162.432H168.938ZM170.666 157.488C171.794 155.688 172.346 153.072 172.346 149.616V148.92H177.626V157.488H170.666ZM196.877 159.24C198.437 159.096 199.709 158.616 200.717 157.776C201.749 156.936 202.253 155.808 202.253 154.44C202.253 153.216 201.725 152.16 201.077 151.56C200.765 151.248 200.333 150.936 199.781 150.648C199.229 150.36 198.725 150.144 198.317 150C197.909 149.856 197.357 149.688 196.661 149.472L195.653 149.184L194.621 148.896L193.805 148.584C193.421 148.44 193.157 148.32 193.013 148.2C192.485 147.792 191.813 147.144 191.933 146.304C191.933 144.768 193.301 143.568 195.989 143.568C197.789 143.568 199.517 144.096 201.173 145.128V143.304C199.925 142.56 198.485 142.104 196.877 141.96V139.488H195.101V141.96C191.957 142.224 190.133 143.928 190.133 146.256C190.133 147.432 190.613 148.392 191.189 148.992C191.477 149.28 191.885 149.568 192.437 149.832C192.989 150.096 193.493 150.288 193.925 150.432C194.357 150.576 194.957 150.744 195.701 150.96C196.301 151.128 196.733 151.272 196.973 151.344L198.029 151.704C198.509 151.872 198.845 152.04 199.037 152.184C199.757 152.616 200.549 153.408 200.429 154.464C200.429 156.408 198.509 157.632 195.893 157.632C194.693 157.632 193.541 157.416 192.413 157.008C191.309 156.576 190.445 156.072 189.797 155.52V157.512C191.117 158.52 192.869 159.096 195.101 159.24V161.688L196.877 161.712V159.24Z" fill="#333333"/>
<path d="M56.2338 189.96C55.6458 190.548 55.3578 191.268 55.3578 192.108C55.3578 192.948 55.6458 193.668 56.2338 194.256C56.8218 194.844 57.5658 195.144 58.4898 195.144C59.4138 195.144 60.1578 194.844 60.7458 194.256C61.3338 193.668 61.6218 192.948 61.6218 192.108C61.6218 191.268 61.3338 190.548 60.7458 189.96C60.1578 189.36 59.4138 189.06 58.4898 189.06C57.5658 189.06 56.8218 189.36 56.2338 189.96ZM60.7338 192.108C60.7338 192.744 60.5178 193.284 60.0978 193.716C59.6778 194.148 59.1378 194.364 58.4898 194.364C57.8418 194.364 57.3018 194.148 56.8818 193.716C56.4618 193.284 56.2458 192.744 56.2458 192.108C56.2458 191.46 56.4618 190.92 56.8818 190.488C57.3018 190.056 57.8418 189.84 58.4898 189.84C59.1378 189.84 59.6778 190.056 60.0978 190.488C60.5178 190.92 60.7338 191.46 60.7338 192.108ZM66.0629 195.144C66.8909 195.144 67.5749 194.868 68.1389 194.316C68.7029 193.764 68.9789 193.056 68.9789 192.18C68.9789 191.388 68.7269 190.74 68.2109 190.236C67.6949 189.72 67.0589 189.468 66.3029 189.468C65.1509 189.468 64.2149 189.984 63.7349 190.812C63.7709 189.84 64.0109 189.132 64.4549 188.664C64.8989 188.196 65.5589 187.872 66.4349 187.668C66.8789 187.56 67.5149 187.428 68.3429 187.272V186.468C67.9109 186.552 67.5509 186.612 67.2749 186.672C66.9989 186.732 66.6869 186.804 66.3269 186.9C65.9789 186.984 65.6909 187.08 65.4629 187.164C65.0189 187.344 64.4069 187.632 64.0829 187.956C63.3509 188.628 62.9189 189.66 62.9189 191.304C62.9189 192.492 63.1949 193.428 63.7469 194.112C64.2989 194.796 65.0669 195.144 66.0629 195.144ZM66.0629 194.364C64.6829 194.364 63.8909 193.416 63.8069 191.796C63.9869 191.376 64.2869 191.016 64.7069 190.716C65.1269 190.404 65.5949 190.248 66.1109 190.248C66.6749 190.248 67.1429 190.428 67.5269 190.8C67.9109 191.16 68.1029 191.64 68.1029 192.24C68.1029 192.864 67.8989 193.38 67.5029 193.776C67.1069 194.172 66.6269 194.364 66.0629 194.364ZM74.3843 195C75.7643 195 76.5563 194.208 76.5563 193.068C76.5563 191.904 75.7043 191.148 74.3483 191.148H72.3203V189.204H69.6803V189.96H71.4563V195H74.3843ZM72.3203 191.904H74.2283C75.1403 191.904 75.6803 192.324 75.6803 193.08C75.6803 193.812 75.1403 194.244 74.2283 194.244H72.3203V191.904ZM80.9443 195.144C81.8203 195.144 82.4923 194.964 82.9723 194.592V193.824C82.4083 194.184 81.7843 194.364 81.1123 194.364C79.7203 194.364 78.7363 193.56 78.6403 192.312H83.4043V192.072C83.4043 190.764 82.6363 189.06 80.6923 189.06C79.8283 189.06 79.1203 189.348 78.5683 189.936C78.0283 190.512 77.7523 191.232 77.7523 192.108C77.7523 192.996 78.0523 193.728 78.6643 194.292C79.2763 194.856 80.0443 195.144 80.9443 195.144ZM78.6523 191.604C78.6883 191.124 78.8923 190.716 79.2403 190.368C79.6003 190.02 80.0683 189.84 80.6563 189.84C81.2683 189.84 81.7243 190.02 82.0243 190.392C82.3363 190.752 82.5043 191.16 82.5283 191.604H78.6523ZM85.8678 195V190.392L88.0158 192.9H88.3518L90.5118 190.392V195H91.3518V189.204H90.5118L88.1838 191.892L85.8678 189.204H85.0278V195H85.8678ZM96.5591 189.204V195H97.4231V192.144L100.555 195H101.791L98.2991 191.82L101.359 189.204H100.183L97.4231 191.592V189.204H96.5591ZM102.283 195C102.343 195.012 102.427 195.012 102.535 195.012C103.447 195.06 104.011 194.436 104.275 193.74C104.479 193.272 104.575 192.54 104.623 192.012C104.647 191.748 104.659 191.436 104.671 191.076L104.707 189.96H107.347V195H108.211V189.204H103.879L103.831 191.052C103.795 192 103.735 192.624 103.543 193.26C103.363 193.884 103.027 194.22 102.511 194.22C102.415 194.22 102.343 194.22 102.283 194.208V195ZM111.051 195L114.759 190.488V195H115.623V189.204H114.819L111.111 193.728V189.204H110.247V195H111.051ZM120.437 195.144C121.313 195.144 121.985 194.964 122.465 194.592V193.824C121.901 194.184 121.277 194.364 120.605 194.364C119.213 194.364 118.229 193.56 118.133 192.312H122.897V192.072C122.897 190.764 122.129 189.06 120.185 189.06C119.321 189.06 118.613 189.348 118.061 189.936C117.521 190.512 117.245 191.232 117.245 192.108C117.245 192.996 117.545 193.728 118.157 194.292C118.769 194.856 119.537 195.144 120.437 195.144ZM118.145 191.604C118.181 191.124 118.385 190.716 118.733 190.368C119.093 190.02 119.561 189.84 120.149 189.84C120.761 189.84 121.217 190.02 121.517 190.392C121.829 190.752 121.997 191.16 122.021 191.604H118.145ZM125.384 195V192.42H128.948V195H129.812V189.204H128.948V191.64H125.384V189.204H124.52V195H125.384ZM134.112 195V189.96H136.212V189.204H131.148V189.96H133.248V195H134.112ZM140.051 195.144C140.759 195.144 141.383 194.976 141.923 194.652V193.86C141.407 194.196 140.831 194.364 140.183 194.364C139.523 194.364 138.959 194.148 138.515 193.728C138.071 193.296 137.855 192.756 137.855 192.108C137.855 191.448 138.071 190.908 138.515 190.488C138.959 190.056 139.523 189.84 140.183 189.84C140.747 189.84 141.287 189.984 141.815 190.284V189.48C141.323 189.204 140.735 189.06 140.063 189.06C139.187 189.06 138.443 189.348 137.855 189.936C137.267 190.512 136.967 191.232 136.967 192.096C136.967 192.972 137.255 193.692 137.843 194.28C138.431 194.856 139.175 195.144 140.051 195.144ZM143.68 189.204V195H144.544V192.144L147.676 195H148.912L145.42 191.82L148.48 189.204H147.304L144.544 191.592V189.204H143.68ZM150.976 195L154.684 190.488V195H155.548V189.204H154.744L151.036 193.728V189.204H150.172V195H150.976ZM157.962 195L159.918 192.576L161.85 195H162.87L160.434 191.916L162.594 189.204H161.586L159.93 191.268L158.274 189.204H157.254L159.402 191.94L156.966 195H157.962ZM167.925 189.96C167.337 190.548 167.049 191.268 167.049 192.108C167.049 192.948 167.337 193.668 167.925 194.256C168.513 194.844 169.257 195.144 170.181 195.144C171.105 195.144 171.849 194.844 172.437 194.256C173.025 193.668 173.313 192.948 173.313 192.108C173.313 191.268 173.025 190.548 172.437 189.96C171.849 189.36 171.105 189.06 170.181 189.06C169.257 189.06 168.513 189.36 167.925 189.96ZM172.425 192.108C172.425 192.744 172.209 193.284 171.789 193.716C171.369 194.148 170.829 194.364 170.181 194.364C169.533 194.364 168.993 194.148 168.573 193.716C168.153 193.284 167.937 192.744 167.937 192.108C167.937 191.46 168.153 190.92 168.573 190.488C168.993 190.056 169.533 189.84 170.181 189.84C170.829 189.84 171.369 190.056 171.789 190.488C172.209 190.92 172.425 191.46 172.425 192.108ZM175.786 195V189.96H179.266V195H180.13V189.204H174.922V195H175.786ZM184.937 195.144C185.813 195.144 186.485 194.964 186.965 194.592V193.824C186.401 194.184 185.777 194.364 185.105 194.364C183.713 194.364 182.729 193.56 182.633 192.312H187.397V192.072C187.397 190.764 186.629 189.06 184.685 189.06C183.821 189.06 183.113 189.348 182.561 189.936C182.021 190.512 181.745 191.232 181.745 192.108C181.745 192.996 182.045 193.728 182.657 194.292C183.269 194.856 184.037 195.144 184.937 195.144ZM182.645 191.604C182.681 191.124 182.885 190.716 183.233 190.368C183.593 190.02 184.061 189.84 184.649 189.84C185.261 189.84 185.717 190.02 186.017 190.392C186.329 190.752 186.497 191.16 186.521 191.604H182.645ZM189.884 194.076C190.424 194.784 191.168 195.144 192.128 195.144C192.98 195.144 193.688 194.844 194.228 194.256C194.768 193.668 195.044 192.948 195.044 192.096C195.044 191.256 194.768 190.536 194.228 189.948C193.688 189.36 192.98 189.06 192.128 189.06C191.168 189.06 190.424 189.42 189.884 190.128V189.204H189.02V197.4H189.884V194.076ZM189.884 191.148C190.232 190.392 191.048 189.84 191.924 189.84C192.56 189.84 193.1 190.056 193.52 190.488C193.94 190.92 194.156 191.46 194.156 192.096C194.156 192.732 193.94 193.272 193.52 193.716C193.1 194.148 192.56 194.364 191.924 194.364C191.048 194.364 190.22 193.824 189.884 193.056V191.148ZM198.605 194.364C197.705 194.364 197.021 193.956 197.021 193.176C197.021 192.456 197.681 192.012 198.737 192.012C199.397 192.012 200.033 192.204 200.621 192.588V193.392C200.201 193.92 199.433 194.364 198.605 194.364ZM198.365 195.144C199.337 195.144 200.117 194.808 200.705 194.124C200.801 194.748 201.233 195.048 201.797 195.048C202.061 195.048 202.253 195 202.373 194.916V194.244C202.277 194.292 202.169 194.316 202.037 194.316C201.701 194.316 201.485 194.04 201.485 193.596V191.208C201.485 189.804 200.441 189.06 198.893 189.06C198.065 189.06 197.381 189.24 196.817 189.588V190.428C197.405 190.032 198.029 189.84 198.713 189.84C199.985 189.84 200.621 190.32 200.621 191.292V191.868C199.985 191.496 199.289 191.304 198.533 191.304C197.849 191.304 197.285 191.472 196.829 191.82C196.385 192.168 196.157 192.636 196.157 193.224C196.157 193.824 196.373 194.292 196.793 194.64C197.225 194.976 197.753 195.144 198.365 195.144ZM210.014 196.716V194.244H208.946V189.204H208.082V194.244H204.638V189.204H203.774V195H209.186V196.716H210.014ZM212.23 195L215.938 190.488V195H216.802V189.204H215.998L212.29 193.728V189.204H211.426V195H212.23ZM219.648 195L223.356 190.488V195H224.22V189.204H223.416L219.708 193.728V189.204H218.844V195H219.648ZM221.544 188.22C222.648 188.22 223.464 187.5 223.476 186.396H222.72C222.708 187.056 222.24 187.524 221.532 187.524C220.812 187.524 220.344 187.056 220.344 186.396H219.576C219.588 187.5 220.38 188.22 221.544 188.22ZM50.05 214V211.42H53.614V214H54.478V208.204H53.614V210.64H50.05V208.204H49.186V214H50.05ZM58.478 213.364C57.578 213.364 56.894 212.956 56.894 212.176C56.894 211.456 57.554 211.012 58.61 211.012C59.27 211.012 59.906 211.204 60.494 211.588V212.392C60.074 212.92 59.306 213.364 58.478 213.364ZM58.238 214.144C59.21 214.144 59.99 213.808 60.578 213.124C60.674 213.748 61.106 214.048 61.67 214.048C61.934 214.048 62.126 214 62.246 213.916V213.244C62.15 213.292 62.042 213.316 61.91 213.316C61.574 213.316 61.358 213.04 61.358 212.596V210.208C61.358 208.804 60.314 208.06 58.766 208.06C57.938 208.06 57.254 208.24 56.69 208.588V209.428C57.278 209.032 57.902 208.84 58.586 208.84C59.858 208.84 60.494 209.32 60.494 210.292V210.868C59.858 210.496 59.162 210.304 58.406 210.304C57.722 210.304 57.158 210.472 56.702 210.82C56.258 211.168 56.03 211.636 56.03 212.224C56.03 212.824 56.246 213.292 56.666 213.64C57.098 213.976 57.626 214.144 58.238 214.144ZM69.475 214.144C70.183 214.144 70.807 213.976 71.347 213.652V212.86C70.831 213.196 70.255 213.364 69.607 213.364C68.947 213.364 68.383 213.148 67.939 212.728C67.495 212.296 67.279 211.756 67.279 211.108C67.279 210.448 67.495 209.908 67.939 209.488C68.383 209.056 68.947 208.84 69.607 208.84C70.171 208.84 70.711 208.984 71.239 209.284V208.48C70.747 208.204 70.159 208.06 69.487 208.06C68.611 208.06 67.867 208.348 67.279 208.936C66.691 209.512 66.391 210.232 66.391 211.096C66.391 211.972 66.679 212.692 67.267 213.28C67.855 213.856 68.599 214.144 69.475 214.144ZM73.968 213.076C74.508 213.784 75.252 214.144 76.212 214.144C77.064 214.144 77.772 213.844 78.312 213.256C78.852 212.668 79.128 211.948 79.128 211.096C79.128 210.256 78.852 209.536 78.312 208.948C77.772 208.36 77.064 208.06 76.212 208.06C75.252 208.06 74.508 208.42 73.968 209.128V208.204H73.104V216.4H73.968V213.076ZM73.968 210.148C74.316 209.392 75.132 208.84 76.008 208.84C76.644 208.84 77.184 209.056 77.604 209.488C78.024 209.92 78.24 210.46 78.24 211.096C78.24 211.732 78.024 212.272 77.604 212.716C77.184 213.148 76.644 213.364 76.008 213.364C75.132 213.364 74.304 212.824 73.968 212.056V210.148ZM81.1889 208.96C80.6009 209.548 80.3129 210.268 80.3129 211.108C80.3129 211.948 80.6009 212.668 81.1889 213.256C81.7769 213.844 82.5209 214.144 83.4449 214.144C84.3689 214.144 85.1129 213.844 85.7009 213.256C86.2889 212.668 86.5769 211.948 86.5769 211.108C86.5769 210.268 86.2889 209.548 85.7009 208.96C85.1129 208.36 84.3689 208.06 83.4449 208.06C82.5209 208.06 81.7769 208.36 81.1889 208.96ZM85.6889 211.108C85.6889 211.744 85.4729 212.284 85.0529 212.716C84.6329 213.148 84.0929 213.364 83.4449 213.364C82.7969 213.364 82.2569 213.148 81.8369 212.716C81.4169 212.284 81.2009 211.744 81.2009 211.108C81.2009 210.46 81.4169 209.92 81.8369 209.488C82.2569 209.056 82.7969 208.84 83.4449 208.84C84.0929 208.84 84.6329 209.056 85.0529 209.488C85.4729 209.92 85.6889 210.46 85.6889 211.108ZM92.902 214V208.204H92.038V210.88C91.546 211.132 91.006 211.264 90.418 211.264C89.218 211.264 88.762 210.832 88.762 209.584V208.204H87.898V209.656C87.898 211.384 88.654 212.044 90.25 212.044C90.886 212.044 91.474 211.924 92.038 211.684V214H92.902ZM95.8117 214V211.42H99.3757V214H100.24V208.204H99.3757V210.64H95.8117V208.204H94.9477V214H95.8117ZM102.74 208.96C102.152 209.548 101.864 210.268 101.864 211.108C101.864 211.948 102.152 212.668 102.74 213.256C103.328 213.844 104.072 214.144 104.996 214.144C105.92 214.144 106.664 213.844 107.252 213.256C107.84 212.668 108.128 211.948 108.128 211.108C108.128 210.268 107.84 209.548 107.252 208.96C106.664 208.36 105.92 208.06 104.996 208.06C104.072 208.06 103.328 208.36 102.74 208.96ZM107.24 211.108C107.24 211.744 107.024 212.284 106.604 212.716C106.184 213.148 105.644 213.364 104.996 213.364C104.348 213.364 103.808 213.148 103.388 212.716C102.968 212.284 102.752 211.744 102.752 211.108C102.752 210.46 102.968 209.92 103.388 209.488C103.808 209.056 104.348 208.84 104.996 208.84C105.644 208.84 106.184 209.056 106.604 209.488C107.024 209.92 107.24 210.46 107.24 211.108ZM110.577 214V209.392L112.725 211.9H113.061L115.221 209.392V214H116.061V208.204H115.221L112.893 210.892L110.577 208.204H109.737V214H110.577ZM122.132 213.076C122.672 213.784 123.416 214.144 124.376 214.144C125.228 214.144 125.936 213.844 126.476 213.256C127.016 212.668 127.292 211.948 127.292 211.096C127.292 210.256 127.016 209.536 126.476 208.948C125.936 208.36 125.228 208.06 124.376 208.06C123.416 208.06 122.672 208.42 122.132 209.128V208.204H121.268V216.4H122.132V213.076ZM122.132 210.148C122.48 209.392 123.296 208.84 124.172 208.84C124.808 208.84 125.348 209.056 125.768 209.488C126.188 209.92 126.404 210.46 126.404 211.096C126.404 211.732 126.188 212.272 125.768 212.716C125.348 213.148 124.808 213.364 124.172 213.364C123.296 213.364 122.468 212.824 122.132 212.056V210.148ZM135.521 214V208.204H134.657V214H135.521ZM131.525 214C132.905 214 133.697 213.208 133.697 212.068C133.697 210.904 132.845 210.148 131.489 210.148H129.761V208.204H128.897V214H131.525ZM129.761 210.904H131.369C132.281 210.904 132.821 211.324 132.821 212.08C132.821 212.812 132.281 213.244 131.369 213.244H129.761V210.904ZM138.421 214V211.42H141.985V214H142.849V208.204H141.985V210.64H138.421V208.204H137.557V214H138.421ZM144.893 208.204V214H145.757V211.144L148.889 214H150.125L146.633 210.82L149.693 208.204H148.517L145.757 210.592V208.204H144.893ZM153.759 214.144C154.635 214.144 155.307 213.964 155.787 213.592V212.824C155.223 213.184 154.599 213.364 153.927 213.364C152.535 213.364 151.551 212.56 151.455 211.312H156.219V211.072C156.219 209.764 155.451 208.06 153.507 208.06C152.643 208.06 151.935 208.348 151.383 208.936C150.843 209.512 150.567 210.232 150.567 211.108C150.567 211.996 150.867 212.728 151.479 213.292C152.091 213.856 152.859 214.144 153.759 214.144ZM151.467 210.604C151.503 210.124 151.707 209.716 152.055 209.368C152.415 209.02 152.883 208.84 153.471 208.84C154.083 208.84 154.539 209.02 154.839 209.392C155.151 209.752 155.319 210.16 155.343 210.604H151.467ZM162.854 214.144C164.498 214.144 165.554 213.424 165.554 212.356C165.554 211.624 165.158 211.144 164.378 210.892C164.846 210.688 165.266 210.412 165.314 209.584C165.314 209.128 165.086 208.756 164.642 208.48C164.198 208.204 163.646 208.06 162.974 208.06C162.158 208.06 161.462 208.18 160.898 208.432V209.236C161.522 208.972 162.158 208.84 162.806 208.84C163.898 208.84 164.438 209.14 164.438 209.74C164.438 210.232 164.006 210.58 163.082 210.58H162.074V211.336H163.082C164.042 211.336 164.654 211.672 164.654 212.296C164.654 212.98 163.91 213.364 162.746 213.364C162.038 213.364 161.354 213.208 160.718 212.908V213.748C161.306 214.012 162.014 214.144 162.854 214.144ZM169.255 213.364C168.355 213.364 167.671 212.956 167.671 212.176C167.671 211.456 168.331 211.012 169.387 211.012C170.047 211.012 170.683 211.204 171.271 211.588V212.392C170.851 212.92 170.083 213.364 169.255 213.364ZM169.015 214.144C169.987 214.144 170.767 213.808 171.355 213.124C171.451 213.748 171.883 214.048 172.447 214.048C172.711 214.048 172.903 214 173.023 213.916V213.244C172.927 213.292 172.819 213.316 172.687 213.316C172.351 213.316 172.135 213.04 172.135 212.596V210.208C172.135 208.804 171.091 208.06 169.543 208.06C168.715 208.06 168.031 208.24 167.467 208.588V209.428C168.055 209.032 168.679 208.84 169.363 208.84C170.635 208.84 171.271 209.32 171.271 210.292V210.868C170.635 210.496 169.939 210.304 169.183 210.304C168.499 210.304 167.935 210.472 167.479 210.82C167.035 211.168 166.807 211.636 166.807 212.224C166.807 212.824 167.023 213.292 167.443 213.64C167.875 213.976 168.403 214.144 169.015 214.144ZM182.82 214V213.196H178.392L180.648 211.024C181.332 210.376 181.812 209.824 182.088 209.38C182.364 208.924 182.508 208.408 182.508 207.844C182.508 207.136 182.244 206.56 181.728 206.116C181.212 205.672 180.576 205.456 179.796 205.456C178.824 205.456 177.996 205.78 177.288 206.416V207.412C178.02 206.656 178.836 206.284 179.712 206.284C180.852 206.284 181.62 206.956 181.62 207.952C181.62 208.42 181.488 208.84 181.236 209.212C180.984 209.584 180.552 210.052 179.928 210.64L177.096 213.34V214H182.82ZM184.275 209.8C184.275 211.036 184.587 212.068 185.223 212.896C185.859 213.724 186.699 214.144 187.719 214.144C188.739 214.144 189.567 213.724 190.203 212.896C190.839 212.068 191.151 211.036 191.151 209.8C191.151 208.564 190.839 207.532 190.203 206.704C189.567 205.876 188.739 205.456 187.719 205.456C186.699 205.456 185.859 205.876 185.223 206.716C184.587 207.544 184.275 208.576 184.275 209.8ZM190.275 209.8C190.275 210.808 190.035 211.648 189.555 212.32C189.087 212.98 188.475 213.316 187.719 213.316C186.963 213.316 186.351 212.98 185.871 212.32C185.403 211.648 185.163 210.808 185.163 209.8C185.163 208.804 185.403 207.964 185.883 207.292C186.363 206.62 186.975 206.284 187.719 206.284C188.463 206.284 189.075 206.62 189.555 207.292C190.035 207.964 190.275 208.804 190.275 209.8ZM195.135 214V205.6H194.355L192.375 206.788V207.64L194.259 206.56V214H195.135ZM200.151 205.456C199.347 205.456 198.663 205.72 198.111 206.26C197.571 206.8 197.295 207.472 197.295 208.3C197.295 209.08 197.559 209.728 198.075 210.232C198.603 210.724 199.251 210.976 200.007 210.976C201.147 210.976 202.023 210.484 202.467 209.728C202.431 211.504 201.603 213.316 199.611 213.316C198.999 213.316 198.435 213.136 197.907 212.776V213.628C198.399 213.976 198.999 214.144 199.683 214.144C201.963 214.168 203.379 212.008 203.331 209.392C203.331 208.156 203.043 207.184 202.479 206.5C201.915 205.804 201.135 205.456 200.151 205.456ZM200.199 206.284C201.507 206.284 202.299 207.124 202.443 208.564C202.287 209.032 202.011 209.416 201.591 209.728C201.171 210.04 200.715 210.196 200.223 210.196C199.635 210.196 199.155 210.028 198.759 209.68C198.363 209.332 198.171 208.876 198.171 208.3C198.171 207.712 198.363 207.232 198.747 206.86C199.143 206.476 199.623 206.284 200.199 206.284ZM209.179 214V208.96H212.671V208.204H208.315V214H209.179ZM214.349 208.96C213.761 209.548 213.473 210.268 213.473 211.108C213.473 211.948 213.761 212.668 214.349 213.256C214.937 213.844 215.681 214.144 216.605 214.144C217.529 214.144 218.273 213.844 218.861 213.256C219.449 212.668 219.737 211.948 219.737 211.108C219.737 210.268 219.449 209.548 218.861 208.96C218.273 208.36 217.529 208.06 216.605 208.06C215.681 208.06 214.937 208.36 214.349 208.96ZM218.849 211.108C218.849 211.744 218.633 212.284 218.213 212.716C217.793 213.148 217.253 213.364 216.605 213.364C215.957 213.364 215.417 213.148 214.997 212.716C214.577 212.284 214.361 211.744 214.361 211.108C214.361 210.46 214.577 209.92 214.997 209.488C215.417 209.056 215.957 208.84 216.605 208.84C217.253 208.84 217.793 209.056 218.213 209.488C218.633 209.92 218.849 210.46 218.849 211.108ZM221.219 215.716V214H226.667V215.716H227.507V213.244H226.427V208.204H222.119L222.107 209.02C222.095 210.976 221.771 212.392 221.123 213.244H220.391V215.716H221.219ZM222.083 213.244C222.647 212.344 222.923 211.036 222.923 209.308V208.96H225.563V213.244H222.083ZM229.612 210.196C230.128 210.196 230.548 210.052 230.896 209.776C231.244 209.5 231.424 209.128 231.424 208.672C231.424 207.82 230.764 207.376 230.032 207.316L231.244 206.164V205.6H228.388V206.236H230.272L229.012 207.424V207.916C229.18 207.856 229.384 207.82 229.612 207.82C230.272 207.82 230.656 208.156 230.656 208.648C230.656 209.188 230.164 209.536 229.552 209.536C229.108 209.536 228.664 209.404 228.22 209.152V209.848C228.58 210.076 229.048 210.196 229.612 210.196Z" fill="#333333"/>
<path d="M143.699 95.7778C116.599 99.0778 96.0992 79.3778 94.0992 53.1778C93.1992 40.9778 96.6992 28.4778 103.499 18.3778C109.899 8.87784 119.699 4.07784 130.299 1.27784C156.899 0.87784 179.099 12.0778 187.299 39.1778C196.199 68.6778 169.999 92.5778 143.699 95.7778Z" fill="white"/>
<path d="M189.2 41.4778C184.2 14.4778 154.2 -5.32218 127.4 1.27782C127.1 1.37782 127 1.47782 126.9 1.67782C103.9 5.67782 91.8996 31.1778 93.0996 53.3778C94.4996 80.7778 116.8 99.3778 143.7 97.0778C171.1 94.8778 194.6 70.2778 189.2 41.4778ZM143.7 95.7778C116.5 99.0778 95.9996 79.3778 93.9996 53.1778C92.9996 40.9778 96.5996 28.4778 103.4 18.3778C109.8 8.87782 119.6 4.07782 130.2 1.27782C156.8 0.877817 179 12.0778 187.2 39.1778C196.1 68.6778 169.9 92.5778 143.7 95.7778Z" fill="#0073F1"/>
<path fill-rule="evenodd" clip-rule="evenodd" d="M162.801 30.0778C162.901 30.2915 163.501 30.0778 163.501 30.3983C163.401 30.8257 163.001 30.8257 163.001 31.2531C162.402 31.2531 162.302 31.0394 161.702 31.1463C162.002 31.5737 162.801 31.5737 162.701 32.5354C163.101 32.5354 163.501 32.5354 163.701 32.3217C163.601 32.6422 164 32.4285 164 32.6422C163.9 32.9628 163.601 33.0696 163.401 33.1765C163.201 34.1382 163.201 35.741 163.201 36.489C162.502 36.7027 162.202 36.8095 161.502 37.0232C161.902 37.1301 162.102 37.4506 162.402 37.5575C162.202 38.0917 162.701 38.0917 162.901 38.1986C162.801 39.9083 163.301 41.0836 163.001 42.7933C162.202 42.7933 162.402 42.0453 161.502 42.1522C161.602 42.9001 162.002 43.2207 162.102 43.9687C163.801 44.5029 163.101 47.7085 163.001 49.0976C162.602 49.2045 162.402 48.9908 162.302 48.7771C159.904 49.7388 156.307 50.273 153.209 49.8456C152.61 49.9525 150.511 50.0593 149.612 50.0593C147.914 50.0593 145.715 50.1662 144.416 49.7388C143.717 49.525 142.418 49.525 141.519 49.4182C140.62 49.3113 139.92 48.8839 139.121 48.7771C139.321 47.0674 138.821 45.892 138.921 44.1824C139.221 44.0755 139.421 43.9687 139.421 43.5413C140.12 43.2207 140.52 42.6864 141.019 42.259C140.32 42.259 139.321 42.1522 138.621 42.3659C138.521 41.1905 138.621 39.8014 138.221 38.8397C138.321 38.5192 138.521 38.4123 138.821 38.3055C138.921 37.2369 139.82 37.1301 140.42 36.5958C140.32 36.1684 139.52 36.4889 139.52 36.0615C139.121 36.1684 139.021 36.5958 138.621 36.3821C138.621 34.5656 138.122 33.0696 138.221 31.4668C138.521 30.8257 139.321 30.7189 139.72 30.2915C139.62 29.9709 138.821 30.2915 138.821 29.864C138.821 29.4366 139.021 29.4366 139.421 29.4366C139.221 28.9024 138.521 27.6201 139.221 27.1927C139.221 26.979 138.821 26.979 138.721 26.8722C138.421 27.9407 138.721 28.5818 138.821 29.5435C138.521 29.6503 138.321 29.6503 138.022 29.5435C137.922 29.1161 138.022 28.475 137.722 28.1544C138.221 26.979 137.022 24.6282 137.922 23.2391C138.521 22.2775 140.02 22.2775 141.319 21.8501C141.619 21.7432 141.819 21.4226 142.018 21.4226C142.818 21.1021 143.417 21.2089 144.117 20.7815C146.515 20.461 149.812 20.9952 152.31 20.8884C152.41 20.8884 152.71 20.5678 152.909 20.8884C153.209 20.9952 153.109 20.6747 153.309 20.7815C154.608 21.3158 156.706 20.9952 157.805 21.7432C158.805 21.8501 159.704 22.0638 160.104 22.8117C161.602 23.5597 162.901 24.2008 163.101 25.8036C163.001 27.4064 162.302 28.7955 162.801 30.0778ZM147.214 28.2613C148.713 28.9024 151.011 28.475 152.909 28.6887C154.508 28.475 156.507 28.5818 158.305 28.5818C158.605 28.2613 159.204 28.3681 159.704 28.3681C160.104 28.2613 160.703 27.727 161.003 27.9407C161.702 27.4064 162.202 26.6585 161.902 25.3762C161.003 24.7351 160.004 23.8803 159.004 23.2391C158.405 22.8117 157.506 23.0254 156.906 22.4912C151.311 21.6363 145.615 21.5295 141.019 23.0254C140.12 23.5597 139.321 24.094 138.721 24.9488C138.721 25.4831 139.021 25.6968 139.121 26.1242C139.72 26.3379 140.32 26.5516 141.019 26.6585C141.119 26.979 140.919 26.979 140.919 27.1927C142.818 27.727 144.816 28.2613 147.214 28.2613ZM161.802 30.3983C162.002 29.864 161.702 29.1161 161.902 28.3681C161.802 28.3681 161.802 28.2613 161.702 28.2613C161.402 28.7955 161.402 30.0778 161.802 30.3983ZM139.421 27.6201C139.321 28.2613 139.92 29.1161 139.52 29.6503C139.82 29.5435 139.72 29.7572 139.82 29.864C140.12 29.864 140.32 29.7572 140.62 29.7572C140.22 29.4366 140.42 28.475 140.42 27.8338C140.02 27.9407 139.92 27.4064 139.421 27.6201ZM141.119 30.2915C141.319 30.2915 141.519 30.2915 141.719 30.2915C141.619 29.4366 141.619 28.475 141.119 28.0475C141.019 28.0475 141.019 28.0475 140.919 28.0475C141.119 28.7955 141.019 29.4366 141.119 30.2915ZM159.604 29.1161C159.504 29.7572 159.704 30.0778 159.604 30.7189C159.804 30.7189 159.804 30.9326 159.904 30.9326C160.303 30.7189 160.803 30.5052 161.402 30.5052C161.103 30.0778 160.903 29.5435 160.803 28.7955C160.403 28.9024 160.004 29.0092 159.604 29.1161ZM142.318 30.2915C142.618 30.2915 142.918 30.612 143.117 30.2915C142.618 29.864 143.317 28.0475 142.018 28.3681C142.218 29.0092 142.318 29.6503 142.318 30.2915ZM157.406 29.3298C157.206 29.864 157.406 30.1846 157.306 31.1463C157.805 31.0394 158.405 30.9326 158.905 30.8257C158.905 30.2915 158.905 29.7572 159.004 29.1161C158.305 29.3298 157.905 29.2229 157.406 29.3298ZM143.817 30.7189C144.117 30.8257 144.316 30.8257 144.716 30.8257C144.816 29.9709 144.416 29.5435 144.516 28.7955C144.217 28.7955 143.917 28.7955 143.617 28.7955C143.417 29.6503 143.717 29.864 143.817 30.7189ZM145.316 30.9326C145.715 30.8257 145.615 31.1463 145.915 31.1463C146.115 30.3983 145.715 29.4366 146.015 29.1161C145.815 28.9024 145.416 28.9024 145.116 28.9024C145.016 29.6503 145.416 30.0778 145.316 30.9326ZM154.208 29.4366C154.208 30.1846 154.308 30.9326 154.308 31.4668C155.108 31.36 155.807 31.2531 156.706 31.2531C156.606 30.612 156.806 29.7572 156.507 29.3298C155.807 29.3298 155.307 29.3298 154.208 29.4366ZM146.615 29.2229C146.315 29.6503 147.014 30.612 146.515 31.0394C146.715 31.36 147.314 31.4668 147.714 31.2531C147.814 30.3983 147.614 30.1846 147.714 29.3298C147.414 29.1161 146.814 29.0092 146.615 29.2229ZM152.01 29.4366C151.91 30.1846 152.01 30.8257 152.01 31.4668C152.61 31.5737 153.109 31.4668 153.709 31.4668C153.809 30.7189 153.509 30.2915 153.609 29.4366C153.009 29.2229 152.61 29.4366 152.01 29.4366ZM148.313 31.36C148.713 31.1463 149.113 31.5737 149.512 31.36C149.312 30.5052 149.512 30.2915 149.312 29.4366C148.913 29.4366 148.613 29.4366 148.313 29.3298C148.113 29.864 148.313 30.7189 148.313 31.36ZM150.012 31.36C150.312 31.5737 150.911 31.4668 151.311 31.4668C151.311 31.0394 151.311 30.0778 151.411 29.4366C149.812 29.0092 149.912 29.8641 150.012 31.36ZM139.021 31.8943C139.52 32.8559 140.919 32.6422 142.118 32.8559C142.218 32.8559 142.218 32.9628 142.318 33.0696C143.517 33.3902 144.816 32.9628 145.715 33.6039C147.114 33.7108 149.412 33.7108 150.811 34.0313C151.111 34.1382 150.911 33.7108 151.111 33.9245C151.211 34.245 151.611 34.0313 152.01 34.1382C153.309 33.8176 154.808 34.0313 156.307 33.9245C156.806 33.6039 157.606 33.7108 158.405 33.7108C159.604 33.3902 161.203 33.3902 162.102 32.6422C162.002 32.2148 161.602 32.108 161.103 32.108C161.003 32.0011 161.103 31.5737 160.903 31.5737C157.106 32.108 152.51 32.5354 148.613 32.108C148.313 32.0011 148.613 32.5354 148.313 32.3217C148.013 32.3217 148.013 32.0011 147.714 32.0011C145.216 32.108 143.117 31.2531 140.819 30.9326C140.819 30.9326 140.819 30.8257 140.719 30.8257C140.22 31.2531 139.52 31.4668 139.021 31.8943ZM161.003 33.8176C160.803 34.245 160.803 35.5273 160.703 36.3821C161.203 36.489 161.402 36.2752 161.702 36.2752C161.402 35.6341 161.802 34.245 161.602 33.6039C161.602 33.8176 161.203 33.7108 161.003 33.8176ZM140.12 35.741C140.12 34.8862 139.82 34.4587 139.92 33.2834C139.52 33.2834 139.421 32.9628 139.021 32.9628C139.421 33.8176 138.721 35.8478 140.12 35.741ZM140.919 36.1684C141.219 36.1684 141.519 36.1684 141.819 36.1684C141.619 35.2067 141.819 34.1382 141.719 33.4971C141.019 33.4971 140.919 33.3902 140.32 33.3902C140.62 34.4587 140.719 35.0999 140.919 36.1684ZM159.304 34.1382C159.204 34.8862 159.104 35.9547 159.204 36.7027C159.604 36.7027 160.004 36.7027 160.203 36.5958C160.203 35.8478 160.303 34.5656 160.403 34.245C160.104 34.0313 159.604 34.0313 159.304 34.1382ZM142.518 36.489C142.918 36.489 143.317 36.4889 143.617 36.5958C143.417 35.741 143.317 34.7793 143.217 33.8176C142.918 33.8176 142.818 33.7108 142.518 33.7108C142.418 34.5656 142.418 35.4204 142.518 36.489ZM157.406 34.3519C157.206 35.2067 157.606 35.8478 157.306 36.2752C157.606 36.3821 157.306 36.9164 157.706 36.9164C157.905 36.7027 158.205 36.7027 158.605 36.8095C158.405 36.0615 158.705 34.8862 158.605 34.245C158.205 34.3519 157.706 34.3519 157.406 34.3519ZM143.917 33.9245C143.717 34.8862 144.117 35.9547 144.316 36.8095C144.616 36.8095 144.916 36.8095 145.216 36.8095C145.216 35.9547 145.316 34.993 145.316 34.1382C144.616 34.245 144.217 33.7108 143.917 33.9245ZM154.808 34.8862C155.407 35.3136 154.608 37.0232 155.407 37.2369C155.707 36.9164 156.507 37.2369 156.806 36.9164C156.307 36.5958 156.906 34.993 156.507 34.5656C156.107 34.7793 155.008 34.245 154.808 34.8862ZM145.815 36.8095C146.215 36.8095 146.415 37.0232 146.814 36.9164C146.615 36.0615 146.814 35.3136 146.914 34.3519C146.615 34.245 146.215 34.245 145.815 34.245C145.915 35.0999 145.715 36.0615 145.815 36.8095ZM153.209 34.5656C153.109 35.741 152.81 37.6643 154.608 37.1301C154.408 36.4889 154.308 35.3136 154.408 34.5656C154.009 34.5656 153.609 34.5656 153.209 34.5656ZM147.614 37.0232C148.213 37.0232 148.813 37.0232 149.312 37.1301C149.113 36.4889 149.312 35.6341 149.312 34.6724C148.713 34.6724 148.113 34.6724 147.514 34.5656C147.414 35.3136 147.214 36.3821 147.614 37.0232ZM150.012 37.0232C150.212 37.0232 150.312 37.0232 150.511 37.0232C150.511 36.7027 150.511 36.489 150.511 36.1684C150.012 35.8478 150.711 34.7793 150.212 34.5656C149.712 35.0999 150.012 36.1684 150.012 37.0232ZM151.111 37.1301C151.611 37.1301 152.11 37.1301 152.71 37.2369C152.41 36.5958 152.51 35.741 152.51 34.8862C152.11 34.6724 151.511 34.993 151.111 34.7793C150.911 35.741 151.211 36.0615 151.111 37.1301ZM156.107 37.878C152.41 37.878 149.512 37.7712 145.915 37.5575C145.715 37.5575 145.715 37.878 145.416 37.7712C145.316 37.6643 145.216 37.4506 145.116 37.4506C144.117 37.5575 142.918 37.0232 142.018 37.1301C142.018 37.4506 141.819 37.4506 141.619 37.6643C141.519 37.4506 141.819 37.0232 141.519 37.0232C141.019 37.3438 140.32 37.6643 140.02 38.3055C142.218 39.374 146.715 38.9466 150.212 39.374C150.412 39.374 150.312 39.0534 150.711 39.1603C151.111 39.5877 152.01 39.5877 152.41 39.2671C152.71 39.2671 152.51 39.5877 152.81 39.4808C153.909 39.374 155.208 39.374 156.207 39.0534C156.407 39.0534 156.307 39.374 156.706 39.2671C158.305 38.7329 160.603 39.0534 161.702 37.9849C160.104 37.0232 158.005 37.5575 156.107 37.878ZM161.702 41.8316C161.402 41.2973 161.702 40.2288 161.303 39.9083C161.702 39.8014 161.103 39.5877 161.502 39.374C161.402 39.374 161.303 39.374 161.203 39.374C161.303 40.0151 160.803 41.5111 161.702 41.8316ZM159.804 42.0453C160.104 42.0453 160.303 42.0453 160.603 42.0453C160.703 40.8699 160.503 40.2288 160.503 39.374C159.504 39.374 160.004 41.1905 159.804 42.0453ZM158.105 39.8014C158.405 40.3357 158.105 41.2973 158.205 42.0453C158.605 42.259 158.505 42.1522 159.004 42.1522C159.004 41.8316 159.004 41.5111 159.204 41.4042C159.004 41.0836 159.504 40.122 159.304 39.4808C158.905 39.6945 158.405 39.5877 158.105 39.8014ZM140.52 39.5877C140.52 39.9083 140.12 39.6945 140.12 40.0151C140.12 40.2288 140.62 40.8699 140.12 41.4042C140.22 41.6179 140.42 41.6179 140.62 41.6179C140.62 40.7631 140.42 39.9083 140.919 39.4808C140.52 39.4808 140.42 39.0534 139.82 39.1603C139.92 39.4808 140.42 39.2671 140.52 39.5877ZM156.507 40.122C156.806 40.122 156.606 40.4425 156.507 40.4425C156.606 40.6562 156.407 41.9385 156.407 42.5796C156.906 42.5796 157.206 42.3659 157.606 42.259C156.906 41.4042 158.205 40.2288 157.106 39.6945C157.206 40.122 156.606 39.8014 156.507 40.122ZM154.608 40.4425C154.708 41.0836 154.708 41.5111 154.708 42.5796C155.008 42.7933 155.607 42.6864 156.007 42.6864C155.807 41.6179 155.907 40.8699 156.107 40.0151C155.307 40.0151 154.908 39.8014 154.608 40.4425ZM141.319 39.8014C141.219 40.5494 141.319 41.1905 141.219 41.7248C141.519 41.8316 141.819 41.9385 142.118 42.0453C142.218 41.5111 142.118 40.6562 142.218 39.6945C141.819 39.4808 141.719 39.5877 141.319 39.8014ZM144.117 42.3659C144.616 42.3659 145.016 42.3659 145.416 42.3659C145.516 41.4042 145.016 40.9768 145.416 40.0151C145.016 39.9083 144.516 39.9083 144.017 39.9083C144.217 40.5494 144.017 41.4042 144.117 42.3659ZM146.115 42.259C146.615 42.3659 147.214 42.5796 147.514 42.259C147.214 42.1522 147.014 41.0836 147.214 40.8699C146.914 40.6562 147.014 40.2288 146.914 39.8014C146.515 39.8014 146.415 39.9083 146.015 39.8014C145.615 40.4425 146.015 41.4042 146.115 42.259ZM149.212 40.0151C149.312 40.8699 149.113 41.7248 149.113 42.4727C150.012 42.7933 151.211 42.7933 152.21 42.5796C151.91 42.0453 152.21 40.9768 152.11 40.122C151.81 40.122 151.411 40.122 151.111 40.122C150.911 40.7631 151.111 41.9385 150.911 42.5796C150.811 42.4727 150.412 42.5796 150.412 42.3659C150.212 41.5111 150.511 41.1905 150.511 40.2288C150.112 40.122 149.412 40.0151 149.212 40.0151ZM152.71 40.2288C152.71 40.9768 152.71 41.7248 152.61 42.4727C152.909 42.6864 153.609 42.5796 154.009 42.4727C153.909 41.9385 153.809 40.9768 154.108 40.3357C153.909 39.9083 153.309 40.3357 152.71 40.2288ZM142.718 42.1522C142.918 42.1522 143.217 42.1522 143.417 42.1522C143.417 41.4042 143.217 40.4425 143.617 39.8014C143.317 39.8014 143.117 39.8014 142.818 39.8014C142.818 40.6562 142.818 41.6179 142.718 42.1522ZM147.914 42.259C148.113 42.3659 148.313 42.4727 148.613 42.4727C148.613 41.7248 148.513 40.8699 148.613 40.0151C148.313 40.0151 148.013 40.0151 147.714 40.0151C147.614 40.9768 147.914 41.4042 147.914 42.259ZM159.604 43.1139C156.806 43.2207 155.108 43.6481 152.01 43.3276C149.212 43.6481 146.015 42.7933 142.918 43.007C142.718 43.007 142.718 43.3276 142.318 43.2207C142.118 43.1139 142.318 42.7933 142.018 42.7933C141.619 43.3276 140.62 43.2207 140.52 44.0755C141.719 44.3961 143.517 44.9304 144.316 44.7167C144.516 44.7167 144.416 45.0372 144.616 44.9304C145.516 44.8235 145.915 45.1441 146.914 45.1441C150.611 45.892 154.009 45.7852 157.905 45.3578C158.105 45.3578 157.905 44.9304 158.105 45.1441C158.705 45.3578 160.004 44.7167 160.503 44.6098C161.802 44.1824 161.702 43.755 161.003 42.9001C160.303 42.6864 159.904 42.7933 159.604 43.1139ZM160.104 45.9989C160.004 46.8537 159.804 48.2428 160.203 48.8839C160.104 48.5634 160.503 48.7771 160.603 48.6702C160.403 47.9223 160.703 46.4263 160.503 45.892C160.503 45.892 160.303 45.9989 160.104 45.9989ZM141.719 47.8154C141.419 47.1743 141.119 46.5332 141.119 45.5715C141.019 45.3578 140.52 45.5715 140.42 45.3578C140.819 46.1057 140.42 48.136 141.719 47.8154ZM158.505 46.2126C158.205 46.9606 158.305 48.2428 158.605 48.8839C159.004 48.9908 159.104 48.7771 159.504 48.8839C159.204 48.136 159.504 47.0674 159.404 46.2126C159.104 46.1057 158.805 46.2126 158.505 46.2126ZM156.606 46.5332C156.507 46.8537 156.806 46.8537 156.706 47.0674C156.307 47.2811 156.606 48.4565 156.407 49.0976C156.706 49.3113 157.506 49.2045 157.905 49.2045C157.606 48.2428 157.706 47.388 157.706 46.5332C157.406 46.4263 157.006 46.4263 156.606 46.5332ZM161.303 48.2428C161.502 48.3497 161.802 48.3497 161.902 48.136C161.402 48.0291 161.502 47.2811 161.602 46.64C161.502 46.64 161.402 46.64 161.402 46.64C161.203 47.2811 161.303 47.7085 161.303 48.2428ZM154.708 46.64C154.408 47.388 154.508 48.6702 154.808 49.2045C155.307 49.2045 155.108 48.9908 155.507 49.2045C155.707 49.2045 155.507 48.7771 155.807 48.9908C155.807 48.136 155.907 47.1743 155.907 46.5332C155.607 46.7469 155.208 46.7469 154.708 46.64ZM142.518 48.136C142.618 48.136 142.718 48.136 142.718 48.136C142.718 47.2811 142.818 46.7469 142.718 46.2126C142.318 46.2126 142.318 46.2126 141.819 46.2126C142.018 46.9606 142.118 47.6017 142.518 48.136ZM143.317 48.136C143.717 48.3497 144.217 48.3497 144.816 48.3497C144.816 47.7085 144.416 47.388 144.516 46.64C144.017 46.5332 143.717 46.3194 143.317 46.2126C143.417 46.9606 143.317 47.4948 143.317 48.136ZM145.216 46.5332C145.116 47.388 145.516 47.9223 145.516 48.6702C145.815 48.6702 146.415 48.7771 146.615 48.6702C146.315 48.2428 146.615 46.9606 146.415 46.4263C146.115 46.64 145.715 46.64 145.216 46.5332ZM147.114 48.8839C147.414 49.0976 147.714 49.2045 148.213 49.2045C148.113 48.136 148.213 48.0291 148.313 46.8537C147.914 46.8537 147.614 46.7469 147.414 46.5332C146.914 47.1743 147.214 47.8154 147.114 48.8839ZM152.51 46.9606C152.51 47.7085 152.41 48.5634 152.61 49.2045C152.81 49.2045 153.609 49.4182 154.009 49.2045C153.809 48.4565 154.208 47.388 153.809 46.8537C153.509 47.0674 152.81 46.8537 152.51 46.9606ZM148.813 49.0976C149.113 49.3113 149.712 49.2045 150.112 49.2045C150.012 48.5634 150.112 47.6017 150.112 46.8537C149.612 46.8537 149.412 46.64 148.813 46.7469C148.613 47.6017 148.913 47.9222 148.813 49.0976ZM150.811 46.9606C150.911 48.3497 150.312 49.8456 152.01 49.3113C151.71 48.7771 152.01 47.7085 151.91 46.9606C151.511 47.0674 151.011 46.8537 150.811 46.9606ZM140.819 48.8839C141.219 48.7771 141.819 49.3113 142.118 48.8839C141.519 48.9908 141.119 48.3497 140.819 48.8839Z" fill="#0073F1"/>
<path fill-rule="evenodd" clip-rule="evenodd" d="M147.714 22.3845C148.114 22.3845 148.314 22.5982 148.514 22.8119C149.313 22.4913 150.812 22.1708 151.211 23.0256C151.211 23.2393 151.111 23.3461 151.111 23.5598C150.512 23.6667 149.812 22.9187 149.113 23.453C149.013 24.4147 149.812 24.4147 150.112 24.9489C151.911 24.8421 153.909 25.1626 153.11 27.086C152.81 26.9792 152.91 27.5134 152.51 27.4066C152.41 27.7271 152.71 27.7271 152.71 28.0477C152.71 28.3682 152.31 28.2614 152.211 28.4751C152.011 27.9408 151.311 28.3682 151.211 27.834C150.412 27.9408 149.912 28.0477 149.113 28.0477C149.413 27.9408 149.313 27.2997 149.413 27.086C149.713 27.086 150.512 27.4066 150.712 27.086C150.612 26.6586 150.012 26.6586 150.012 26.1243C148.613 26.1243 146.715 26.1243 147.115 24.0941C147.315 23.8804 147.414 23.5598 147.814 23.453C147.714 23.0256 147.414 22.705 147.714 22.3845ZM147.814 24.7352C148.114 24.9489 148.514 25.1626 149.013 25.1626C148.813 24.6284 148.414 24.3078 148.114 23.8804C147.914 24.201 147.714 24.3078 147.814 24.7352ZM152.41 26.1243C152.011 25.9106 151.611 25.6969 151.011 25.6969C151.111 26.4449 152.211 27.2997 152.41 26.1243Z" fill="#0073F1"/>
<path fill-rule="evenodd" clip-rule="evenodd" d="M163.501 49.6321C163.701 50.8075 163.101 52.1966 163.601 53.372C163.701 53.5857 164.2 53.372 164.3 53.5857C164.3 54.0131 163.801 54.0131 163.9 54.4405C163.301 54.4405 163.301 54.2268 162.701 54.3336C163.001 54.7611 163.801 54.7611 163.701 55.6159C164.1 55.509 164.5 55.509 164.7 55.4022C164.6 55.7227 165 55.509 165 55.7227C164.9 56.0433 164.6 56.1501 164.4 56.257C164.2 57.2187 164.3 58.7146 164.4 59.4626C163.801 59.7832 163.401 59.7832 162.801 60.1037C163.201 60.2106 163.401 60.4243 163.701 60.5311C163.601 61.0654 164 60.9585 164.2 61.1722C164.2 62.8819 164.7 63.9504 164.5 65.6601C163.801 65.7669 163.9 64.9121 163.001 65.1258C163.101 65.7669 163.601 66.0875 163.601 66.8355C165.299 67.2629 164.8 70.3616 164.8 71.7507C164.4 71.8576 164.2 71.7507 164.1 71.537C161.902 72.6055 158.405 73.2467 155.407 73.1398C154.808 73.2467 152.81 73.5672 151.91 73.5672C150.312 73.5672 148.113 73.8878 146.914 73.4604C146.215 73.2467 144.916 73.3535 144.117 73.3535C143.217 73.3535 142.518 72.9261 141.719 72.9261C141.819 71.2165 141.319 70.1479 141.319 68.5451C141.519 68.4383 141.819 68.2246 141.719 67.904C142.318 67.5834 142.718 67.0492 143.217 66.6218C142.518 66.6218 141.519 66.6218 140.919 66.8355C140.719 65.6601 140.819 64.271 140.42 63.4162C140.52 63.0956 140.719 62.9888 140.919 62.8819C140.919 61.8134 141.819 61.7065 142.318 61.1722C142.218 60.7448 141.519 61.0654 141.419 60.7448C141.119 60.8517 141.019 61.2791 140.62 61.0654C140.52 59.2489 140.02 57.8598 140.02 56.3638C140.22 55.7227 141.019 55.6159 141.419 55.0816C141.319 54.7611 140.52 55.0816 140.52 54.6542C140.42 54.2268 140.719 54.2268 141.019 54.2268C140.819 53.6925 140.12 52.5171 140.719 51.9829C140.719 51.7692 140.32 51.876 140.22 51.7692C140.02 52.7308 140.32 53.4788 140.42 54.3336C140.12 54.4405 139.92 54.4405 139.62 54.3336C139.52 53.9062 139.52 53.2651 139.321 53.0514C139.82 51.876 138.521 49.7389 139.221 48.3499L163.501 49.6321ZM140.02 49.8458C140.02 50.3801 140.42 50.4869 140.42 51.0212C141.019 51.128 141.619 51.3417 142.218 51.4486C142.318 51.7692 142.118 51.7692 142.118 51.9829C144.017 52.3034 146.015 52.624 148.413 52.624C149.912 53.1583 152.11 52.5171 153.909 52.624C155.507 52.3034 157.406 52.3034 159.204 52.1966C159.504 51.876 160.004 51.9829 160.603 51.876C161.003 51.6623 161.502 51.2349 161.802 51.4486C162.502 50.9143 162.901 50.1664 162.502 48.8841L140.02 49.8458ZM162.701 53.7994C162.801 53.2651 162.602 52.5171 162.701 51.876C162.602 51.876 162.602 51.7692 162.502 51.7692C162.202 52.3034 162.302 53.5857 162.701 53.7994ZM140.919 52.4103C140.919 53.0514 141.519 53.7994 141.119 54.3336C141.319 54.2268 141.319 54.4405 141.419 54.5473C141.719 54.5473 141.819 54.4405 142.218 54.4405C141.819 54.1199 142.018 53.2651 141.918 52.624C141.519 52.7308 141.319 52.0897 140.919 52.4103ZM142.718 54.8679C142.918 54.8679 143.117 54.8679 143.317 54.8679C143.217 54.1199 143.117 53.1583 142.718 52.7308C142.618 52.7308 142.618 52.7308 142.518 52.7308C142.618 53.4788 142.518 54.0131 142.718 54.8679ZM160.403 52.624C160.403 53.2651 160.503 53.5857 160.503 54.1199C160.703 54.1199 160.703 54.2268 160.803 54.3336C161.203 54.1199 161.702 53.9062 162.202 53.7994C161.902 53.372 161.602 52.8377 161.602 52.1966C161.303 52.4103 160.903 52.624 160.403 52.624ZM143.917 54.761C144.217 54.761 144.516 54.9748 144.716 54.761C144.117 54.3336 144.816 52.624 143.517 52.9445C143.617 53.5857 143.817 54.2268 143.917 54.761ZM158.305 53.0514C158.105 53.5857 158.305 53.9062 158.305 54.8679C158.805 54.7611 159.304 54.6542 159.804 54.5473C159.804 54.0131 159.804 53.4788 159.804 52.9445C159.204 52.9445 158.905 52.9445 158.305 53.0514ZM145.216 55.0816C145.516 55.1885 145.715 55.0816 146.115 55.1885C146.115 54.4405 145.815 54.0131 145.815 53.2651C145.516 53.2651 145.216 53.2651 144.916 53.2651C144.816 54.1199 145.116 54.3336 145.216 55.0816ZM146.814 55.1885C147.214 55.0816 147.114 55.4022 147.414 55.2953C147.514 54.5473 147.214 53.6925 147.414 53.372C147.214 53.1583 146.914 53.1583 146.515 53.2651C146.415 54.0131 146.814 54.4405 146.814 55.1885ZM155.308 53.2651C155.407 54.0131 155.507 54.6542 155.507 55.1885C156.207 55.0816 157.006 54.8679 157.905 54.8679C157.805 54.2268 157.905 53.4788 157.606 53.0514C156.806 53.0514 156.307 53.1583 155.308 53.2651ZM147.914 53.4788C147.614 53.9062 148.313 54.7611 147.914 55.1885C148.113 55.4022 148.713 55.509 149.013 55.2953C149.013 54.4405 148.913 54.2268 148.913 53.372C148.613 53.372 148.113 53.372 147.914 53.4788ZM153.109 53.372C153.109 54.1199 153.209 54.6542 153.209 55.2953C153.809 55.2953 154.308 55.1885 154.808 55.1885C154.808 54.4405 154.608 54.0131 154.608 53.2651C154.108 53.2651 153.709 53.372 153.109 53.372ZM149.712 55.509C150.012 55.2953 150.511 55.6159 150.811 55.4022C150.511 54.6542 150.711 54.3336 150.511 53.5857C150.112 53.5857 149.812 53.5857 149.512 53.4788C149.412 54.0131 149.612 54.8679 149.712 55.509ZM151.411 55.4022C151.71 55.6159 152.21 55.4022 152.61 55.509C152.61 55.0816 152.61 54.2268 152.61 53.5857C151.011 53.1583 151.111 53.9062 151.411 55.4022ZM140.719 56.4707C141.319 57.3255 142.618 57.1118 143.817 57.2187C143.917 57.2187 143.917 57.3255 144.017 57.3255C145.216 57.5392 146.415 57.1118 147.314 57.6461C148.613 57.7529 150.811 57.5392 152.31 57.7529C152.51 57.8598 152.41 57.5392 152.61 57.5392C152.71 57.7529 153.109 57.6461 153.409 57.6461C154.608 57.3255 156.107 57.4324 157.606 57.2187C158.105 56.8981 158.905 56.8981 159.604 56.8981C160.803 56.4707 162.302 56.4707 163.201 55.7227C163.101 55.2953 162.701 55.1885 162.202 55.2953C162.102 55.1885 162.202 54.761 162.002 54.761C158.405 55.509 154.009 56.1501 150.112 56.0433C149.812 55.9364 150.112 56.3638 149.812 56.257C149.512 56.257 149.512 55.9364 149.212 55.9364C146.814 56.1501 144.716 55.4022 142.518 55.2953C142.518 55.2953 142.518 55.1885 142.418 55.1885C141.819 55.8296 141.219 56.0433 140.719 56.4707ZM162.102 57.1118C162.002 57.5392 162.002 58.7146 161.902 59.6763C162.402 59.7832 162.502 59.5694 162.901 59.4626C162.502 58.8215 162.901 57.5392 162.701 56.8981C162.602 57.1118 162.302 57.1118 162.102 57.1118ZM142.018 60.2106C141.918 59.3557 141.719 59.0352 141.719 57.8598C141.319 57.8598 141.219 57.6461 140.919 57.6461C141.219 58.3941 140.62 60.3174 142.018 60.2106ZM142.818 60.5311C143.117 60.5311 143.417 60.5311 143.717 60.5311C143.517 59.6763 143.617 58.6078 143.517 57.9666C142.918 57.9666 142.718 57.9666 142.118 57.9666C142.418 58.9283 142.518 59.5694 142.818 60.5311ZM160.403 57.5392C160.303 58.1804 160.303 59.3557 160.403 59.9969C160.803 59.9969 161.103 59.9969 161.303 59.7832C161.203 59.0352 161.303 57.8598 161.403 57.5392C161.203 57.4324 160.703 57.4324 160.403 57.5392ZM144.317 60.7448C144.716 60.7448 145.116 60.7448 145.416 60.8517C145.216 59.9969 145.016 59.142 144.916 58.1804C144.616 58.2872 144.516 58.0735 144.217 58.0735C144.117 58.9283 144.117 59.7832 144.317 60.7448ZM158.605 57.9666C158.505 58.8215 158.905 59.3557 158.605 59.89C158.905 59.9969 158.705 60.5311 159.004 60.4243C159.204 60.2106 159.504 60.2106 159.804 60.2106C159.604 59.4626 159.804 58.3941 159.704 57.7529C159.404 57.8598 158.905 57.8598 158.605 57.9666ZM145.516 58.1804C145.416 59.142 145.815 60.1037 146.015 60.9585C146.315 60.9585 146.615 60.9585 146.814 60.9585C146.814 60.1037 146.814 59.2489 146.814 58.3941C146.215 58.5009 145.915 58.0735 145.516 58.1804ZM156.107 58.5009C156.706 58.8215 156.007 60.5311 156.806 60.638C157.006 60.3174 157.905 60.638 158.205 60.3174C157.706 59.9969 158.205 58.5009 157.805 58.0735C157.406 58.3941 156.307 57.9666 156.107 58.5009ZM147.614 60.9585C148.013 60.9585 148.213 61.0654 148.613 61.0654C148.413 60.2106 148.513 59.4626 148.613 58.5009C148.313 58.3941 147.914 58.3941 147.514 58.3941C147.514 59.2489 147.414 60.2106 147.614 60.9585ZM154.508 58.2872C154.508 59.3557 154.308 61.2791 156.007 60.7448C155.807 60.1037 155.607 59.0352 155.707 58.2872C155.307 58.2872 154.908 58.2872 154.508 58.2872ZM149.312 60.9585C149.912 60.9585 150.412 60.9585 151.011 60.9585C150.811 60.3174 150.911 59.5694 150.911 58.6078C150.312 58.6078 149.712 58.6078 149.113 58.6078C149.013 59.3557 148.813 60.4243 149.312 60.9585ZM151.611 60.9585C151.81 60.9585 151.91 60.9585 152.11 60.9585C152.11 60.638 152.11 60.4243 152.11 60.1037C151.611 59.7832 152.21 58.7146 151.71 58.6078C151.211 59.0352 151.611 60.1037 151.611 60.9585ZM152.71 60.8517C153.209 60.8517 153.709 60.8517 154.208 60.8517C153.909 60.3174 153.909 59.3557 153.909 58.6078C153.509 58.3941 152.909 58.7146 152.51 58.6078C152.41 59.5694 152.71 59.89 152.71 60.8517ZM157.606 61.386C154.009 61.5997 151.211 61.5997 147.714 61.5997C147.514 61.5997 147.514 61.9202 147.214 61.8134C147.114 61.7065 147.014 61.5997 146.914 61.4928C145.915 61.7065 144.716 61.2791 143.917 61.386C143.917 61.5997 143.817 61.7065 143.517 61.9202C143.417 61.7065 143.617 61.2791 143.317 61.386C142.818 61.8134 142.218 62.0271 142.018 62.6682C144.217 63.523 148.513 62.8819 151.91 63.0956C152.11 62.9888 152.01 62.775 152.41 62.8819C152.81 63.2025 153.709 63.2025 154.108 62.8819C154.408 62.775 154.208 63.2025 154.508 63.0956C155.607 62.8819 156.806 62.775 157.805 62.4545C158.005 62.4545 158.005 62.775 158.305 62.5613C159.804 61.9202 162.002 62.1339 163.101 60.9585C161.403 60.3174 159.304 60.8517 157.606 61.386ZM163.101 64.8053C162.801 64.3778 163.001 63.3093 162.602 62.9888C163.001 62.8819 162.402 62.6682 162.701 62.4545C162.602 62.4545 162.502 62.4545 162.402 62.4545C162.602 63.0956 162.202 64.6984 163.101 64.8053ZM161.303 65.2327C161.602 65.2327 161.802 65.2327 162.102 65.2327C162.102 64.1641 161.902 63.523 161.902 62.6682C160.803 62.5613 161.502 64.271 161.303 65.2327ZM159.604 63.0956C159.904 63.523 159.704 64.5916 159.804 65.3395C160.203 65.5532 160.104 65.4464 160.603 65.4464C160.603 65.1258 160.503 64.8053 160.703 64.6984C160.503 64.4847 160.903 63.4162 160.703 62.775C160.303 62.9887 159.904 62.8819 159.604 63.0956ZM142.518 63.8436C142.618 64.1641 142.118 63.9504 142.118 64.271C142.118 64.4847 142.618 65.1258 142.218 65.5532C142.318 65.7669 142.518 65.7669 142.718 65.6601C142.718 64.9121 142.418 64.0573 142.918 63.6299C142.518 63.6299 142.418 63.3093 141.819 63.4162C141.918 63.8436 142.418 63.6299 142.518 63.8436ZM158.105 63.4162C158.405 63.4162 158.205 63.7367 158.105 63.7367C158.205 63.9504 158.005 65.1258 158.105 65.8738C158.605 65.8738 158.905 65.6601 159.204 65.5532C158.505 64.8053 159.704 63.6299 158.605 63.0956C158.705 63.523 158.105 63.2025 158.105 63.4162ZM156.207 63.9504C156.307 64.4847 156.407 65.019 156.407 65.9806C156.706 66.1943 157.206 65.9806 157.606 66.0875C157.406 65.1258 157.406 64.271 157.606 63.523C156.906 63.4162 156.407 63.3093 156.207 63.9504ZM143.417 64.0573C143.317 64.8053 143.417 65.4464 143.417 65.9806C143.717 66.0875 144.017 66.1944 144.217 66.3012C144.317 65.7669 144.117 64.9121 144.217 64.0573C143.817 63.7367 143.717 63.8436 143.417 64.0573ZM146.115 66.3012C146.515 66.3012 147.014 66.3012 147.314 66.1944C147.414 65.2327 146.914 64.8053 147.214 63.9504C146.814 63.8436 146.315 63.8436 145.815 63.9504C146.215 64.5916 146.115 65.4464 146.115 66.3012ZM148.013 66.0875C148.513 66.1943 149.113 66.3012 149.412 66.0875C149.113 65.9806 148.913 64.9121 149.113 64.8053C148.813 64.5916 148.913 64.1641 148.813 63.8436C148.413 63.8436 148.313 63.9504 148.013 63.8436C147.514 64.4847 147.914 65.3395 148.013 66.0875ZM151.011 63.8436C151.111 64.5915 151.011 65.4464 151.011 66.1944C151.91 66.4081 153.109 66.4081 154.009 66.0875C153.709 65.5532 153.909 64.4847 153.809 63.7367C153.509 63.7367 153.109 63.7367 152.81 63.7367C152.61 64.3778 152.909 65.4464 152.71 66.0875C152.61 65.9806 152.31 66.0875 152.21 65.9806C152.01 65.1258 152.21 64.8053 152.21 63.8436C151.81 63.8436 151.211 63.7367 151.011 63.8436ZM154.408 63.7367C154.408 64.4847 154.408 65.2327 154.408 65.9806C154.708 66.1943 155.407 66.0875 155.807 65.9806C155.707 65.5532 155.507 64.5915 155.807 63.8436C155.507 63.523 154.908 63.9504 154.408 63.7367ZM144.816 66.3012C145.016 66.3012 145.316 66.3012 145.516 66.3012C145.516 65.5532 145.216 64.5915 145.516 64.0573C145.216 64.0573 145.016 64.0573 144.716 64.0573C144.816 64.8053 144.916 65.6601 144.816 66.3012ZM149.812 66.0875C150.012 66.1943 150.212 66.3012 150.511 66.1944C150.412 65.4464 150.412 64.6984 150.412 63.8436C150.112 63.8436 149.812 63.8436 149.612 63.8436C149.512 64.8053 149.812 65.2327 149.812 66.0875ZM161.203 66.1944C158.505 66.4081 156.906 66.9423 153.909 66.8355C151.211 67.2629 148.113 66.7286 145.116 67.0492C144.916 67.156 144.916 67.3697 144.516 67.2629C144.317 67.156 144.516 66.8355 144.217 66.8355C143.817 67.3697 142.918 67.3697 142.818 68.1177C144.017 68.3314 145.815 68.7588 146.515 68.5451C146.615 68.5451 146.615 68.8657 146.814 68.7588C147.714 68.652 148.013 68.8657 149.013 68.7588C152.61 69.1862 155.907 68.9725 159.604 68.3314C159.804 68.3314 159.604 68.0109 159.804 68.1177C160.403 68.3314 161.702 67.5834 162.102 67.3697C163.301 66.8355 163.201 66.5149 162.402 65.6601C161.802 65.7669 161.403 65.9806 161.203 66.1944ZM161.802 68.9725C161.702 69.7205 161.602 71.1096 162.102 71.7507C162.002 71.4302 162.402 71.6439 162.502 71.537C162.302 70.789 162.502 69.2931 162.302 68.8657C162.202 68.8657 162.002 68.8657 161.802 68.9725ZM144.117 71.7507C143.817 71.1096 143.517 70.5753 143.517 69.6137C143.417 69.3999 142.918 69.6137 142.818 69.5068C143.217 70.2548 142.918 72.1781 144.117 71.7507ZM160.303 69.2931C160.104 70.0411 160.203 71.3233 160.603 71.8576C160.903 71.8576 161.103 71.7507 161.403 71.7507C161.003 71.0027 161.303 70.0411 161.103 69.1862C160.803 69.1862 160.603 69.1862 160.303 69.2931ZM158.505 69.6137C158.405 69.9342 158.705 69.8274 158.705 70.1479C158.305 70.3616 158.705 71.537 158.505 72.0713C158.805 72.1781 159.604 72.1781 159.904 72.0713C159.604 71.2165 159.604 70.3616 159.504 69.5068C159.204 69.5068 158.805 69.5068 158.505 69.6137ZM163.101 71.1096C163.301 71.2165 163.601 71.2164 163.601 70.8959C163.101 70.8959 163.201 70.1479 163.201 69.5068C163.101 69.5068 163.001 69.5068 163.001 69.5068C163.001 70.1479 163.001 70.5753 163.101 71.1096ZM156.706 69.9342C156.407 70.6822 156.606 71.8576 156.906 72.4987C157.306 72.3918 157.206 72.285 157.606 72.4987C157.706 72.4987 157.606 72.1781 157.905 72.285C157.905 71.537 157.905 70.4685 157.905 69.9342C157.506 69.9342 157.106 69.9342 156.706 69.9342ZM144.916 72.0713C145.016 72.0713 145.116 72.0713 145.116 72.0713C145.116 71.2165 145.116 70.789 145.016 70.1479C144.616 70.2548 144.616 70.1479 144.217 70.1479C144.317 70.8959 144.516 71.537 144.916 72.0713ZM145.715 72.0713C146.115 72.1781 146.615 72.285 147.214 72.1781C147.114 71.537 146.814 71.3233 146.914 70.5753C146.415 70.5753 146.115 70.3616 145.715 70.2548C145.715 70.789 145.615 71.3233 145.715 72.0713ZM147.414 70.3616C147.414 71.2164 147.714 71.6439 147.814 72.3918C148.113 72.285 148.713 72.4987 148.913 72.285C148.513 71.8576 148.913 70.6822 148.613 70.1479C148.313 70.3616 147.914 70.3616 147.414 70.3616ZM149.412 72.4987C149.712 72.7124 150.012 72.8193 150.511 72.7124C150.412 71.6439 150.412 71.537 150.511 70.4685C150.112 70.4685 149.812 70.3616 149.612 70.2548C149.113 70.8959 149.412 71.4302 149.412 72.4987ZM154.508 70.3616C154.508 71.1096 154.508 71.9644 154.708 72.4987C154.908 72.4987 155.707 72.7124 156.107 72.4987C155.807 71.7507 156.207 70.6822 155.807 70.2548C155.407 70.3616 154.808 70.2548 154.508 70.3616ZM151.111 72.6055C151.411 72.8193 152.01 72.6055 152.41 72.7124C152.31 72.0713 152.31 71.2165 152.31 70.4685C151.91 70.4685 151.611 70.3616 151.111 70.3616C150.811 71.1096 151.111 71.4302 151.111 72.6055ZM152.909 70.4685C153.009 71.8576 152.61 73.2467 154.208 72.7124C153.909 72.1781 154.108 71.2165 154.009 70.4685C153.509 70.4685 153.009 70.3616 152.909 70.4685ZM143.317 72.8193C143.717 72.7124 144.317 73.1398 144.516 72.7124C143.917 72.9261 143.517 72.285 143.317 72.8193Z" fill="#0073F1"/>
<path fill-rule="evenodd" clip-rule="evenodd" d="M134.225 56.6843C134.325 56.898 134.925 56.6843 134.925 57.0049C134.825 57.4323 134.425 57.4323 134.425 57.8597C133.826 57.8597 133.726 57.646 133.126 57.7529C133.426 58.1803 134.225 58.1803 134.125 59.1419C134.525 59.1419 134.925 59.1419 135.124 58.9282C135.025 59.2488 135.424 59.0351 135.424 59.2488C135.324 59.5694 135.025 59.6762 134.825 59.7831C134.625 60.7447 134.625 62.3475 134.625 63.0955C133.925 63.3092 133.626 63.4161 132.926 63.6298C133.326 63.7366 133.526 64.0572 133.826 64.1641C133.626 64.6983 134.125 64.6983 134.325 64.8052C134.225 66.5148 134.725 67.6902 134.425 69.3999C133.626 69.3999 133.826 68.6519 132.926 68.7587C133.026 69.5067 133.426 69.8273 133.526 70.5752C135.224 71.1095 134.525 74.3151 134.425 75.7042C134.025 75.8111 133.826 75.5973 133.726 75.3836C131.328 76.3453 127.73 76.8796 124.633 76.4522C124.034 76.559 121.935 76.6659 121.036 76.6659C119.337 76.6659 117.139 76.7727 115.84 76.3453C115.141 76.1316 113.842 76.1316 112.943 76.0248C112.043 75.9179 111.344 75.4905 110.545 75.3836C110.744 73.674 110.245 72.4986 110.345 70.7889C110.645 70.6821 110.844 70.5752 110.844 70.1478C111.544 69.8273 111.943 69.293 112.443 68.8656C111.744 68.8656 110.744 68.7587 110.045 68.9724C109.945 67.7971 110.045 66.408 109.645 65.4463C109.745 65.1257 109.945 65.0189 110.245 64.912C110.345 63.8435 111.244 63.7366 111.844 63.2024C111.744 62.775 110.944 63.0955 110.944 62.6681C110.545 62.775 110.445 63.2024 110.045 62.9887C110.045 61.1722 109.545 59.6762 109.645 58.0734C109.945 57.4323 110.744 57.3254 111.144 56.898C111.044 56.5775 110.245 56.898 110.245 56.4706C110.245 56.0432 110.445 56.0432 110.844 56.0432C110.645 55.5089 109.945 54.2267 110.645 53.7993C110.645 53.5856 110.245 53.5856 110.145 53.4787C109.845 54.5473 110.145 55.1884 110.245 56.1501C109.945 56.2569 109.745 56.2569 109.445 56.1501C109.346 55.7226 109.445 55.0815 109.146 54.761C109.645 53.5856 108.446 51.2348 109.346 49.8457C109.945 48.884 111.444 48.884 112.743 48.4566C113.043 48.3498 113.242 48.0292 113.442 48.0292C114.242 47.7086 114.841 47.8155 115.54 47.3881C117.939 47.0675 121.236 47.6018 123.734 47.4949C123.834 47.4949 124.133 47.1744 124.333 47.4949C124.633 47.6018 124.533 47.2812 124.733 47.3881C126.032 47.9224 128.13 47.6018 129.229 48.3498C130.228 48.4566 131.128 48.6703 131.527 49.4183C133.026 50.1663 134.325 50.8074 134.525 52.4102C134.425 54.013 133.726 55.4021 134.225 56.6843ZM118.638 54.9747C120.137 55.6158 122.435 55.1884 124.333 55.4021C125.932 55.1884 127.93 55.2952 129.729 55.2952C130.029 54.9747 130.628 55.0815 131.128 55.0815C131.527 54.9747 132.127 54.4404 132.427 54.6541C133.126 54.1198 133.626 53.3719 133.326 52.0896C132.427 51.4485 131.427 50.5937 130.428 49.9526C129.829 49.5252 128.93 49.7389 128.33 49.2046C122.735 48.3498 117.039 48.2429 112.443 49.7389C111.544 50.2731 110.744 50.8074 110.145 51.6622C110.145 52.1965 110.445 52.4102 110.545 52.8376C111.144 53.0513 111.744 53.265 112.443 53.3719C112.543 53.6924 112.343 53.6924 112.343 53.9061C114.242 54.4404 116.24 54.8678 118.638 54.9747ZM133.226 57.1117C133.426 56.5775 133.126 55.8295 133.326 55.0815C133.226 55.0815 133.226 54.9747 133.126 54.9747C132.826 55.4021 132.926 56.7912 133.226 57.1117ZM110.844 54.3336C110.744 54.9747 111.344 55.8295 110.944 56.3638C111.244 56.2569 111.144 56.4706 111.244 56.5775C111.544 56.5775 111.744 56.4706 112.043 56.4706C111.644 56.1501 111.844 55.1884 111.844 54.5473C111.444 54.6541 111.344 54.013 110.844 54.3336ZM112.543 56.898C112.743 56.898 112.943 56.898 113.142 56.898C113.043 56.0432 113.043 55.0815 112.543 54.6541C112.443 54.6541 112.443 54.6541 112.343 54.6541C112.543 55.5089 112.443 56.0432 112.543 56.898ZM131.028 55.7226C130.928 56.3638 131.128 56.6843 131.028 57.3254C131.228 57.3254 131.228 57.5391 131.328 57.5391C131.727 57.3254 132.227 57.1117 132.826 57.1117C132.527 56.6843 132.327 56.1501 132.227 55.4021C131.927 55.6158 131.427 55.7226 131.028 55.7226ZM113.842 56.898C114.142 56.898 114.441 57.2186 114.641 56.898C114.142 56.4706 114.841 54.6541 113.542 54.9747C113.642 55.6158 113.742 56.2569 113.842 56.898ZM128.83 55.9363C128.63 56.4706 128.83 56.7912 128.73 57.7529C129.229 57.646 129.829 57.5391 130.328 57.4323C130.328 56.898 130.328 56.3638 130.428 55.7226C129.729 55.9363 129.329 55.9363 128.83 55.9363ZM115.241 57.3254C115.54 57.4323 115.74 57.4323 116.14 57.4323C116.24 56.5775 115.84 56.1501 115.94 55.4021C115.64 55.4021 115.341 55.4021 115.041 55.4021C114.841 56.2569 115.141 56.5775 115.241 57.3254ZM116.74 57.5391C117.139 57.4323 117.039 57.7529 117.339 57.7529C117.539 57.0049 117.139 56.0432 117.439 55.7226C117.239 55.5089 116.839 55.5089 116.54 55.5089C116.44 56.3638 116.839 56.6843 116.74 57.5391ZM125.632 56.0432C125.632 56.7912 125.732 57.5391 125.732 58.0734C126.531 57.9666 127.231 57.8597 128.13 57.8597C128.03 57.2186 128.23 56.3638 127.93 55.9363C127.231 55.9363 126.731 56.0432 125.632 56.0432ZM118.038 55.8295C117.739 56.2569 118.438 57.2186 117.939 57.646C118.138 57.9666 118.738 58.0734 119.138 57.8597C119.237 57.0049 119.038 56.7912 119.138 55.9363C118.838 55.7226 118.238 55.7226 118.038 55.8295ZM123.434 56.0432C123.334 56.7912 123.434 57.4323 123.434 58.0734C124.034 58.1803 124.533 58.0734 125.133 58.0734C125.233 57.3254 124.933 56.898 125.033 56.0432C124.433 55.9363 124.034 56.0432 123.434 56.0432ZM119.737 57.9666C120.137 57.7529 120.536 58.1803 120.936 57.9666C120.736 57.1117 120.936 56.898 120.736 56.0432C120.337 56.0432 120.037 56.0432 119.737 55.9363C119.537 56.4706 119.737 57.4323 119.737 57.9666ZM121.436 57.9666C121.735 58.1803 122.335 58.0734 122.735 58.0734C122.735 57.646 122.735 56.6843 122.835 56.0432C121.236 55.7226 121.336 56.4706 121.436 57.9666ZM110.445 58.5008C110.944 59.4625 112.343 59.2488 113.542 59.4625C113.642 59.4625 113.642 59.5694 113.742 59.6762C114.941 59.9968 116.24 59.5694 117.139 60.2105C118.538 60.3173 120.836 60.3173 122.235 60.6379C122.535 60.7447 122.335 60.3173 122.535 60.531C122.635 60.8516 123.034 60.6379 123.434 60.7447C124.733 60.4242 126.232 60.6379 127.73 60.531C128.23 60.2105 129.029 60.3173 129.829 60.3173C131.028 59.9968 132.626 59.9968 133.526 59.2488C133.426 58.8214 133.026 58.7145 132.527 58.7145C132.427 58.6077 132.527 58.1803 132.327 58.1803C128.53 58.7145 123.934 59.1419 120.037 58.7145C119.737 58.6077 120.037 59.1419 119.737 58.9282C119.437 58.9282 119.437 58.6077 119.138 58.6077C116.64 58.7145 114.541 57.8597 112.243 57.5391C112.243 57.5391 112.243 57.4323 112.143 57.4323C111.644 57.8597 110.944 58.0734 110.445 58.5008ZM132.427 60.4242C132.227 60.8516 132.227 62.1338 132.127 62.9887C132.626 63.0955 132.826 62.8818 133.126 62.8818C132.826 62.2407 133.226 60.8516 133.026 60.2105C133.026 60.4242 132.726 60.4242 132.427 60.4242ZM111.544 62.4544C111.544 61.5996 111.244 61.1722 111.344 59.9968C110.944 59.9968 110.844 59.6762 110.445 59.6762C110.844 60.531 110.145 62.4544 111.544 62.4544ZM112.343 62.775C112.643 62.775 112.943 62.775 113.242 62.775C113.043 61.8133 113.242 60.7447 113.142 60.1036C112.443 60.1036 112.343 59.9968 111.744 59.9968C112.043 61.0653 112.143 61.8133 112.343 62.775ZM130.728 60.7447C130.628 61.4927 130.528 62.5612 130.628 63.3092C131.028 63.3092 131.427 63.3092 131.627 63.2024C131.627 62.4544 131.727 61.1722 131.827 60.8516C131.527 60.6379 131.028 60.7447 130.728 60.7447ZM113.942 63.0955C114.341 63.0955 114.741 63.0955 115.041 63.2024C114.841 62.3475 114.741 61.3859 114.641 60.4242C114.341 60.4242 114.242 60.3173 113.942 60.3173C113.842 61.1722 113.842 62.027 113.942 63.0955ZM128.83 61.0653C128.63 61.9201 129.029 62.5612 128.73 62.9887C129.029 63.0955 128.73 63.6298 129.129 63.6298C129.329 63.4161 129.629 63.4161 130.029 63.5229C129.829 62.775 130.129 61.5996 130.029 60.9585C129.629 60.9585 129.129 60.9585 128.83 61.0653ZM115.341 60.531C115.141 61.4927 115.54 62.5613 115.74 63.4161C116.04 63.4161 116.34 63.4161 116.64 63.4161C116.64 62.5613 116.74 61.5996 116.74 60.7447C116.04 60.8516 115.74 60.4242 115.341 60.531ZM126.232 61.4927C126.831 61.9201 126.032 63.6298 126.831 63.8435C127.131 63.5229 127.93 63.8435 128.23 63.5229C127.73 63.2024 128.33 61.5996 127.93 61.1722C127.531 61.3859 126.432 60.9585 126.232 61.4927ZM117.339 63.5229C117.739 63.5229 117.939 63.7366 118.338 63.6298C118.138 62.775 118.338 62.027 118.438 61.0653C118.138 60.9585 117.739 60.9585 117.339 60.9585C117.339 61.7064 117.139 62.775 117.339 63.5229ZM124.633 61.1722C124.533 62.3475 124.233 64.2709 126.032 63.7366C125.832 63.0955 125.732 61.9201 125.832 61.1722C125.432 61.279 125.033 61.279 124.633 61.1722ZM119.138 63.6298C119.737 63.6298 120.337 63.6298 120.836 63.7366C120.636 63.0955 120.836 62.2407 120.836 61.279C120.237 61.279 119.637 61.279 119.038 61.1722C118.838 62.027 118.638 63.0955 119.138 63.6298ZM121.436 63.7366C121.635 63.7366 121.735 63.7366 121.935 63.7366C121.935 63.4161 121.935 63.2024 121.935 62.8818C121.436 62.5613 122.135 61.4927 121.635 61.279C121.236 61.7064 121.436 62.8818 121.436 63.7366ZM122.535 63.7366C123.034 63.7366 123.534 63.7366 124.133 63.8435C123.834 63.2024 123.934 62.3475 123.934 61.4927C123.534 61.279 122.934 61.5996 122.535 61.3859C122.335 62.3475 122.635 62.775 122.535 63.7366ZM127.531 64.4846C123.834 64.4846 120.936 64.3778 117.339 64.1641C117.139 64.1641 117.139 64.4846 116.839 64.3778C116.74 64.2709 116.64 64.0572 116.54 64.0572C115.54 64.164 114.341 63.6298 113.442 63.7366C113.442 64.0572 113.242 64.0572 113.043 64.2709C113.142 64.164 113.342 63.7366 113.043 63.7366C112.543 64.0572 111.844 64.3778 111.544 65.0189C113.742 66.0874 118.238 65.66 121.735 66.0874C121.935 66.0874 121.835 65.7668 122.235 65.8737C122.635 66.3011 123.534 66.3011 123.934 65.9806C124.233 65.9806 124.034 66.3011 124.333 66.1943C125.432 66.0874 126.731 66.0874 127.73 65.7668C127.93 65.7668 127.83 66.0874 128.23 65.9806C129.829 65.4463 132.127 65.7668 133.226 64.6983C131.527 63.7366 129.429 64.164 127.531 64.4846ZM133.126 68.4382C132.826 67.9039 133.126 66.8354 132.726 66.5148C133.126 66.408 132.527 66.1943 132.926 65.9806C132.826 65.9806 132.726 65.9806 132.626 65.9806C132.726 66.6217 132.227 68.2245 133.126 68.4382ZM131.228 68.7587C131.527 68.7587 131.727 68.7587 132.027 68.7587C132.127 67.5833 131.927 66.9422 131.927 66.0874C130.928 65.9806 131.427 67.7971 131.228 68.7587ZM129.529 66.5148C129.829 67.0491 129.529 68.0108 129.629 68.7587C130.029 68.9724 129.929 68.8656 130.428 68.8656C130.428 68.545 130.428 68.2245 130.628 68.1176C130.428 67.7971 130.928 66.8354 130.728 66.1943C130.328 66.3011 129.829 66.3011 129.529 66.5148ZM111.943 66.1943C111.943 66.5148 111.544 66.3011 111.544 66.6217C111.544 66.8354 112.043 67.4765 111.544 68.0108C111.644 68.2245 111.844 68.2245 112.043 68.2245C112.043 67.3696 111.844 66.5148 112.343 66.0874C111.943 66.0874 111.844 65.66 111.244 65.7668C111.344 66.0874 111.844 65.9806 111.943 66.1943ZM127.93 66.7285C128.23 66.7285 128.03 67.0491 127.93 67.0491C128.03 67.2628 127.83 68.545 127.83 69.1861C128.33 69.1861 128.63 68.9724 129.029 68.8656C128.33 68.0108 129.629 66.8354 128.53 66.3011C128.63 66.8354 128.03 66.408 127.93 66.7285ZM126.032 67.0491C126.132 67.6902 126.132 68.1176 126.132 69.1861C126.432 69.3999 127.031 69.293 127.431 69.293C127.231 68.2245 127.331 67.4765 127.531 66.6217C126.731 66.6217 126.332 66.5148 126.032 67.0491ZM112.743 66.408C112.643 67.1559 112.743 67.7971 112.643 68.3313C112.943 68.4382 113.242 68.545 113.542 68.6519C113.642 68.1176 113.542 67.2628 113.642 66.3011C113.242 66.0874 113.142 66.1943 112.743 66.408ZM115.54 68.9724C116.04 68.9724 116.44 68.9724 116.839 68.9724C116.939 68.0108 116.44 67.5833 116.839 66.6217C116.44 66.5148 115.94 66.5148 115.441 66.5148C115.64 67.2628 115.441 68.1176 115.54 68.9724ZM117.539 68.8656C118.038 68.9724 118.638 69.1862 118.938 68.8656C118.638 68.7587 118.438 67.6902 118.638 67.4765C118.338 67.2628 118.438 66.8354 118.338 66.408C117.939 66.408 117.839 66.5148 117.439 66.408C117.039 67.1559 117.439 68.1176 117.539 68.8656ZM120.636 66.7285C120.736 67.5834 120.536 68.4382 120.536 69.1861C121.436 69.5067 122.635 69.5067 123.634 69.293C123.334 68.7587 123.634 67.6902 123.534 66.8354C123.234 66.8354 122.835 66.8354 122.535 66.8354C122.335 67.4765 122.535 68.6519 122.335 69.293C122.235 69.1861 121.835 69.293 121.835 69.0793C121.635 68.2245 121.935 67.9039 121.935 66.9422C121.536 66.7285 120.836 66.6217 120.636 66.7285ZM124.233 66.8354C124.233 67.5834 124.233 68.3313 124.133 69.0793C124.433 69.293 125.133 69.1862 125.532 69.0793C125.432 68.545 125.332 67.5834 125.632 66.9422C125.332 66.6217 124.733 66.9422 124.233 66.8354ZM114.242 68.8656C114.441 68.8656 114.741 68.8656 114.941 68.8656C114.941 68.1176 114.741 67.1559 115.141 66.5148C114.841 66.5148 114.641 66.5148 114.341 66.5148C114.242 67.2628 114.242 68.2245 114.242 68.8656ZM119.337 68.9724C119.537 69.0793 119.737 69.1861 120.037 69.1861C120.037 68.4382 119.937 67.5834 120.037 66.7285C119.737 66.7285 119.437 66.7285 119.138 66.7285C119.038 67.5834 119.337 68.1176 119.337 68.9724ZM131.028 69.7204C128.23 69.8273 126.531 70.2547 123.434 69.9341C120.636 70.2547 117.439 69.3999 114.341 69.6136C114.142 69.6136 114.142 69.9341 113.742 69.8273C113.542 69.7204 113.742 69.3999 113.442 69.3999C113.043 69.9341 112.043 69.8273 111.943 70.6821C113.142 71.0027 114.941 71.5369 115.74 71.3232C115.94 71.3232 115.84 71.6438 116.04 71.5369C116.939 71.4301 117.339 71.7506 118.338 71.7506C122.035 72.4986 125.432 72.3917 129.329 71.9643C129.529 71.9643 129.329 71.5369 129.529 71.7506C130.129 71.9643 131.427 71.3232 131.927 71.2164C133.226 70.7889 133.126 70.3615 132.427 69.5067C131.727 69.293 131.328 69.5067 131.028 69.7204ZM131.527 72.6055C131.427 73.4603 131.228 74.8494 131.627 75.4905C131.527 75.1699 131.927 75.3836 132.027 75.2768C131.827 74.5288 132.127 73.0329 131.927 72.4986C131.927 72.6055 131.727 72.6055 131.527 72.6055ZM113.142 74.422C112.843 73.7808 112.543 73.1397 112.543 72.178C112.443 71.9643 111.943 72.178 111.844 71.9643C112.243 72.8192 111.943 74.7425 113.142 74.422ZM130.029 72.926C129.729 73.674 129.829 74.9562 130.129 75.5973C130.528 75.7042 130.628 75.4905 131.028 75.5973C130.728 74.8494 131.028 73.7808 130.928 72.926C130.528 72.8192 130.228 72.8192 130.029 72.926ZM128.13 73.1397C128.03 73.4603 128.33 73.4603 128.23 73.674C127.83 73.8877 128.13 75.0631 127.93 75.7042C128.23 75.9179 129.029 75.8111 129.429 75.8111C129.129 74.8494 129.229 73.9946 129.229 73.1397C128.83 73.0329 128.43 73.0329 128.13 73.1397ZM132.726 74.9562C132.926 75.0631 133.226 75.0631 133.326 74.8494C132.826 74.7425 132.926 73.9945 133.026 73.3534C132.926 73.3534 132.826 73.3534 132.826 73.3534C132.626 73.8877 132.726 74.422 132.726 74.9562ZM126.232 73.3534C125.932 74.1014 126.032 75.3836 126.332 75.9179C126.831 75.9179 126.631 75.7042 127.031 75.9179C127.231 75.9179 127.031 75.4905 127.331 75.7042C127.331 74.8494 127.431 73.8877 127.431 73.2466C127.031 73.3534 126.631 73.3534 126.232 73.3534ZM113.942 74.8494C114.042 74.8494 114.142 74.8494 114.142 74.8494C114.142 73.9945 114.242 73.4603 114.142 72.926C113.742 72.926 113.742 72.926 113.242 72.926C113.442 73.5671 113.542 74.3151 113.942 74.8494ZM114.841 74.8494C115.241 75.0631 115.74 75.0631 116.34 75.0631C116.34 74.422 115.94 74.1014 116.04 73.3534C115.54 73.2466 115.241 73.0329 114.841 72.926C114.841 73.5671 114.741 74.1014 114.841 74.8494ZM116.64 73.2466C116.54 74.1014 116.939 74.6357 116.939 75.3836C117.239 75.3836 117.839 75.4905 118.038 75.3836C117.739 74.9562 118.038 73.674 117.839 73.1397C117.539 73.2466 117.139 73.2466 116.64 73.2466ZM118.538 75.4905C118.838 75.7042 119.138 75.8111 119.637 75.8111C119.537 74.7425 119.637 74.6357 119.737 73.4603C119.337 73.4603 119.038 73.3534 118.838 73.1397C118.338 73.7808 118.638 74.422 118.538 75.4905ZM123.934 73.674C123.934 74.422 123.834 75.2768 124.034 75.9179C124.233 75.9179 125.033 76.1316 125.432 75.9179C125.233 75.1699 125.632 74.1014 125.233 73.5671C124.933 73.674 124.333 73.4603 123.934 73.674ZM120.237 75.8111C120.536 76.0248 121.136 75.9179 121.536 75.9179C121.436 75.2768 121.536 74.3151 121.536 73.5671C121.036 73.5671 120.836 73.3534 120.237 73.4603C120.037 74.2083 120.337 74.5288 120.237 75.8111ZM122.235 73.5671C122.335 74.9562 121.735 76.4522 123.434 75.9179C123.134 75.3836 123.434 74.3151 123.334 73.5671C122.934 73.674 122.435 73.5671 122.235 73.5671ZM112.243 75.4905C112.643 75.3836 113.242 75.9179 113.542 75.4905C112.943 75.5973 112.543 74.9562 112.243 75.4905Z" fill="#0073F1"/>
<path fill-rule="evenodd" clip-rule="evenodd" d="M119.138 49.0977C119.538 49.0977 119.738 49.3114 119.937 49.5251C120.737 49.2045 122.235 48.884 122.635 49.7388C122.635 49.9525 122.535 50.0593 122.535 50.273C121.936 50.3799 121.236 49.6319 120.537 50.1662C120.437 51.1279 121.236 51.1279 121.536 51.6621C123.335 51.5553 125.333 51.8758 124.534 53.7992C124.234 53.6923 124.334 54.2266 123.934 54.1198C123.834 54.4403 124.134 54.4403 124.134 54.7609C124.134 55.0814 123.734 54.9746 123.634 55.1883C123.434 54.654 122.735 55.0814 122.635 54.5472C121.836 54.654 121.336 54.7609 120.537 54.7609C120.837 54.654 120.737 54.0129 120.837 53.7992C121.136 53.7992 121.936 54.1198 122.136 53.7992C122.036 53.3718 121.436 53.3718 121.436 52.8375C120.037 52.8375 118.139 52.8375 118.539 50.8073C118.738 50.5936 118.838 50.273 119.238 50.1662C119.138 49.6319 118.838 49.3114 119.138 49.0977ZM119.238 51.4484C119.538 51.6621 119.937 51.8758 120.437 51.8758C120.237 51.3416 119.837 51.021 119.538 50.5936C119.338 50.8073 119.138 50.9142 119.238 51.4484ZM123.834 52.7307C123.434 52.517 123.035 52.3033 122.435 52.3033C122.535 53.1581 123.634 53.9061 123.834 52.7307Z" fill="#0073F1"/>
</svg>
