<svg width="280" height="220" viewBox="0 0 280 220" fill="none" xmlns="http://www.w3.org/2000/svg">
<path d="M107.387 159V157.392H98.5308L103.043 153.048C104.411 151.752 105.371 150.648 105.923 149.76C106.475 148.848 106.763 147.816 106.763 146.688C106.763 145.272 106.235 144.12 105.203 143.232C104.171 142.344 102.899 141.912 101.339 141.912C99.3948 141.912 97.7388 142.56 96.3228 143.832V145.824C97.7868 144.312 99.4188 143.568 101.171 143.568C103.451 143.568 104.987 144.912 104.987 146.904C104.987 147.84 104.723 148.68 104.219 149.424C103.715 150.168 102.851 151.104 101.603 152.28L95.9388 157.68V159H107.387ZM119.741 159V154.368H122.525V152.76H119.741V142.2H118.037L108.989 152.952V154.368H118.013V159H119.741ZM118.013 144.552V152.76H111.053L118.013 144.552ZM133.409 159V148.92H140.393V147.408H131.681V159H133.409ZM143.749 148.92C142.573 150.096 141.997 151.536 141.997 153.216C141.997 154.896 142.573 156.336 143.749 157.512C144.925 158.688 146.413 159.288 148.261 159.288C150.109 159.288 151.597 158.688 152.773 157.512C153.949 156.336 154.525 154.896 154.525 153.216C154.525 151.536 153.949 150.096 152.773 148.92C151.597 147.72 150.109 147.12 148.261 147.12C146.413 147.12 144.925 147.72 143.749 148.92ZM152.749 153.216C152.749 154.488 152.317 155.568 151.477 156.432C150.637 157.296 149.557 157.728 148.261 157.728C146.965 157.728 145.885 157.296 145.045 156.432C144.205 155.568 143.773 154.488 143.773 153.216C143.773 151.92 144.205 150.84 145.045 149.976C145.885 149.112 146.965 148.68 148.261 148.68C149.557 148.68 150.637 149.112 151.477 149.976C152.317 150.84 152.749 151.92 152.749 153.216ZM157.489 162.432V159H168.385V162.432H170.065V157.488H167.905V147.408H159.289L159.265 149.04C159.241 152.952 158.593 155.784 157.297 157.488H155.833V162.432H157.489ZM159.217 157.488C160.345 155.688 160.897 153.072 160.897 149.616V148.92H166.177V157.488H159.217ZM176.819 157.728C175.019 157.728 173.651 156.912 173.651 155.352C173.651 153.912 174.971 153.024 177.083 153.024C178.403 153.024 179.675 153.408 180.851 154.176V155.784C180.011 156.84 178.475 157.728 176.819 157.728ZM176.339 159.288C178.283 159.288 179.843 158.616 181.019 157.248C181.211 158.496 182.075 159.096 183.203 159.096C183.731 159.096 184.115 159 184.355 158.832V157.488C184.163 157.584 183.947 157.632 183.683 157.632C183.011 157.632 182.579 157.08 182.579 156.192V151.416C182.579 148.608 180.491 147.12 177.395 147.12C175.739 147.12 174.371 147.48 173.243 148.176V149.856C174.419 149.064 175.667 148.68 177.035 148.68C179.579 148.68 180.851 149.64 180.851 151.584V152.736C179.579 151.992 178.187 151.608 176.675 151.608C175.307 151.608 174.179 151.944 173.267 152.64C172.379 153.336 171.923 154.272 171.923 155.448C171.923 156.648 172.355 157.584 173.195 158.28C174.059 158.952 175.115 159.288 176.339 159.288Z" fill="#333333"/>
<path d="M114.784 195V192.42H118.348V195H119.212V189.204H118.348V191.64H114.784V189.204H113.92V195H114.784ZM123.212 194.364C122.312 194.364 121.628 193.956 121.628 193.176C121.628 192.456 122.288 192.012 123.344 192.012C124.004 192.012 124.64 192.204 125.228 192.588V193.392C124.808 193.92 124.04 194.364 123.212 194.364ZM122.972 195.144C123.944 195.144 124.724 194.808 125.312 194.124C125.408 194.748 125.84 195.048 126.404 195.048C126.668 195.048 126.86 195 126.98 194.916V194.244C126.884 194.292 126.776 194.316 126.644 194.316C126.308 194.316 126.092 194.04 126.092 193.596V191.208C126.092 189.804 125.048 189.06 123.5 189.06C122.672 189.06 121.988 189.24 121.424 189.588V190.428C122.012 190.032 122.636 189.84 123.32 189.84C124.592 189.84 125.228 190.32 125.228 191.292V191.868C124.592 191.496 123.896 191.304 123.14 191.304C122.456 191.304 121.892 191.472 121.436 191.82C120.992 192.168 120.764 192.636 120.764 193.224C120.764 193.824 120.98 194.292 121.4 194.64C121.832 194.976 122.36 195.144 122.972 195.144ZM132.409 194.076C132.949 194.784 133.693 195.144 134.653 195.144C135.505 195.144 136.213 194.844 136.753 194.256C137.293 193.668 137.569 192.948 137.569 192.096C137.569 191.256 137.293 190.536 136.753 189.948C136.213 189.36 135.505 189.06 134.653 189.06C133.693 189.06 132.949 189.42 132.409 190.128V189.204H131.545V197.4H132.409V194.076ZM132.409 191.148C132.757 190.392 133.573 189.84 134.449 189.84C135.085 189.84 135.625 190.056 136.045 190.488C136.465 190.92 136.681 191.46 136.681 192.096C136.681 192.732 136.465 193.272 136.045 193.716C135.625 194.148 135.085 194.364 134.449 194.364C133.573 194.364 132.745 193.824 132.409 193.056V191.148ZM145.798 195V189.204H144.934V195H145.798ZM141.802 195C143.182 195 143.974 194.208 143.974 193.068C143.974 191.904 143.122 191.148 141.766 191.148H140.038V189.204H139.174V195H141.802ZM140.038 191.904H141.646C142.558 191.904 143.098 192.324 143.098 193.08C143.098 193.812 142.558 194.244 141.646 194.244H140.038V191.904ZM148.698 195V192.42H152.262V195H153.126V189.204H152.262V191.64H148.698V189.204H147.834V195H148.698ZM155.17 189.204V195H156.034V192.144L159.166 195H160.402L156.91 191.82L159.97 189.204H158.794L156.034 191.592V189.204H155.17ZM164.036 195.144C164.912 195.144 165.584 194.964 166.064 194.592V193.824C165.5 194.184 164.876 194.364 164.204 194.364C162.812 194.364 161.828 193.56 161.732 192.312H166.496V192.072C166.496 190.764 165.728 189.06 163.784 189.06C162.92 189.06 162.212 189.348 161.66 189.936C161.12 190.512 160.844 191.232 160.844 192.108C160.844 192.996 161.144 193.728 161.756 194.292C162.368 194.856 163.136 195.144 164.036 195.144ZM161.744 191.604C161.78 191.124 161.984 190.716 162.332 190.368C162.692 190.02 163.16 189.84 163.748 189.84C164.36 189.84 164.816 190.02 165.116 190.392C165.428 190.752 165.596 191.16 165.62 191.604H161.744ZM91.1293 214.144C91.9573 214.144 92.6413 213.868 93.2053 213.316C93.7693 212.764 94.0453 212.056 94.0453 211.18C94.0453 210.388 93.7933 209.74 93.2773 209.236C92.7613 208.72 92.1253 208.468 91.3693 208.468C90.2173 208.468 89.2813 208.984 88.8013 209.812C88.8373 208.84 89.0773 208.132 89.5213 207.664C89.9653 207.196 90.6253 206.872 91.5013 206.668C91.9453 206.56 92.5813 206.428 93.4093 206.272V205.468C92.9773 205.552 92.6173 205.612 92.3413 205.672C92.0653 205.732 91.7533 205.804 91.3933 205.9C91.0453 205.984 90.7573 206.08 90.5293 206.164C90.0853 206.344 89.4733 206.632 89.1493 206.956C88.4173 207.628 87.9853 208.66 87.9853 210.304C87.9853 211.492 88.2613 212.428 88.8133 213.112C89.3653 213.796 90.1333 214.144 91.1293 214.144ZM91.1293 213.364C89.7493 213.364 88.9573 212.416 88.8733 210.796C89.0533 210.376 89.3533 210.016 89.7733 209.716C90.1933 209.404 90.6613 209.248 91.1773 209.248C91.7413 209.248 92.2093 209.428 92.5933 209.8C92.9773 210.16 93.1693 210.64 93.1693 211.24C93.1693 211.864 92.9653 212.38 92.5693 212.776C92.1733 213.172 91.6933 213.364 91.1293 213.364ZM96.5207 213.076C97.0607 213.784 97.8047 214.144 98.7647 214.144C99.6167 214.144 100.325 213.844 100.865 213.256C101.405 212.668 101.681 211.948 101.681 211.096C101.681 210.256 101.405 209.536 100.865 208.948C100.325 208.36 99.6167 208.06 98.7647 208.06C97.8047 208.06 97.0607 208.42 96.5207 209.128V208.204H95.6567V216.4H96.5207V213.076ZM96.5207 210.148C96.8687 209.392 97.6847 208.84 98.5607 208.84C99.1967 208.84 99.7367 209.056 100.157 209.488C100.577 209.92 100.793 210.46 100.793 211.096C100.793 211.732 100.577 212.272 100.157 212.716C99.7367 213.148 99.1967 213.364 98.5607 213.364C97.6847 213.364 96.8567 212.824 96.5207 212.056V210.148ZM103.742 208.96C103.154 209.548 102.866 210.268 102.866 211.108C102.866 211.948 103.154 212.668 103.742 213.256C104.33 213.844 105.074 214.144 105.998 214.144C106.922 214.144 107.666 213.844 108.254 213.256C108.842 212.668 109.13 211.948 109.13 211.108C109.13 210.268 108.842 209.548 108.254 208.96C107.666 208.36 106.922 208.06 105.998 208.06C105.074 208.06 104.33 208.36 103.742 208.96ZM108.242 211.108C108.242 211.744 108.026 212.284 107.606 212.716C107.186 213.148 106.646 213.364 105.998 213.364C105.35 213.364 104.81 213.148 104.39 212.716C103.97 212.284 103.754 211.744 103.754 211.108C103.754 210.46 103.97 209.92 104.39 209.488C104.81 209.056 105.35 208.84 105.998 208.84C106.646 208.84 107.186 209.056 107.606 209.488C108.026 209.92 108.242 210.46 108.242 211.108ZM110.739 208.204V214H111.603V211.144L114.735 214H115.971L112.479 210.82L115.539 208.204H114.363L111.603 210.592V208.204H110.739ZM119.605 214.144C120.481 214.144 121.153 213.964 121.633 213.592V212.824C121.069 213.184 120.445 213.364 119.773 213.364C118.381 213.364 117.396 212.56 117.301 211.312H122.065V211.072C122.065 209.764 121.297 208.06 119.353 208.06C118.489 208.06 117.781 208.348 117.229 208.936C116.689 209.512 116.413 210.232 116.413 211.108C116.413 211.996 116.713 212.728 117.325 213.292C117.937 213.856 118.705 214.144 119.605 214.144ZM117.312 210.604C117.349 210.124 117.553 209.716 117.901 209.368C118.261 209.02 118.729 208.84 119.317 208.84C119.929 208.84 120.385 209.02 120.685 209.392C120.997 209.752 121.165 210.16 121.189 210.604H117.312ZM124.552 213.076C125.092 213.784 125.836 214.144 126.796 214.144C127.648 214.144 128.356 213.844 128.896 213.256C129.436 212.668 129.712 211.948 129.712 211.096C129.712 210.256 129.436 209.536 128.896 208.948C128.356 208.36 127.648 208.06 126.796 208.06C125.836 208.06 125.092 208.42 124.552 209.128V208.204H123.688V216.4H124.552V213.076ZM124.552 210.148C124.9 209.392 125.716 208.84 126.592 208.84C127.228 208.84 127.768 209.056 128.188 209.488C128.608 209.92 128.824 210.46 128.824 211.096C128.824 211.732 128.608 212.272 128.188 212.716C127.768 213.148 127.228 213.364 126.592 213.364C125.716 213.364 124.888 212.824 124.552 212.056V210.148ZM133.981 214.144C134.689 214.144 135.313 213.976 135.853 213.652V212.86C135.337 213.196 134.761 213.364 134.113 213.364C133.453 213.364 132.889 213.148 132.445 212.728C132.001 212.296 131.785 211.756 131.785 211.108C131.785 210.448 132.001 209.908 132.445 209.488C132.889 209.056 133.453 208.84 134.113 208.84C134.677 208.84 135.217 208.984 135.745 209.284V208.48C135.253 208.204 134.665 208.06 133.993 208.06C133.117 208.06 132.373 208.348 131.785 208.936C131.197 209.512 130.897 210.232 130.897 211.096C130.897 211.972 131.185 212.692 131.773 213.28C132.361 213.856 133.105 214.144 133.981 214.144ZM137.61 208.204V214H138.474V211.144L141.606 214H142.842L139.35 210.82L142.41 208.204H141.234L138.474 210.592V208.204H137.61ZM144.906 214L148.614 209.488V214H149.478V208.204H148.674L144.966 212.728V208.204H144.102V214H144.906ZM151.892 214L153.848 211.576L155.78 214H156.8L154.364 210.916L156.524 208.204H155.516L153.86 210.268L152.204 208.204H151.184L153.332 210.94L150.896 214H151.892ZM161.723 216.448C162.587 216.448 163.283 215.848 163.799 214.648L166.667 208.204H165.731L163.739 212.764L161.687 208.204H160.727L163.307 213.784C162.767 215.092 162.311 215.668 161.591 215.668C161.315 215.668 161.051 215.608 160.799 215.476V216.28C160.991 216.388 161.303 216.448 161.723 216.448ZM170.567 214.144C171.275 214.144 171.899 213.976 172.439 213.652V212.86C171.923 213.196 171.347 213.364 170.699 213.364C170.039 213.364 169.475 213.148 169.031 212.728C168.587 212.296 168.371 211.756 168.371 211.108C168.371 210.448 168.587 209.908 169.031 209.488C169.475 209.056 170.039 208.84 170.699 208.84C171.263 208.84 171.803 208.984 172.331 209.284V208.48C171.839 208.204 171.251 208.06 170.579 208.06C169.703 208.06 168.959 208.348 168.371 208.936C167.783 209.512 167.483 210.232 167.483 211.096C167.483 211.972 167.771 212.692 168.359 213.28C168.947 213.856 169.691 214.144 170.567 214.144ZM173.311 214C173.371 214.012 173.455 214.012 173.563 214.012C174.475 214.06 175.039 213.436 175.303 212.74C175.507 212.272 175.603 211.54 175.651 211.012C175.675 210.748 175.687 210.436 175.699 210.076L175.735 208.96H178.375V214H179.239V208.204H174.907L174.859 210.052C174.823 211 174.763 211.624 174.571 212.26C174.391 212.884 174.055 213.22 173.539 213.22C173.443 213.22 173.371 213.22 173.311 213.208V214ZM181.598 216.448C182.462 216.448 183.158 215.848 183.674 214.648L186.542 208.204H185.606L183.614 212.764L181.562 208.204H180.602L183.182 213.784C182.642 215.092 182.186 215.668 181.466 215.668C181.19 215.668 180.926 215.608 180.674 215.476V216.28C180.866 216.388 181.178 216.448 181.598 216.448ZM188.794 214V208.96H192.286V208.204H187.93V214H188.794Z" fill="#333333"/>
<path d="M141.699 95.7778C114.599 99.0778 94.0992 79.3778 92.0992 53.1778C91.1992 40.9778 94.6992 28.4778 101.499 18.3778C107.899 8.87784 117.699 4.07784 128.299 1.27784C154.899 0.87784 177.099 12.0778 185.299 39.1778C194.199 68.6778 167.999 92.5778 141.699 95.7778Z" fill="white"/>
<path d="M187.2 41.4778C182.2 14.4778 152.2 -5.32218 125.4 1.27782C125.1 1.37782 125 1.47782 124.9 1.67782C101.9 5.67782 89.8996 31.1778 91.0996 53.3778C92.4996 80.7778 114.8 99.3778 141.7 97.0778C169.1 94.8778 192.6 70.2778 187.2 41.4778ZM141.7 95.7778C114.5 99.0778 93.9996 79.3778 91.9996 53.1778C90.9996 40.9778 94.5996 28.4778 101.4 18.3778C107.8 8.87782 117.6 4.07782 128.2 1.27782C154.8 0.877817 177 12.0778 185.2 39.1778C194.1 68.6778 167.9 92.5778 141.7 95.7778Z" fill="#0073F1"/>
<path d="M165.485 20.6869C164.045 20.6032 163.222 21.1059 161.987 21.6086C155.195 23.8707 148.918 27.1383 143.67 31.3276C141.612 33.0032 139.554 35.0141 137.805 37.1925C137.805 37.1925 137.702 37.1925 137.702 37.2762C133.791 39.9573 129.984 42.9736 128.235 46.9114C128.132 47.1628 128.337 47.3304 128.646 47.2466C130.396 46.7439 132.556 46.325 133.997 45.3195C133.997 45.6547 133.894 45.9898 133.894 46.325C133.791 46.4087 133.688 46.5763 133.791 46.6601C133.174 47.1628 132.762 47.6655 132.145 48.0844L132.042 48.1682C131.219 48.5033 130.498 49.0061 129.675 49.3412C128.235 50.0953 126.794 50.7655 125.147 51.2682C124.942 51.352 125.045 51.5196 125.25 51.5196C125.559 53.0277 126.794 54.2845 128.337 55.3737C126.176 55.4575 124.427 56.5466 123.398 57.971C122.884 58.725 122.472 59.5629 122.472 60.4845C122.472 60.9034 122.575 61.3224 122.678 61.6575C122.884 62.244 120.928 62.8305 120.414 62.998C118.459 63.7521 116.195 64.7575 115.372 66.4332C114.754 67.6062 114.24 68.6954 113.314 69.7846C112.182 71.0413 110.741 72.1305 110.021 73.5549C109.918 73.7224 110.227 73.8062 110.329 73.7224C110.227 73.89 110.227 73.9738 110.227 74.1414C110.227 74.3089 110.432 74.3927 110.638 74.3089C112.799 72.3819 114.24 70.0359 117.43 68.9467C120.002 68.0251 122.986 68.2765 125.045 66.6008C125.147 66.517 125.147 66.3494 125.045 66.2656C123.089 64.0872 126.074 62.244 128.337 61.4061C128.543 61.3224 128.646 61.071 128.44 60.9034C126.485 59.5629 127.72 57.2169 129.778 56.2953C130.19 56.5466 130.704 56.798 131.116 57.0494C129.469 57.1331 128.543 57.8034 128.955 59.4791C129.161 60.4845 129.778 61.4899 130.293 62.4116C130.601 62.998 131.116 63.5845 130.087 64.0035C129.264 64.3386 128.235 64.4224 127.411 64.7575C124.427 65.9305 125.456 69.8684 121.957 70.79C119.797 71.3765 117.841 71.7954 115.886 72.717C113.931 73.7224 112.079 75.1468 110.432 76.4873C110.329 76.5711 110.432 76.7387 110.638 76.6549C112.593 75.8171 114.137 74.5603 115.783 73.4711C117.636 72.2981 119.899 71.7954 122.163 71.2927C124.633 70.7062 125.353 68.6116 126.176 66.8521C127.206 64.7575 129.366 65.1764 131.116 64.0872C131.63 63.7521 131.425 63.2494 131.322 62.8305C130.704 61.071 127.72 57.3845 131.733 57.3007C133.586 58.2223 135.438 59.0602 136.776 59.898C137.187 60.1494 137.702 59.6467 137.29 59.3953L137.187 59.3115C137.907 57.2169 139.039 55.2899 140.48 53.4466C140.583 53.3628 140.583 53.2791 140.48 53.1953C140.789 52.7763 141.2 52.3574 141.715 52.0223C141.818 52.0223 141.818 51.9385 141.818 51.9385C142.435 51.6872 143.156 51.4358 143.773 51.1007C143.156 52.6088 142.95 54.3683 143.053 55.8764C143.053 56.0439 143.361 56.2115 143.567 56.1277C148.095 54.452 152.725 49.8439 152.623 45.6547C154.989 43.8114 157.047 41.8006 158.797 39.7898C163.633 34.26 165.383 27.5573 166 21.0221C165.897 20.9383 165.794 20.6869 165.485 20.6869ZM133.791 44.9844C132.248 45.4033 130.704 45.9898 129.161 46.4925C130.807 43.3087 133.688 40.879 136.878 38.533C135.438 40.6276 134.512 42.806 134.1 45.0682C134.1 44.9844 133.997 44.9844 133.791 44.9844ZM133.38 48.252C133.483 48.1682 133.483 48.0006 133.38 47.9169C133.688 47.6655 133.997 47.3304 134.203 46.9952C134.512 47.2466 134.923 47.4979 135.232 47.7493C135.644 48.0844 136.055 48.4196 136.57 48.6709C136.673 48.6709 136.673 48.6709 136.776 48.6709C136.364 49.2574 135.952 49.8439 135.644 50.4304C135.438 49.9277 134.82 49.6763 134.306 49.3412C133.791 49.0061 133.38 48.6709 132.968 48.3358C133.071 48.4196 133.277 48.3358 133.38 48.252ZM139.142 47.079C140.171 45.9898 141.509 45.152 142.641 44.1466C141.715 45.4033 140.892 46.8277 139.863 48.0844C138.628 49.5925 137.084 50.8493 135.232 51.8547C136.364 50.2628 137.702 48.5871 139.142 47.079ZM127.72 61.1548C125.971 61.9088 124.427 62.8305 123.81 64.3386C123.604 65.0089 123.81 65.5954 124.118 66.1819C124.736 67.1035 121.237 67.69 120.62 67.7738C118.356 68.1927 116.401 68.6116 114.651 69.8684C114.446 69.9521 114.343 70.1197 114.137 70.2035C114.96 69.1981 115.68 68.1089 116.092 67.0197C117.224 64.3386 121.134 63.9197 123.501 62.244C123.604 62.1602 123.707 62.0764 123.604 61.9088C122.266 59.2277 125.25 56.0439 128.646 55.7088C128.852 55.8764 129.058 55.9602 129.366 56.1277C127 56.8818 126.074 59.5629 127.72 61.1548ZM136.776 59.3115C134.923 58.1385 132.865 57.2169 131.013 56.2115C130.087 55.7088 129.161 55.1223 128.337 54.452C127.206 53.6142 126.588 52.6088 125.765 51.6872C127 51.6034 128.029 51.1007 129.058 50.598C130.19 50.0115 131.425 49.5088 132.556 48.8385C133.071 49.2574 133.483 49.5925 133.997 49.9277C134.512 50.2628 134.923 50.6817 135.541 50.7655H135.644C135.335 51.2682 135.129 51.6872 134.82 52.1899L134.717 52.2736C134.512 52.3574 134.717 52.6926 134.923 52.6088C135.644 52.4412 136.261 52.1061 136.878 51.7709C137.393 52.6088 138.422 53.3628 139.348 53.8655C137.907 55.3737 137.084 57.3845 136.776 59.3115ZM139.554 53.1953C138.731 52.6088 138.113 51.9385 137.187 51.4358C137.187 51.4358 137.187 51.4358 137.084 51.4358C137.702 51.0169 138.319 50.5142 138.834 50.0115C139.245 50.3466 139.554 50.6817 139.966 51.0169C140.171 51.1844 140.48 51.352 140.686 51.6034C140.789 51.6872 140.892 51.7709 140.995 51.8547C140.48 52.1899 139.966 52.6926 139.554 53.1953ZM143.67 55.4575C143.773 54.0331 144.39 52.4412 143.979 51.1007C146.654 49.8439 149.124 48.3358 151.491 46.5763C150.05 50.0953 148.095 53.6142 143.67 55.4575ZM157.974 39.3709C155.915 41.8844 153.343 44.0628 150.565 46.0736C147.786 48.0844 144.699 49.5925 141.715 51.4358C141.509 51.1844 141.097 50.9331 140.789 50.7655C140.274 50.4304 139.863 50.0115 139.348 49.6763C139.657 49.425 139.863 49.1736 140.068 48.9223C141.715 47.1628 143.67 44.9844 144.287 42.8898C144.39 42.7222 143.979 42.5547 143.876 42.7222H143.773C141.612 43.3925 139.863 45.4033 138.525 46.7439C137.907 47.3304 137.393 47.9169 136.981 48.5871V48.5033C136.673 48.1682 135.849 47.4979 135.849 47.4979C135.849 47.4979 135.026 46.8277 134.512 46.4087C135.335 43.7276 136.158 41.1303 137.805 38.6168C139.554 36.0195 141.818 33.7573 144.39 31.6627C149.638 27.3897 156.327 24.0383 163.427 21.8599C163.53 21.8599 163.633 21.7761 163.633 21.6924C164.045 21.5248 164.456 21.441 164.971 21.3572C164.354 27.7248 162.501 34.0087 157.974 39.3709Z" fill="#0073F1"/>
<path d="M162.09 31.8305C161.369 31.5791 160.649 31.6629 159.826 31.4953C158.797 31.3278 157.871 30.9089 157.047 30.4062C155.298 29.317 154.783 27.7251 153.96 26.1332C153.857 26.0494 153.652 26.0494 153.652 26.1332C153.549 27.8088 154.783 29.4845 156.327 30.5737C157.562 31.5791 160.34 32.6683 162.09 32.0818C162.192 31.9981 162.192 31.8305 162.09 31.8305Z" fill="#0073F1"/>
<path d="M149.33 31.3276C143.361 31.6628 143.361 40.4601 149.33 41.5493C153.24 42.3034 156.019 39.5385 156.224 36.6061C156.43 33.6736 153.034 30.9087 149.33 31.3276ZM149.124 40.7953C146.449 40.0412 145.522 37.6115 145.728 35.6006C145.934 33.7574 147.272 32.4168 149.33 31.8303C150.873 31.9141 152.211 31.9979 153.549 32.752C154.887 33.506 155.71 34.9304 155.916 36.1871C156.121 39.0358 152.623 41.7169 149.124 40.7953Z" fill="#0073F1"/>
<path d="M150.153 31.7464C145.214 31.9978 145.317 38.8681 150.153 39.7059C153.343 40.2924 155.607 38.114 155.813 35.8519C155.916 33.5897 153.24 31.4113 150.153 31.7464ZM149.948 39.1195C147.787 38.533 146.963 36.6897 147.169 35.0978C147.375 33.6735 148.404 32.5843 150.05 32.1654C151.285 32.2491 152.417 32.3329 153.446 32.9194C154.578 33.5059 155.196 34.5951 155.298 35.6005C155.71 37.7789 152.932 39.8735 149.948 39.1195Z" fill="#0073F1"/>
<path d="M151.285 31.7465C147.58 31.9978 147.683 37.0249 151.285 37.6952C153.652 38.1141 155.401 36.5222 155.504 34.8465C155.607 33.087 153.549 31.4951 151.285 31.7465ZM151.079 37.2762C149.433 36.8573 148.918 35.433 149.021 34.26C149.124 33.1708 149.947 32.4168 151.182 32.0816C152.108 32.1654 152.931 32.1654 153.755 32.6681C154.578 33.087 155.092 33.9249 155.195 34.6789C155.401 36.1871 153.24 37.779 151.079 37.2762Z" fill="#0073F1"/>
<path d="M163.118 25.0439C162.707 26.2169 162.398 27.4737 161.883 28.6467C161.575 29.2331 161.266 29.8196 160.649 30.1548C159.928 30.5737 159.002 29.7359 158.488 29.4007C158.385 29.3169 158.076 29.4007 158.179 29.5683C159.105 30.9088 160.751 31.3278 161.883 29.9872C163.118 28.5629 163.427 26.8034 163.941 25.2115C164.044 24.7926 163.221 24.625 163.118 25.0439Z" fill="#0073F1"/>
<path d="M163.427 23.3679C163.015 23.3679 163.118 23.7868 163.53 23.7868C163.942 23.7868 163.839 23.3679 163.427 23.3679Z" fill="#0073F1"/>
</svg>
